<?xml version="1.0" encoding="utf-8"?>
<!-- Generator: Adobe Illustrator 25.1.0, SVG Export Plug-In . SVG Version: 6.00 Build 0)  -->
<svg version="1.1" id="Layer_1" xmlns="http://www.w3.org/2000/svg" xmlns:xlink="http://www.w3.org/1999/xlink" x="0px" y="0px"
	 viewBox="0 0 512 512" style="enable-background:new 0 0 512 512;" xml:space="preserve">
<style type="text/css">
	.st0{fill:#B56E57;}
	.st1{clip-path:url(#SVGID_2_);}
	.st2{fill:#E94444;}
	.st3{fill:#D83131;}
	.st4{fill:#FED2A4;}
	.st5{fill:#FFBD86;}
	.st6{fill:#F6A96C;}
	.st7{fill:#EA9B58;}
</style>
<circle class="st0" cx="256" cy="256" r="243.05"/>
<g>
	<defs>
		<circle id="SVGID_1_" cx="256" cy="256" r="243.05"/>
	</defs>
	<clipPath id="SVGID_2_">
		<use xlink:href="#SVGID_1_"  style="overflow:visible;"/>
	</clipPath>
	<g class="st1">
		<g>
			<path class="st2" d="M366.29,131.93l15.64-22.57c4.78-6.9-1.93-15.93-9.92-13.35l-26.12,8.46c-18.99,6.15-39.04-5.85-42.6-25.49
				l-4.9-27.02c-1.5-8.26-12.63-9.91-16.45-2.43l-12.49,24.45c-9.08,17.77-31.74,23.47-48.14,12.1l-22.57-15.64
				c-6.9-4.78-15.93,1.93-13.35,9.92l8.46,26.12c6.15,18.99-5.85,39.04-25.49,42.6l-27.02,4.9c-8.26,1.5-9.91,12.63-2.43,16.45
				l24.45,12.49c17.77,9.08,23.47,31.74,12.1,48.14l-15.64,22.57c-4.78,6.9,1.93,15.93,9.92,13.35l26.12-8.46
				c18.99-6.15,39.04,5.85,42.6,25.49l4.9,27.02c1.5,8.26,12.63,9.91,16.45,2.43L272.3,289c9.08-17.77,31.74-23.47,48.14-12.1
				l22.57,15.64c6.9,4.78,15.93-1.93,13.35-9.92l-8.46-26.12c-6.15-18.99,5.85-39.04,25.49-42.6l27.02-4.9
				c8.26-1.5,9.91-12.63,2.43-16.45l-24.45-12.49C360.62,170.99,354.93,148.33,366.29,131.93z"/>
			<g>
				<path class="st3" d="M286.33,86.76l-4.9-27.02c-0.34-1.89-1.19-3.43-2.33-4.6l2.86-5.6c3.82-7.48,14.95-5.84,16.45,2.43
					l4.89,27.02c3.3,18.19,20.75,29.82,38.39,26.56l-12.77,6.71C309.93,118.39,289.88,106.39,286.33,86.76z"/>
				<path class="st3" d="M381.94,109.36l-15.65,22.57c-11.36,16.4-5.67,39.06,12.1,48.14l24.45,12.49
					c7.48,3.82,5.84,14.95-2.43,16.45l-10.19,1.85c1.2-3.8-0.1-8.35-4.37-10.52l-24.45-12.5c-17.77-9.07-24.41-36.51-13.04-52.92
					l15.64-22.56c3.28-4.73,1.16-10.46-3.07-12.76l11.08-3.59C380.01,93.43,386.72,102.46,381.94,109.36z"/>
			</g>
		</g>
		<path class="st4" d="M339.25,370.86l-44.88,33.33c-18.51,13.75-41.44,20.17-64.4,18.05l-27.23-2.52l-84.81,63l-73.05-98.35
			l84.82-63l3.19-28.05c2.92-25.73,16.38-49.09,37.16-64.53l21.85-16.23c10.6-7.87,25.57-5.66,33.45,4.94l47.92,64.51L339.25,370.86
			z"/>
		<path class="st5" d="M328.94,356.98l10.31,13.88l-44.88,33.33c-18.51,13.75-41.44,20.17-64.41,18.05l-27.23-2.52l-84.82,63
			l-10.31-13.88l92.13-68.43l27.23,2.52c22.96,2.13,38.58,1.13,57.1-12.62L328.94,356.98z"/>
		<g>
			<path class="st6" d="M292.01,375.92c7.94,10.68,23.03,12.91,33.71,4.98l44.58-33.11c10.68-7.94,12.91-23.03,4.98-33.71
				s-23.03-12.91-33.71-4.98l-44.58,33.11C286.31,350.14,284.08,365.24,292.01,375.92z"/>
			<path class="st6" d="M256.47,342.29c7.94,10.68,23.03,12.91,33.71,4.98l64.93-48.23c10.68-7.94,12.91-23.03,4.98-33.71
				s-23.03-12.91-33.71-4.98l-64.93,48.23C250.76,316.51,248.53,331.61,256.47,342.29L256.47,342.29z"/>
			<path class="st6" d="M235.56,267.77l81.42-60.48c10.68-7.94,25.78-5.71,33.71,4.98s5.71,25.78-4.98,33.71l-81.42,60.48
				L235.56,267.77z"/>
			<path class="st6" d="M253.03,254.79l52.54-39.03c10.68-7.94,12.91-23.03,4.98-33.71c-7.94-10.68-23.03-12.91-33.71-4.98
				l-52.54,39.03L253.03,254.79z"/>
		</g>
		<path class="st7" d="M375.29,314.07c7.93,10.68,5.71,25.78-4.98,33.72l-44.58,33.12c-10.68,7.93-25.77,5.7-33.71-4.98
			c-1.81-2.44-3.11-5.12-3.86-7.9c8.17,5.19,19.03,5.11,27.26-1L360,333.9c8.23-6.12,11.45-16.49,8.84-25.81
			C371.28,309.62,373.47,311.63,375.29,314.07z"/>
		<path class="st7" d="M360.09,265.33c7.93,10.68,5.71,25.78-4.98,33.72l-64.93,48.23c-10.68,7.93-25.77,5.7-33.71-4.98
			c-1.81-2.44-3.11-5.12-3.86-7.9c8.17,5.19,19.03,5.11,27.26-1l64.93-48.23c8.24-6.12,11.45-16.49,8.84-25.81
			C356.08,260.87,358.27,262.88,360.09,265.33z"/>
		<path class="st7" d="M350.69,212.26c3.97,5.34,5.4,11.79,4.5,17.89c-0.9,6.1-4.13,11.86-9.47,15.83l-81.42,60.48l-10.31-13.88
			l81.42-60.48c5.34-3.97,8.57-9.73,9.47-15.83c0.49-3.3,0.29-6.71-0.63-9.99C346.68,207.81,348.88,209.82,350.69,212.26z"/>
		<path class="st7" d="M310.55,182.05c7.93,10.68,5.7,25.77-4.98,33.71l-52.54,39.02l-10.31-13.88l52.54-39.02
			c8.23-6.12,11.45-16.49,8.85-25.81C306.54,177.6,308.73,179.6,310.55,182.05L310.55,182.05z"/>
		<g>
			<path class="st4" d="M132.87,293.31c2.92-25.73,16.38-49.09,37.16-64.53l21.85-16.23c10.6-7.87,25.57-5.66,33.45,4.94
				l48.94,65.88c4.71,6.34,3.39,15.29-2.95,19.99c-14.33,10.64-34.57,7.66-45.22-6.67l-21.98-29.59c0,0,18.32,24.66-16.01,54.45
				L132.87,293.31z"/>
			<path class="st5" d="M225.33,217.5l48.94,65.88c4.7,6.33,3.38,15.28-2.96,19.99c-7.16,5.32-15.8,7.23-23.99,6.03
				c-2.06-0.3-4.07-0.8-6.05-1.49c2.77-1.04,5.44-2.48,7.93-4.33c6.34-4.71,7.66-13.66,2.96-19.99l-48.94-65.88
				c-2.28-3.07-5.15-5.43-8.35-7.05C205.15,205.16,218.18,207.86,225.33,217.5L225.33,217.5z"/>
		</g>
		<path class="st5" d="M225.08,266.26l-11.82-15.91c-4.3-5.79-12.48-7-18.27-2.7l-0.37,0.27c-4.37,3.25-6.23,8.85-4.77,14.09
			c3.02,10.83,4.38,31.25-8.41,46.34c-2.96,3.5-1.84,8.85,2.24,10.94c2.71,1.39,6.02,0.92,8.2-1.2
			c29.15-28.22,12.23-50.99,12.23-50.99l7.05,9.49c2.83,3.8,8.18,4.63,12.03,1.86C227.12,275.63,227.96,270.14,225.08,266.26
			L225.08,266.26z"/>
		<path class="st5" d="M-86.93,206.93"/>
	</g>
</g>
</svg>
