<?xml version="1.0" encoding="utf-8"?>
<!-- Generator: Adobe Illustrator 25.2.0, SVG Export Plug-In . SVG Version: 6.00 Build 0)  -->
<svg version="1.1" id="Layer_1" xmlns="http://www.w3.org/2000/svg" xmlns:xlink="http://www.w3.org/1999/xlink" x="0px" y="0px"
	 viewBox="0 0 512 512" style="enable-background:new 0 0 512 512;" xml:space="preserve">
<style type="text/css">
	.st0{fill:#007BC4;}
	.st1{fill:#F4FBFF;}
	.st2{fill:#DAF1F4;}
	.st3{fill:#365E7D;}
	.st4{fill:#2B4D66;}
	.st5{fill:#D4CAB0;}
	.st6{fill:#F0EDD8;}
	.st7{fill:none;}
	.st8{fill:#CFCFCF;}
	.st9{fill:#95A5A5;}
	.st10{fill:#FFFFFF;}
	.st11{fill:#87DDFF;}
	.st12{fill:#D0D7DB;}
	.st13{fill:#F2F2F2;}
	.st14{fill:#BDC3C7;}
</style>
<circle class="st0" cx="256" cy="256" r="243"/>
<g>
	<path class="st1" d="M390,313.2c19.5-7.5,42-24.4,55.2-40.7c3.6-4.5,9.4-6.6,15-5.7l6.2,1c5.9,1,11.7-2.7,12.9-8.6
		c1.3-6.1-2.8-12-9-13.1l-0.9-0.2c-6.7-1.1-12-6.4-13.1-13.2c-6.8-41.1-51-100.1-88-120.9c-5.9-3.3-9-9.9-7.9-16.5l0.5-2.9
		c1-6-3-11.7-9-12.7c-6-1-11.7,3-12.7,9l-1.1,6.8c-1,5.8-5,10.5-10.5,12.4c-19.6,6.8-42.7,22.4-55.8,38.3c-3.6,4.4-9.3,6.5-14.9,5.6
		l-5.1-0.9c-6-1-11.7,3-12.7,9c-1,6,3,11.7,9,12.7l1.9,0.3c6.4,1.1,11.6,6,12.9,12.4c8.7,42,50,103.6,86.7,124.5
		c5.8,3.3,8.9,9.9,7.8,16.5c-1,6,3,11.7,9,12.7c6,1,11.7-3,12.7-9l0.8-4.8C381,319.9,384.7,315.2,390,313.2L390,313.2z"/>
	<path class="st2" d="M379.2,330.2c0.6-1.7,0.1-12.8,10.8-17c19-7.3,41.7-24,55.3-40.8c3.6-4.4,9.3-6.5,14.9-5.6l6.2,1
		c5.9,1,11.7-2.7,12.9-8.6c1.3-6.1-2.8-12-9-13.1l-0.3-0.1c0,0,0,0.1,0,0.1c-1.2,5.8-7,9.6-12.9,8.6l-6.2-1c-5.7-1-11.4,1.2-15,5.7
		c-0.2,0.3-0.5,0.5-0.7,0.8c-10.6,12.8-29.1,15.3-43,6.2c-26.9-17.5-62.1-19.5-91.3-3.7c15,20.3,32.3,37.9,48.8,47.2
		c5.7,3.2,8.8,9.7,7.8,16.1c0,0.1,0,0.2,0,0.3c-1,6,3,11.7,9,12.7C372.5,340.2,378.2,336.2,379.2,330.2L379.2,330.2z"/>
	<circle class="st3" cx="343.4" cy="341.5" r="77.3"/>
	<path class="st4" d="M406.4,296.7c-1.2-1.7-2.4-3.3-3.7-4.8c20.6,34.3,11.6,79.1-21.5,102.7s-78.4,17.3-104.1-13.3
		c1,1.7,2.2,3.4,3.3,5.1c24.8,34.8,73,42.9,107.8,18.1C423,379.7,431.2,331.5,406.4,296.7L406.4,296.7z"/>
	<circle class="st1" cx="343.4" cy="341.5" r="57.7"/>
	<path class="st2" d="M390.4,308.1c-1.5-2.2-3.2-4.2-5-6.1c13.2,25.1,6.1,56.8-17.7,73.7c-23.8,16.9-56,13.2-75.4-7.4
		c1.2,2.3,2.6,4.5,4.1,6.7c18.5,25.9,54.5,32,80.4,13.5C402.8,370,408.9,334,390.4,308.1z"/>
	<g>
		<g>
			<path class="st3" d="M372.4,320.9c-1.4-2-0.9-4.7,1-6.1l1.6-1.2c2-1.4,4.7-0.9,6.1,1c1.4,2,0.9,4.7-1,6.1l-1.6,1.2
				C376.5,323.3,373.8,322.8,372.4,320.9z"/>
		</g>
		<g>
			<path class="st3" d="M379.2,350.7c-0.6-0.9-0.9-2.1-0.7-3.3c0.4-2.4,2.6-4,5-3.6l2,0.3c2.4,0.4,4,2.6,3.6,5c-0.4,2.4-2.6,4-5,3.6
				l-2-0.3C380.9,352.2,379.9,351.6,379.2,350.7L379.2,350.7z"/>
		</g>
		<g>
			<path class="st3" d="M364.2,378.2l-1.2-1.6c-1.4-2-0.9-4.7,1-6.1c2-1.4,4.7-0.9,6.1,1l1.2,1.6c1.4,2,0.9,4.7-1,6.1
				C368.3,380.6,365.6,380.1,364.2,378.2z"/>
		</g>
		<g>
			<path class="st3" d="M316.7,311.5l-1.2-1.6c-1.4-2-0.9-4.7,1-6.1c2-1.4,4.7-0.9,6.1,1l1.2,1.6c1.4,2,0.9,4.7-1,6.1
				C320.9,313.9,318.1,313.5,316.7,311.5z"/>
		</g>
		<g>
			<path class="st3" d="M332.9,385.4c-0.6-0.9-0.9-2.1-0.7-3.3l0.3-2c0.4-2.4,2.6-4,5-3.6c2.4,0.4,4,2.6,3.6,5l-0.3,2
				c-0.4,2.4-2.6,4-5,3.6C334.6,386.9,333.6,386.3,332.9,385.4L332.9,385.4z"/>
		</g>
		<g>
			<path class="st3" d="M305.7,368.3c-1.4-2-0.9-4.7,1-6.1l1.6-1.2c2-1.4,4.7-0.9,6.1,1c1.4,2,0.9,4.7-1,6.1l-1.6,1.2
				C309.9,370.8,307.1,370.3,305.7,368.3z"/>
		</g>
		<g>
			<path class="st3" d="M298.6,337.1c-0.6-0.9-0.9-2.1-0.7-3.3c0.4-2.4,2.6-4,5-3.6l2,0.3c2.4,0.4,4,2.6,3.6,5c-0.4,2.4-2.6,4-5,3.6
				l-2-0.3C300.2,338.6,299.2,338,298.6,337.1z"/>
		</g>
		<g>
			<path class="st3" d="M346.5,304.7c-0.6-0.9-0.9-2.1-0.7-3.3l0.3-2c0.4-2.4,2.7-4,5-3.6c2.4,0.4,4,2.6,3.6,5l-0.3,2
				c-0.4,2.4-2.7,4-5,3.6C348.2,306.2,347.2,305.6,346.5,304.7z"/>
		</g>
	</g>
	<g>
		<path class="st4" d="M339.9,344c-0.6-0.8-0.9-1.8-0.8-2.9l1-13.1c0.2-2.4,2.3-4.2,4.7-4c2.4,0.2,4.2,2.3,4,4.7l-0.3,3.9l12.1-8.6
			c2-1.4,4.7-0.9,6.1,1c1.4,2,0.9,4.7-1,6.1l-19.7,14c-1.4,1-3.2,1.1-4.7,0.2C340.7,345,340.2,344.5,339.9,344L339.9,344z"/>
	</g>
	<g>
		<g>
			<path class="st3" d="M443.6,330.9l-11.6-4c-1.5-0.5-2.6-1.9-2.9-3.5c-0.2-1.6,0.4-3.2,1.7-4.2l10-7.3l-3-1
				c-2.3-0.8-3.5-3.3-2.7-5.5c0.8-2.3,3.3-3.5,5.5-2.7l10.8,3.7c1.5,0.5,2.6,1.9,2.9,3.5c0.2,1.6-0.4,3.2-1.7,4.2l-10,7.3l3.7,1.3
				c2.3,0.8,3.5,3.3,2.7,5.5C448.4,330.5,445.9,331.7,443.6,330.9L443.6,330.9z"/>
		</g>
	</g>
	<g>
		<g>
			<path class="st3" d="M477.9,328.5l-15.4-5.3c-1.5-0.5-2.6-1.9-2.9-3.5c-0.2-1.6,0.4-3.2,1.7-4.2l15.5-11.4l-6.6-2.3
				c-2.3-0.8-3.5-3.3-2.7-5.5c0.8-2.3,3.3-3.5,5.5-2.7l14.4,5c1.5,0.5,2.6,1.9,2.9,3.5c0.2,1.6-0.4,3.2-1.7,4.2l-15.5,11.4l7.6,2.6
				c2.3,0.8,3.5,3.3,2.7,5.5C482.6,328.1,480.2,329.3,477.9,328.5L477.9,328.5z"/>
		</g>
	</g>
</g>
<path class="st5" d="M252,387.2v112.9c-84.7-1.4-158.9-46-201.3-112.9H252z"/>
<path class="st6" d="M252,14v373.2H50.7C26.8,349.6,13,304.9,13,257C13,124.2,119.6,16.2,252,14z"/>
<g id="Page-1">
	<g id="_x30_01---Toilet" transform="translate(0 -1)">
		<path id="Shape" class="st8" d="M217.5,122.8h-36.6c-13.8-10.8-30.9-16.5-48.5-15.9c-17.5-0.5-34.7,5.1-48.5,15.9H47.5
			c-11.7,0-21.3,9.5-21.3,21.3v101c0,11.7,9.5,21.3,21.3,21.3h19.9c1,1.7,1.9,3.3,2.9,4.9c-20.5,7.8-33.5,19.4-33.5,32.3
			c0,28.8,18.3,54,45.8,68l-2,26.5c-0.3,4.4,1.2,8.8,4.2,12s7.2,5.1,11.7,5.1h71.9c4.4,0,8.7-1.8,11.7-5.1c3-3.2,4.5-7.6,4.2-12
			l-2-26.5c27.5-14,45.8-39.2,45.8-68c0-12.9-13-24.5-33.5-32.3c1-1.6,2-3.2,3-4.9h19.9c11.7,0,21.3-9.5,21.3-21.3V144
			C238.7,132.3,229.2,122.8,217.5,122.8L217.5,122.8z"/>
		<path id="Shape_1_" class="st9" d="M184.3,397.9c0.3,4.4-1.2,8.8-4.2,12s-7.2,5.1-11.7,5.1H96.5c-4.4,0-8.7-1.8-11.7-5.1
			s-4.5-7.6-4.2-12l2-26.5c31.4,15.6,68.4,15.6,99.8,0L184.3,397.9z"/>
		<path id="Shape_2_" class="st10" d="M194.6,271.2c-20-7.1-41-10.5-62.2-10.3c-21.2-0.3-42.2,3.2-62.2,10.2
			c-20.5,7.8-33.5,19.4-33.5,32.3c0,23.5,42.8,42.5,95.6,42.5s95.6-19,95.6-42.5C228.1,290.5,215.2,278.9,194.6,271.2z M132.5,319.4
			c-32.3,0-58.5-8.3-58.5-18.6c0-10.3,26.1-18.6,58.5-18.6s58.5,8.3,58.5,18.6C190.9,311,164.8,319.4,132.5,319.4z"/>
		<ellipse id="Oval" class="st11" cx="132.5" cy="300.8" rx="58.5" ry="18.6"/>
		<path id="Shape_3_" class="st12" d="M228.1,303.4c0,28.8-18.3,54-45.8,68c-31.4,15.6-68.4,15.6-99.8,0c-27.5-14-45.8-39.2-45.8-68
			c0,23.5,42.8,42.5,95.6,42.5S228.1,326.9,228.1,303.4z"/>
		<path id="Shape_4_" class="st13" d="M212.2,208c0.1,14.4-2.4,28.7-7.3,42.3c-1.4,3.9-3.1,7.8-4.9,11.5c-0.7,1.5-1.5,3-2.3,4.4
			c-1,1.7-2,3.3-3,4.9c-20-7.1-41-10.5-62.2-10.3c-21.2-0.3-42.2,3.2-62.2,10.2c-1-1.6-2-3.2-2.9-4.9c-0.8-1.4-1.6-2.9-2.3-4.5
			c-1.9-3.7-3.5-7.6-4.9-11.5c-4.9-13.6-7.4-27.9-7.3-42.3c0-42.3,12.2-69.7,31.2-85.2c13.8-10.8,30.9-16.5,48.5-15.9
			c17.5-0.5,34.7,5.1,48.5,15.9C200,138.3,212.2,165.7,212.2,208z"/>
		<path id="Shape_5_" class="st10" d="M74,213.3c-2.9,0-5.3-2.4-5.3-5.3c0-54.9,22.6-85.2,63.8-85.2c2.9,0,5.3,2.4,5.3,5.3
			c0,2.9-2.4,5.3-5.3,5.3c-35.3,0-53.1,25.1-53.1,74.6C79.3,210.9,77,213.3,74,213.3z"/>
		<path id="Shape_6_" class="st14" d="M198.4,261.2c-21.2-7.5-43.5-11.2-65.9-10.9c-22.4-0.2-44.8,3.4-65.9,10.9
			c-0.5,0.2-1,0.4-1.5,0.6c0.7,1.5,1.5,3,2.3,4.5c1,1.7,1.9,3.3,2.9,4.9c20-7,41-10.5,62.2-10.2c21.2-0.3,42.2,3.2,62.2,10.3
			c1-1.6,2-3.2,3-4.9c0.8-1.4,1.5-2.9,2.3-4.4C199.4,261.6,198.9,261.5,198.4,261.2L198.4,261.2z"/>
	</g>
</g>
</svg>
