<?xml version="1.0" encoding="utf-8"?>
<!-- Generator: Adobe Illustrator 25.2.0, SVG Export Plug-In . SVG Version: 6.00 Build 0)  -->
<svg version="1.1" id="Layer_1" xmlns="http://www.w3.org/2000/svg" xmlns:xlink="http://www.w3.org/1999/xlink" x="0px" y="0px"
	 viewBox="0 0 512 512" style="enable-background:new 0 0 512 512;" xml:space="preserve">
<style type="text/css">
	.st0{fill:#5A4B7D;}
	.st1{clip-path:url(#SVGID_2_);fill:#4D3D73;}
	.st2{clip-path:url(#SVGID_4_);fill:#7B65A8;}
	.st3{fill:none;}
	.st4{fill:#3C66B1;}
	.st5{fill:#B8D6FD;}
	.st6{fill:#FFF5CC;}
	.st7{fill:#315591;}
	.st8{opacity:0.58;fill:#315591;enable-background:new    ;}
	.st9{clip-path:url(#SVGID_6_);}
	.st10{fill:#F98869;}
	.st11{opacity:0.38;fill:#781900;enable-background:new    ;}
	.st12{fill:#FFBCAB;}
	.st13{fill:#D4CAB0;}
	.st14{fill:#F0EDD8;}
	.st15{fill:#CFCFCF;}
	.st16{fill:#95A5A5;}
	.st17{fill:#FFFFFF;}
	.st18{fill:#87DDFF;}
	.st19{fill:#D0D7DB;}
	.st20{fill:#F2F2F2;}
	.st21{fill:#BDC3C7;}
</style>
<circle class="st0" cx="256" cy="256" r="243"/>
<g>
	<defs>
		<circle id="SVGID_1_" cx="256" cy="256" r="243"/>
	</defs>
	<clipPath id="SVGID_2_">
		<use xlink:href="#SVGID_1_"  style="overflow:visible;"/>
	</clipPath>
	<polyline class="st1" points="12.9,499.1 110.6,395.7 473,395.7 375.4,499.1 	"/>
</g>
<g>
	<defs>
		<circle id="SVGID_3_" cx="256" cy="256" r="243"/>
	</defs>
	<clipPath id="SVGID_4_">
		<use xlink:href="#SVGID_3_"  style="overflow:visible;"/>
	</clipPath>
	<polyline class="st2" points="67.1,413 67.1,13.1 512,13.1 512,413 	"/>
</g>
<circle class="st3" cx="261.8" cy="311.2" r="219.7"/>
<g>
	<rect id="SVGCleanerId_0" x="108.2" y="123.3" class="st4" width="128.2" height="183"/>
	<g>
		<rect id="SVGCleanerId_0_1_" x="108.2" y="123.3" class="st4" width="128.2" height="183"/>
	</g>
	<rect x="108.2" y="113.5" class="st4" width="128.2" height="192.7"/>
	<g>
		<rect x="162.6" y="123.3" class="st5" width="19.3" height="183"/>
		<rect x="108.2" y="205.1" class="st5" width="62.3" height="19.3"/>
		<rect x="169.6" y="205.1" class="st5" width="66.8" height="19.3"/>
	</g>
	<g>
		<path class="st6" d="M211.6,136.7c2.9,4.2,4.6,9.4,4.6,14.9c0,14.6-11.8,26.4-26.4,26.4c-2.8,0-5.4-0.4-7.9-1.2
			c4.8,6.9,12.7,11.5,21.8,11.5c14.6,0,26.4-11.8,26.4-26.4C230.1,150.1,222.3,140.1,211.6,136.7z"/>
		<path class="st6" d="M135.2,174.9c-2.7,0-4.9-2.2-4.9-4.9v-14.9c0-2.7,2.2-4.9,4.9-4.9c2.7,0,4.9,2.2,4.9,4.9v14.9
			C140.1,172.7,137.9,174.9,135.2,174.9z"/>
		<path class="st6" d="M142.6,167.5h-14.9c-2.7,0-4.9-2.2-4.9-4.9c0-2.7,2.2-4.9,4.9-4.9h14.9c2.7,0,4.9,2.2,4.9,4.9
			C147.5,165.2,145.3,167.5,142.6,167.5z"/>
		<path class="st6" d="M141.1,277.4c-1.3,0-2.5-0.5-3.5-1.4L127,265.4c-1.9-1.9-1.9-5.1,0-7c1.9-1.9,5.1-1.9,7,0l10.5,10.5
			c1.9,1.9,1.9,5.1,0,7C143.6,276.9,142.3,277.4,141.1,277.4z"/>
		<path class="st6" d="M130.6,277.4c-1.3,0-2.5-0.5-3.5-1.4c-1.9-1.9-1.9-5.1,0-7l10.5-10.5c1.9-1.9,5.1-1.9,7,0s1.9,5.1,0,7
			L134,276C133.1,276.9,131.8,277.4,130.6,277.4z"/>
	</g>
	<rect x="97.5" y="103.8" class="st5" width="149.8" height="19.5"/>
	<g>
		<rect x="182" y="205.1" class="st7" width="13.1" height="19.3"/>
		<rect x="108.2" y="123.3" class="st8" width="128.2" height="13.1"/>
	</g>
</g>
<g>
	<defs>
		<circle id="SVGID_5_" cx="256" cy="256" r="243"/>
	</defs>
	<clipPath id="SVGID_6_">
		<use xlink:href="#SVGID_5_"  style="overflow:visible;"/>
	</clipPath>
	<g class="st9">
		<path class="st10" d="M135.5,348.3v20.3H91v-35h29.8C128.9,333.6,135.5,340.2,135.5,348.3z"/>
		<rect x="91" y="349.7" class="st11" width="44.5" height="14.4"/>
		<g>
			<g>
				<path class="st10" d="M91,424.2H64.6V273.5H74c9.4,0,16.9,7.6,16.9,16.9V424.2L91,424.2L91,424.2z"/>
				<path class="st10" d="M347.4,424.2h-26.4v-65.6c0-4.4,3.5-7.9,7.9-7.9h18.5V424.2z"/>
				<rect x="91" y="380.2" class="st10" width="230.1" height="20.4"/>
			</g>
			<rect x="91" y="359.8" class="st12" width="230.1" height="20.4"/>
			<rect x="91" y="390.4" class="st11" width="230.1" height="10.2"/>
		</g>
	</g>
</g>
<g>
	<path class="st13" d="M261.8,386.1V499c84.7-1.4,158.9-46,201.3-112.9H261.8z"/>
	<path class="st14" d="M261.8,13v373.2h201.3c23.9-37.6,37.7-82.3,37.7-130.1C500.9,123.1,394.2,15.1,261.8,13z"/>
	<g id="Page-1">
		<g id="_x30_01---Toilet" transform="translate(0 -1)">
			<path id="Shape" class="st15" d="M296.3,121.7c-11.7,0-21.3,9.5-21.3,21.3v101c0,11.7,9.5,21.3,21.3,21.3h19.9c1,1.7,2,3.3,3,4.9
				c-20.5,7.8-33.5,19.3-33.5,32.3c0,28.8,18.3,54,45.8,68l-2,26.5c-0.3,4.4,1.2,8.8,4.2,12c3,3.2,7.2,5.1,11.7,5.1h71.9
				c4.4,0,8.7-1.8,11.7-5.1c3-3.2,4.5-7.6,4.2-12l-2-26.5c27.5-14,45.8-39.2,45.8-68c0-12.9-13-24.5-33.5-32.3c1-1.6,2-3.2,2.9-4.9
				h19.9c11.7,0,21.3-9.5,21.3-21.3V143c0-11.7-9.5-21.3-21.3-21.3h-36.6c-13.8-10.8-30.9-16.5-48.5-15.9
				c-17.5-0.5-34.7,5.1-48.5,15.9H296.3L296.3,121.7z"/>
			<path id="Shape_1_" class="st16" d="M331.5,370.4c31.4,15.6,68.4,15.6,99.8,0l2,26.5c0.3,4.4-1.2,8.8-4.2,12
				c-3,3.2-7.2,5.1-11.7,5.1h-71.9c-4.4,0-8.7-1.8-11.7-5.1c-3-3.2-4.5-7.6-4.2-12L331.5,370.4z"/>
			<path id="Shape_2_" class="st17" d="M285.7,302.4c0,23.5,42.8,42.5,95.6,42.5s95.6-19,95.6-42.5c0-12.9-13-24.5-33.5-32.3
				c-20-7-41-10.5-62.2-10.2c-21.2-0.3-42.2,3.2-62.2,10.3C298.7,277.9,285.7,289.5,285.7,302.4z M322.9,299.7
				c0-10.3,26.1-18.6,58.5-18.6s58.5,8.3,58.5,18.6s-26.1,18.6-58.5,18.6S322.9,310,322.9,299.7z"/>
			<ellipse id="Oval" class="st18" cx="381.4" cy="299.7" rx="58.5" ry="18.6"/>
			<path id="Shape_3_" class="st19" d="M381.4,344.9c52.8,0,95.6-19,95.6-42.5c0,28.8-18.3,54-45.8,68c-31.4,15.6-68.4,15.6-99.8,0
				c-27.5-14-45.8-39.2-45.8-68C285.7,325.9,328.5,344.9,381.4,344.9z"/>
			<path id="Shape_4_" class="st20" d="M332.9,121.7c13.8-10.8,30.9-16.5,48.5-15.9c17.5-0.5,34.7,5.1,48.5,15.9
				c19,15.5,31.2,42.9,31.2,85.2c0.1,14.4-2.4,28.7-7.3,42.3c-1.4,3.9-3.1,7.8-4.9,11.5c-0.7,1.5-1.5,3-2.3,4.5
				c-1,1.7-1.9,3.3-2.9,4.9c-20-7-41-10.5-62.2-10.2c-21.2-0.3-42.2,3.2-62.2,10.3c-1-1.6-2-3.2-3-4.9c-0.8-1.4-1.5-2.9-2.3-4.4
				c-1.9-3.7-3.5-7.6-4.9-11.5c-4.9-13.6-7.4-27.9-7.3-42.3C301.7,164.7,313.9,137.2,332.9,121.7z"/>
			<path id="Shape_5_" class="st17" d="M434.5,207c0-49.5-17.9-74.6-53.1-74.6c-2.9,0-5.3-2.4-5.3-5.3c0-2.9,2.4-5.3,5.3-5.3
				c41.1,0,63.8,30.3,63.8,85.2c0,2.9-2.4,5.3-5.3,5.3S434.5,209.9,434.5,207z"/>
			<path id="Shape_6_" class="st21" d="M315.4,260.2c-0.5,0.2-1,0.4-1.5,0.6c0.7,1.5,1.5,3,2.3,4.4c1,1.7,2,3.3,3,4.9
				c20-7.1,41-10.5,62.2-10.3c21.2-0.3,42.2,3.2,62.2,10.2c1-1.6,2-3.2,2.9-4.9c0.8-1.4,1.6-2.9,2.3-4.5c-0.5-0.2-1-0.4-1.5-0.6
				c-21.2-7.5-43.5-11.1-65.9-10.9C358.9,249,336.6,252.7,315.4,260.2L315.4,260.2z"/>
		</g>
	</g>
</g>
</svg>
