<?xml version="1.0" encoding="utf-8"?>
<!-- Generator: Adobe Illustrator 25.1.0, SVG Export Plug-In . SVG Version: 6.00 Build 0)  -->
<svg version="1.1" id="Layer_1" xmlns="http://www.w3.org/2000/svg" xmlns:xlink="http://www.w3.org/1999/xlink" x="0px" y="0px"
	 viewBox="0 0 512 512" style="enable-background:new 0 0 512 512;" xml:space="preserve">
<style type="text/css">
	.st0{fill:#9AE886;}
	.st1{fill:#105C6E;}
	.st2{fill:#26879C;}
	.st3{fill:#DE513C;}
	.st4{fill:#FC6249;}
	.st5{fill:#E0DFD4;}
	.st6{fill:#F4F2E6;}
	.st7{fill:#414B82;}
	.st8{fill:#5F6E9B;}
	.st9{fill:#FCA688;}
	.st10{fill:#4699F2;}
	.st11{fill:#64AFFF;}
	.st12{fill:#FFB69E;}
	.st13{fill:#A56941;}
	.st14{fill:#823214;}
	.st15{fill:#965028;}
</style>
<circle class="st0" cx="256" cy="256" r="243.05"/>
<g>
	<path class="st1" d="M296.96,106.05L285.3,94.36c-2.71-2.71-6.3-4.2-10.13-4.2c-3.83,0-7.43,1.49-10.13,4.2l-8.45,8.47
		c-5.56,5.58-5.56,14.65,0,20.22l11.69,11.71c1.14,1.15,2.64,1.72,4.14,1.72c1.5,0,2.99-0.57,4.13-1.71
		c2.29-2.28,18.13-18.17,20.41-20.45C299.24,112.04,299.24,108.34,296.96,106.05z"/>
	<path class="st2" d="M338.33,67.59c-3.23,0-5.85,2.62-5.85,5.85v18.72c0,3.23,2.62,5.85,5.85,5.85c3.23,0,5.85-2.62,5.85-5.85
		V73.44C344.18,70.21,341.56,67.59,338.33,67.59z"/>
	<path class="st3" d="M352.76,66.42H323.9c-3.23,0-5.85,2.62-5.85,5.85s2.62,5.85,5.85,5.85h28.87c3.23,0,5.85-2.62,5.85-5.85
		S355.99,66.42,352.76,66.42z"/>
	<path class="st4" d="M338.33,66.42H323.9c-3.23,0-5.85,2.62-5.85,5.85s2.62,5.85,5.85,5.85h14.43V66.42z"/>
	<path class="st3" d="M401.78,112.69c-16.95-16.98-39.48-26.33-63.45-26.33s-46.5,9.35-63.45,26.33
		c-16.94,16.98-26.27,39.55-26.27,63.56s9.33,46.58,26.27,63.56c16.95,16.98,39.48,26.33,63.45,26.33c23.97,0,46.5-9.35,63.45-26.33
		c16.94-16.98,26.27-39.55,26.27-63.56S418.72,129.66,401.78,112.69z"/>
	<path class="st4" d="M338.33,86.35c-23.97,0-46.5,9.35-63.45,26.33c-16.94,16.98-26.27,39.55-26.27,63.56s9.33,46.58,26.27,63.56
		c16.95,16.98,39.48,26.33,63.45,26.33V86.35z"/>
	<path class="st5" d="M338.33,108.75c-37.14,0-67.36,30.28-67.36,67.49s30.22,67.49,67.36,67.49s67.36-30.28,67.36-67.49
		S375.47,108.75,338.33,108.75z"/>
	<path class="st6" d="M338.33,108.75c-37.14,0-67.36,30.28-67.36,67.49s30.22,67.49,67.36,67.49V108.75z"/>
	<g>
		<path class="st1" d="M338.33,123.37c3.23,0,5.85-2.62,5.85-5.85v-8.51c-1.93-0.17-3.88-0.26-5.85-0.26
			c-1.97,0-3.92,0.09-5.85,0.26v8.51C332.48,120.75,335.1,123.37,338.33,123.37z"/>
		<path class="st1" d="M338.33,229.12c-3.23,0-5.85,2.62-5.85,5.85v8.51c1.93,0.17,3.88,0.26,5.85,0.26c1.97,0,3.92-0.09,5.85-0.26
			v-8.51C344.18,231.74,341.56,229.12,338.33,229.12z"/>
		<path class="st1" d="M405.44,170.39h-8.38c-3.23,0-5.85,2.62-5.85,5.85s2.62,5.85,5.85,5.85h8.38c0.17-1.93,0.26-3.88,0.26-5.85
			S405.6,172.32,405.44,170.39z"/>
		<path class="st1" d="M285.45,176.25c0-3.23-2.62-5.85-5.85-5.85h-8.38c-0.17,1.93-0.26,3.88-0.26,5.85s0.09,3.92,0.26,5.85h8.38
			C282.84,182.1,285.45,179.48,285.45,176.25z"/>
		<path class="st1" d="M352.76,172.87h-8.25V149.2c0-3.23-2.62-5.85-5.85-5.85c-3.23,0-5.85,2.62-5.85,5.85v29.52
			c0,3.23,2.62,5.85,5.85,5.85h14.11c3.23,0,5.85-2.62,5.85-5.85S355.99,172.87,352.76,172.87z"/>
	</g>
</g>
<g>
	<path class="st7" d="M323.73,361.73c-4.4,0-8.78-1.85-11.87-5.45l-38.54-44.88l-55.28,40.56c-6.96,5.11-16.74,3.61-21.85-3.35
		s-3.6-16.74,3.36-21.85l66.95-49.12c6.59-4.83,15.78-3.78,21.11,2.42l47.96,55.86c5.63,6.55,4.87,16.42-1.68,22.04
		C330.96,360.49,327.33,361.73,323.73,361.73z"/>
	<path class="st8" d="M198.85,362.11c-8.62,0-15.65-6.97-15.67-15.59c-0.02-8.63,6.96-16.08,15.59-16.1h186.78h0.04
		c8.62,0,15.61,6.97,15.63,15.59c0.02,8.63-6.96,15.65-15.59,15.67L198.85,362.11C198.84,362.11,198.86,362.11,198.85,362.11z"/>
	<path class="st9" d="M174.43,232.12l0.15-20.58l-40.4-2.75c-7.36-0.5-12.92-6.88-12.42-14.24c0.5-7.36,6.88-12.93,14.24-12.42
		l67.62,4.61c5.09,0.35,9.54,3.56,11.46,8.28c1.93,4.72,1,10.13-2.4,13.94l-17.44,19.57L174.43,232.12z"/>
	<path class="st10" d="M174.54,211.59l-23.81,26.71c-4.91,5.51-4.42,13.96,1.09,18.86c5.51,4.91,13.96,4.43,18.86-1.08l24.57-27.56
		L174.54,211.59z"/>
	<path class="st11" d="M216.29,329.81l-28.54,27.69l-71.62-69.81c-7.21-7.02-7.41-18.54-0.45-25.81l23.05-24.1
		c3.41-3.57,8.12-5.61,13.05-5.66c4.93-0.05,9.68,1.88,13.17,5.38l51.64,51.66C227.86,300.42,227.72,318.72,216.29,329.81z"/>
	<path class="st12" d="M175.83,313.52l-17.9-12.11l-6.55-19.9l21.32-2.37l12.67,8.57l49.56-16.32c7.01-2.31,14.56,1.51,16.87,8.51
		c2.31,7.01-1.5,14.56-8.51,16.87l-55.79,18.37C183.66,316.41,179.34,315.9,175.83,313.52z"/>
	<path class="st10" d="M130.25,282.69l27.68,18.72l14.77-22.27l-27.48-18.58c-6.11-4.13-14.42-2.53-18.55,3.58
		C122.53,270.25,124.14,278.56,130.25,282.69z"/>
	<path class="st12" d="M133.96,188.27c-17.3-16.55-44.73-15.94-61.28,1.36c-16.55,17.3-15.94,44.74,1.36,61.28
		c17.3,16.55,44.73,15.94,61.28-1.36C151.87,232.25,151.26,204.82,133.96,188.27z"/>
	<path class="st13" d="M192.89,383.38c-2.46,0-4.91-0.94-6.78-2.81L76.23,270.87c-3.75-3.75-3.76-9.83-0.01-13.58
		s9.83-3.76,13.58-0.01l109.87,109.7c3.75,3.75,3.76,9.83,0.01,13.58C197.8,382.44,195.35,383.38,192.89,383.38z"/>
	<path class="st14" d="M133.5,406.42l16.65-26.32l-19.99-12.64l-23.15,36.6c-2.06,3.25,0.28,7.5,4.13,7.5h13.05
		C127.96,411.55,131.48,409.62,133.5,406.42z"/>
	<path class="st14" d="M399.41,404.06l-23.15-36.6l-20,12.64l16.65,26.32c2.02,3.19,5.54,5.13,9.32,5.13h13.05
		C399.13,411.55,401.47,407.31,399.41,404.06z"/>
	<path class="st15" d="M411.41,384.93H89.05c-6.53,0-11.83-5.3-11.83-11.83c0-6.53,5.3-11.83,11.83-11.83h322.35
		c6.53,0,11.83,5.3,11.83,11.83C423.23,379.63,417.94,384.93,411.41,384.93z"/>
</g>
</svg>
