<?xml version="1.0" encoding="utf-8"?>
<!-- Generator: Adobe Illustrator 25.1.0, SVG Export Plug-In . SVG Version: 6.00 Build 0)  -->
<svg version="1.1" id="Layer_1" xmlns="http://www.w3.org/2000/svg" xmlns:xlink="http://www.w3.org/1999/xlink" x="0px" y="0px"
	 viewBox="0 0 512 512" style="enable-background:new 0 0 512 512;" xml:space="preserve">
<style type="text/css">
	.st0{fill:#FFE9B5;}
	.st1{clip-path:url(#SVGID_2_);}
	.st2{fill:#FFDD70;}
	.st3{fill:#283D66;}
	.st4{fill:#99CCFF;}
	.st5{fill:#80AAFF;}
	.st6{fill:#F8C045;}
	.st7{fill:#E6F2FF;}
	.st8{fill:#CCE6FF;}
	.st9{fill:#FF9E22;}
	.st10{fill:#995C5C;}
	.st11{fill:#804040;}
	.st12{fill:#6AA9FF;}
	.st13{fill:#EDF5FF;}
	.st14{fill:#47568C;}
	.st15{fill:#FF7B4A;}
</style>
<circle class="st0" cx="256" cy="256" r="243.05"/>
<g>
	<defs>
		<circle id="SVGID_1_" cx="256" cy="256" r="243.05"/>
	</defs>
	<clipPath id="SVGID_2_">
		<use xlink:href="#SVGID_1_"  style="overflow:visible;"/>
	</clipPath>
	<g class="st1">
		<path class="st2" d="M307.3,315.49v75.77l29.72,24.33l29.72-24.33v-23.06c0-29.06-22.46-52.71-50.06-52.71H307.3z"/>
		<path class="st3" d="M47.63,321.73v-58.95c0-11.09,8.57-20.11,19.1-20.11h37.21v99.18H66.73
			C56.2,341.84,47.63,332.82,47.63,321.73z M85.18,262.43H66.73c-0.18,0-0.33,0.16-0.33,0.35v58.95c0,0.19,0.15,0.35,0.33,0.35
			h18.44V262.43z"/>
		<path class="st4" d="M85.18,213.36v133.65c0,24.4,18.85,44.24,42.02,44.24l108.15-0.01V213.36L85.18,213.36z"/>
		<path class="st5" d="M85.18,213.36v133.65c0,24.4,18.85,44.24,42.02,44.24l33.07,0V213.36L85.18,213.36z"/>
		<path class="st6" d="M122.72,368.19v23.06l28.04,12.86l31.4-12.86v-75.77h-9.39C145.17,315.49,122.72,339.13,122.72,368.19z"/>
		<path class="st7" d="M215.95,193.6h-18.77v-29.65h18.77V193.6z"/>
		<path class="st8" d="M122.09,193.6h-18.77v-29.65h18.77V193.6z"/>
		<path class="st7" d="M169.02,193.6h-18.77v-49.41h18.77V193.6z"/>
		<path class="st8" d="M160.26,193.6h-10.01v-49.41h10.01V193.6z"/>
		<path class="st6" d="M263.5,295.72v95.53l31.29,26.16l31.29-26.16v-69.74c0-14.22-10.99-25.79-24.49-25.79H263.5z"/>
		<path class="st9" d="M163.39,321.51v69.74l31.29,14.82l31.29-14.82v-95.53h-38.08C174.38,295.72,163.39,307.29,163.39,321.51z"/>
		<path class="st2" d="M233.6,272.66c-13.8,0-25.03,11.82-25.03,26.36v92.24l36.85,26.16l36.85-26.16v-90.78
			c0-15.86-10.76-27.81-25.03-27.81H233.6L233.6,272.66z"/>
		<path class="st6" d="M233.6,272.66c-13.8,0-25.03,11.82-25.03,26.36v92.24l18.43,12.86l18.43-12.86V272.66H233.6L233.6,272.66z"/>
		<path class="st10" d="M366.74,430.79H47.63v-39.53h319.11V430.79z"/>
		<path class="st11" d="M151.65,391.25H47.63v39.53h160.93v-39.53H151.65z"/>
	</g>
	<g class="st1">
		<circle class="st12" cx="354.62" cy="170.67" r="94.83"/>
		<g>
			<path class="st12" d="M449.46,170.67c0-52.09-42.75-94.83-94.83-94.83V265.5C406.71,265.5,449.46,222.76,449.46,170.67z"/>
		</g>
		<circle class="st13" cx="354.62" cy="170.67" r="83.72"/>
		<circle class="st14" cx="307.47" cy="217.82" r="5.56"/>
		<circle class="st14" cx="401.77" cy="123.52" r="5.56"/>
		<circle class="st14" cx="307.47" cy="123.52" r="5.56"/>
		<circle class="st14" cx="401.77" cy="217.82" r="5.56"/>
		<path class="st14" d="M299.06,176.23h-11.11c-3.07,0-5.56-2.49-5.56-5.56s2.49-5.56,5.56-5.56h11.11c3.07,0,5.56,2.49,5.56,5.56
			C304.61,173.74,302.13,176.23,299.06,176.23z"/>
		<path class="st14" d="M421.3,176.23h-11.11c-3.07,0-5.56-2.49-5.56-5.56s2.49-5.56,5.56-5.56h11.11c3.07,0,5.56,2.49,5.56,5.56
			C426.86,173.74,424.37,176.23,421.3,176.23z"/>
		<path class="st14" d="M349.07,103.99v11.11c0,3.07,2.49,5.56,5.56,5.56V98.43C351.55,98.43,349.07,100.92,349.07,103.99z"/>
		<path class="st15" d="M360.18,115.1v-11.11c0-3.07-2.49-5.56-5.56-5.56v22.23C357.7,120.66,360.18,118.18,360.18,115.1z"/>
		<path class="st14" d="M354.62,220.68c-3.07,0-5.56,2.49-5.56,5.56v11.11c0,3.07,2.49,5.56,5.56,5.56s5.56-2.49,5.56-5.56v-11.11
			C360.18,223.16,357.7,220.68,354.62,220.68z"/>
		<path class="st14" d="M391.89,200.08l-31.71-31.71v-31.04c0-3.07-2.49-5.56-5.56-5.56s-5.56,2.49-5.56,5.56v33.34
			c0,1.48,0.59,2.89,1.63,3.93l3.93,3.93l29.41,29.41c2.17,2.17,5.69,2.17,7.86,0C394.06,205.77,394.06,202.25,391.89,200.08
			L391.89,200.08z"/>
		<g>
			<path class="st14" d="M360.18,115.1v-11.11c0-3.07-2.49-5.56-5.56-5.56v22.23C357.7,120.66,360.18,118.18,360.18,115.1z"/>
			<path class="st14" d="M360.18,237.35v-11.11c0-3.07-2.49-5.56-5.56-5.56v22.23C357.7,242.91,360.18,240.42,360.18,237.35z"/>
			<path class="st14" d="M391.89,207.94c2.17-2.17,2.17-5.69,0-7.86l-31.71-31.71v-31.04c0-3.07-2.49-5.56-5.56-5.56v46.75
				l29.41,29.41C386.21,210.11,389.72,210.11,391.89,207.94L391.89,207.94z"/>
		</g>
	</g>
</g>
</svg>
