<?xml version="1.0" encoding="utf-8"?>
<!-- Generator: Adobe Illustrator 25.1.0, SVG Export Plug-In . SVG Version: 6.00 Build 0)  -->
<svg version="1.1" id="Layer_1" xmlns="http://www.w3.org/2000/svg" xmlns:xlink="http://www.w3.org/1999/xlink" x="0px" y="0px"
	 viewBox="0 0 512 512" style="enable-background:new 0 0 512 512;" xml:space="preserve">
<style type="text/css">
	.st0{fill:#5BC9E1;}
	.st1{clip-path:url(#SVGID_2_);}
	.st2{fill:#EBEBEB;}
	.st3{fill:#DBDBDB;}
	.st4{fill:#4799CF;}
	.st5{fill:#CBCBCB;}
	.st6{fill:#C3C3C3;}
	.st7{fill:#04957C;}
	.st8{fill:#05BF9F;}
	.st9{fill:#ECE09C;}
</style>
<circle class="st0" cx="256" cy="256" r="243.05"/>
<g>
	<defs>
		<circle id="SVGID_1_" cx="255.5" cy="255.5" r="243.05"/>
	</defs>
	<clipPath id="SVGID_2_">
		<use xlink:href="#SVGID_1_"  style="overflow:visible;"/>
	</clipPath>
	<g class="st1">
		<path class="st2" d="M265.73,241.95l90.5-90.5l45.34,45.34l-90.5,90.5L265.73,241.95z"/>
		<path class="st3" d="M300.5,276.72l90.5-90.5l10.58,10.58l-90.5,90.5L300.5,276.72z"/>
		<path class="st3" d="M384.57,213.65l-11.32,11.32l-10.48-10.49l11.31-11.31L384.57,213.65z"/>
		<path class="st4" d="M424.17,219.31L305.37,338.1l-50.91,28.28L50.81,570.03c-6.25,6.25-16.38,6.25-22.63,0
			c-6.25-6.25-6.25-16.38,0-22.63c0,0,0,0,0,0l203.65-203.65l50.91-28.29l118.79-118.79c6.25-6.25,16.38-6.25,22.63,0c0,0,0,0,0,0
			C430.41,202.93,430.41,213.06,424.17,219.31C424.17,219.31,424.17,219.31,424.17,219.31z"/>
		<path class="st5" d="M327.95,179.74l11.31-11.31l45.25,45.25l-11.31,11.31L327.95,179.74z"/>
		<path class="st6" d="M384.57,213.65l-11.32,11.32l-10.48-10.49l11.31-11.31L384.57,213.65z"/>
		<path class="st5" d="M305.32,202.36l11.31-11.31l45.25,45.25l-11.31,11.31L305.32,202.36z"/>
		<path class="st5" d="M282.7,224.99l11.31-11.31l45.25,45.25l-11.31,11.31L282.7,224.99z"/>
		<path class="st6" d="M340.02,236.97l11.31-11.31l10.48,10.48l-11.31,11.31L340.02,236.97z"/>
		<path class="st6" d="M339.31,258.91L328,270.22l-10.49-10.48l11.32-11.32L339.31,258.91z"/>
		<path class="st7" d="M335.36,157.08c0.02,9.78-3.87,19.16-10.79,26.06l-36.31,36.31c-9.34,9.29-24.44,9.26-33.73-0.07
			c-1.66-1.67-3.07-3.58-4.18-5.67c-5-9.4-3.28-20.96,4.25-28.49l30.3-30.3c5.72-5.72,8.2-13.91,6.62-21.84l-3.12-15.59l17.34,3.46
			C322.96,124.39,335.36,139.52,335.36,157.08L335.36,157.08z"/>
		<path class="st8" d="M326.67,147.85c0.01,9.77-3.87,19.15-10.79,26.05l-36.32,36.32c-7.77,7.76-19.83,9.2-29.21,3.49
			c-5-9.4-3.28-20.96,4.25-28.49l30.3-30.3c5.72-5.72,8.2-13.91,6.62-21.84l-3.12-15.59l17.34,3.46c5.39,1.08,10.47,3.35,14.87,6.65
			C324.57,133.61,326.68,140.65,326.67,147.85L326.67,147.85z"/>
		<g>
			<path class="st9" d="M124.85,110.72l-4.69,9.37c-7.24,14.49-19.95,25.5-35.31,30.63c15.37,5.12,28.07,16.14,35.31,30.63
				l4.69,9.37l4.69-9.37c7.24-14.49,19.95-25.5,35.31-30.63c-15.37-5.12-28.07-16.14-35.31-30.63L124.85,110.72z"/>
			<path class="st9" d="M164.85,238.72l-3.75,7.5c-5.8,11.59-15.96,20.4-28.25,24.5c12.29,4.1,22.46,12.91,28.25,24.5l3.75,7.5
				l3.75-7.5c5.8-11.59,15.96-20.4,28.25-24.5c-12.29-4.1-22.46-12.91-28.25-24.5L164.85,238.72z"/>
			<path class="st9" d="M196.85,174.72l-2.81,5.62c-4.35,8.69-11.97,15.3-21.19,18.38c9.22,3.07,16.84,9.68,21.19,18.38l2.81,5.62
				l2.81-5.62c4.35-8.69,11.97-15.3,21.19-18.38c-9.22-3.07-16.84-9.68-21.19-18.38L196.85,174.72z"/>
		</g>
	</g>
</g>
</svg>
