<?xml version="1.0" encoding="utf-8"?>
<!-- Generator: Adobe Illustrator 25.1.0, SVG Export Plug-In . SVG Version: 6.00 Build 0)  -->
<svg version="1.1" id="Layer_1" xmlns="http://www.w3.org/2000/svg" xmlns:xlink="http://www.w3.org/1999/xlink" x="0px" y="0px"
	 viewBox="0 0 512 512" style="enable-background:new 0 0 512 512;" xml:space="preserve">
<style type="text/css">
	.st0{fill:#43C464;}
	.st1{fill:#79D8EB;}
	.st2{fill:#994635;}
	.st3{fill:#FAC850;}
	.st4{fill:none;}
	.st5{fill:#CF5944;}
	.st6{fill:#E4F7FB;}
</style>
<circle class="st0" cx="256" cy="256" r="243.05"/>
<g>
	<path class="st1" d="M146.27,249.79l-1.01,5.99h-35.91v-83.8l5.99-2.99c0-8.26,6.7-14.96,14.96-14.96h7.74
		c7.55,0,13.91,5.62,14.85,13.11l8.23,65.84c1.03,8.2-4.79,15.68-12.99,16.7C147.52,249.76,146.9,249.79,146.27,249.79z"/>
	<path class="st2" d="M133.3,357.53l-5.99-5.99H91.4l-5.99,5.99v35.91h14.34c12.88,0,24.32-8.24,28.39-20.46L133.3,357.53z"/>
	<path class="st2" d="M384.69,357.53l5.99-5.99h35.91l5.99,5.99v35.91h-14.34c-12.88,0-24.32-8.24-28.39-20.46L384.69,357.53z"/>
	<path class="st3" d="M399.65,309.65l-2.99,5.99H121.33l-11.97-5.99v-59.85h290.29c8.26,0,14.96,6.7,14.96,14.96v29.93
		C414.61,302.95,407.91,309.65,399.65,309.65z"/>
	<path class="st4" d="M305.78,170.72l-7.63,13.95l-13.95,7.63l13.95,7.63l7.63,13.95l7.63-13.95l13.95-7.63l-13.95-7.63
		L305.78,170.72z"/>
	<g>
		<path class="st3" d="M305.78,170.72l-7.63,13.95l-13.95,7.63l13.95,7.63l7.63,13.95l7.63-13.95l13.95-7.63l-13.95-7.63
			L305.78,170.72z"/>
		<path class="st3" d="M232.69,106.14l-7.63,13.95l-13.95,7.63l13.95,7.63l7.63,13.95l7.63-13.95l13.95-7.63l-13.95-7.63
			L232.69,106.14z"/>
		<path class="st3" d="M345.15,82.2l-7.63,13.95l-13.95,7.63l13.95,7.63l7.63,13.95l7.63-13.95l13.95-7.63l-13.95-7.63L345.15,82.2z
			"/>
	</g>
	<path class="st5" d="M417.61,309.65H115.34V151.03c0-8.26-6.7-14.96-14.96-14.96H85.41v221.46h347.16v-32.92
		C432.57,316.35,425.87,309.65,417.61,309.65z"/>
	<path class="st1" d="M223.08,237.82h154.13c4.13,0,7.48,3.35,7.48,7.48v40.4l0,0H223.08l0,0V237.82L223.08,237.82z"/>
	<path class="st6" d="M187.17,237.82h35.91v47.88h-35.91V237.82z"/>
</g>
</svg>
