<svg id="Capa_1" enable-background="new 0 0 512 512" height="512" viewBox="0 0 512 512" width="512" xmlns="http://www.w3.org/2000/svg"><g><path d="m376.245 240.193c9.086-35.312 7.805-84.439-2.009-119.847-2.678-9.663.046-20.013 7.136-27.103l7.784-7.784c7.371-7.371 7.917-19.381.813-27.009-7.459-8.009-20.002-8.177-27.674-.505l-1.15 1.15c-8.427 8.427-21.264 10.518-31.97 5.281-65.353-31.966-194.213-28.823-261.182 2.772-10.601 5.001-23.199 2.774-31.487-5.514l-3.688-3.688c-7.508-7.508-19.68-7.508-27.188 0-7.508 7.508-7.508 19.68 0 27.188l8.496 8.496c7.219 7.219 9.873 17.799 6.996 27.594-10.214 34.775-11.369 83.475-1.983 118.186 2.601 9.619-.135 19.889-7.181 26.935l-6.327 6.327c-7.508 7.508-7.508 19.68 0 27.188 7.508 7.508 19.68 7.508 27.188 0l2.425-2.425c8.061-8.061 20.254-10.46 30.692-5.876 68.621 30.137 198.082 33.771 265.054 2.703 10.566-4.902 23.069-2.638 31.305 5.598 7.508 7.508 19.68 7.508 27.188 0 7.508-7.508 7.508-19.68 0-27.188l-5.949-5.949c-6.941-6.94-9.735-17.025-7.289-26.53z" fill="#f4fbff"/><path d="m389.482 272.672c-1.809-2.651-18.223-13.101-13.237-32.479 8.855-34.4 8.067-83.672-2.067-120.057-2.669-9.582.161-19.859 7.195-26.893l7.783-7.783c7.371-7.371 7.918-19.381.813-27.01-7.459-8.009-20.002-8.177-27.674-.505l-.372.372c.044.047.093.086.137.133 7.105 7.628 6.558 19.638-.813 27.009l-7.784 7.784c-7.094 7.094-9.81 17.451-7.132 27.119.165.595.327 1.193.487 1.796 7.446 28.042-7.767 56.879-34.758 67.521-52.237 20.597-90.704 68.533-97.776 126.178 44.054-.712 86.666-7.661 116.705-21.596 10.403-4.826 22.675-2.693 30.912 5.235.129.124.266.237.393.363 7.507 7.508 19.68 7.508 27.187 0 7.509-7.507 7.509-19.679.001-27.187z" fill="#daf1f4"/><circle cx="369.341" cy="335.077" fill="#365e7d" r="135.047"/><path d="m369.341 200.03c-3.58 0-7.127.142-10.637.416 69.612 5.425 124.41 63.627 124.41 134.631s-54.798 129.207-124.41 134.632c3.51.274 7.057.416 10.637.416 74.585 0 135.047-60.463 135.047-135.047s-60.462-135.048-135.047-135.048z" fill="#2b4d66"/><circle cx="369.341" cy="335.077" fill="#f4fbff" r="100.731"/><path d="m369.341 234.347c-4.667 0-9.258.325-13.757.939 49.123 6.709 86.974 48.827 86.974 99.792s-37.851 93.082-86.974 99.792c4.499.614 9.09.939 13.757.939 55.632 0 100.731-45.099 100.731-100.731 0-55.633-45.099-100.731-100.731-100.731z" fill="#daf1f4"/><g><g><path d="m369.342 272.958c-4.204 0-7.611-3.407-7.611-7.611v-3.487c0-4.204 3.407-7.611 7.611-7.611s7.612 3.407 7.612 7.611v3.487c-.001 4.204-3.408 7.611-7.612 7.611z" fill="#365e7d"/></g><g><path d="m418.648 293.383c-1.947 0-3.896-.743-5.383-2.229-2.972-2.973-2.972-7.792 0-10.765l2.466-2.466c2.973-2.971 7.792-2.971 10.765 0 2.972 2.973 2.972 7.792 0 10.765l-2.466 2.466c-1.486 1.485-3.435 2.229-5.382 2.229z" fill="#365e7d"/></g><g><path d="m442.558 342.689h-3.487c-4.204 0-7.611-3.407-7.611-7.611s3.407-7.612 7.611-7.612h3.487c4.204 0 7.612 3.407 7.612 7.612s-3.408 7.611-7.612 7.611z" fill="#365e7d"/></g><g><path d="m299.611 342.689h-3.487c-4.204 0-7.612-3.407-7.612-7.611s3.407-7.612 7.612-7.612h3.487c4.204 0 7.612 3.407 7.612 7.612s-3.408 7.611-7.612 7.611z" fill="#365e7d"/></g><g><path d="m421.114 394.461c-1.947 0-3.896-.743-5.383-2.229l-2.466-2.466c-2.972-2.973-2.972-7.792 0-10.765 2.973-2.971 7.792-2.971 10.765 0l2.466 2.466c2.972 2.973 2.972 7.792 0 10.765-1.486 1.486-3.435 2.229-5.382 2.229z" fill="#365e7d"/></g><g><path d="m369.342 415.905c-4.204 0-7.611-3.407-7.611-7.611v-3.486c0-4.204 3.407-7.612 7.611-7.612s7.612 3.407 7.612 7.612v3.486c-.001 4.204-3.408 7.611-7.612 7.611z" fill="#365e7d"/></g><g><path d="m317.569 394.461c-1.947 0-3.895-.742-5.381-2.228-2.973-2.972-2.974-7.792-.003-10.764l2.465-2.466c2.971-2.975 7.791-2.975 10.764-.003s2.974 7.792.003 10.764l-2.465 2.466c-1.486 1.488-3.434 2.231-5.383 2.231z" fill="#365e7d"/></g><g><path d="m320.034 293.383c-1.948 0-3.897-.743-5.384-2.231l-2.465-2.466c-2.971-2.972-2.97-7.792.003-10.764 2.972-2.969 7.792-2.972 10.764.003l2.465 2.466c2.971 2.972 2.97 7.792-.003 10.764-1.485 1.484-3.432 2.228-5.38 2.228z" fill="#365e7d"/></g></g><g><path d="m369.343 342.689c-1.751 0-3.486-.604-4.881-1.771l-17.68-14.773c-3.226-2.695-3.656-7.496-.96-10.721 2.694-3.225 7.496-3.656 10.721-.96l5.188 4.335v-25.919c0-4.204 3.407-7.612 7.611-7.612s7.612 3.407 7.612 7.612v42.197c0 2.955-1.711 5.643-4.388 6.895-1.029.481-2.129.717-3.223.717z" fill="#2b4d66"/></g><g><g><path d="m449.258 181.67h-21.385c-2.829 0-5.424-1.569-6.739-4.073-1.314-2.503-1.133-5.531.474-7.859l12.29-17.823h-5.485c-4.204 0-7.612-3.407-7.612-7.611s3.407-7.611 7.612-7.611h19.98c2.829 0 5.424 1.569 6.739 4.073 1.314 2.503 1.133 5.531-.474 7.859l-12.29 17.823h6.889c4.204 0 7.612 3.407 7.612 7.611s-3.407 7.611-7.611 7.611z" fill="#365e7d"/></g></g><g><g><path d="m504.388 158.068h-28.485c-2.829 0-5.424-1.569-6.739-4.073-1.314-2.503-1.133-5.531.474-7.859l19.104-27.702h-12.119c-4.204 0-7.612-3.407-7.612-7.611s3.407-7.611 7.612-7.611h26.614c2.829 0 5.424 1.569 6.739 4.073 1.314 2.503 1.133 5.531-.474 7.859l-19.104 27.702h13.989c4.204 0 7.611 3.407 7.611 7.611s-3.406 7.611-7.61 7.611z" fill="#365e7d"/></g></g></g></svg>