<?xml version="1.0" encoding="utf-8"?>
<!-- Generator: Adobe Illustrator 25.1.0, SVG Export Plug-In . SVG Version: 6.00 Build 0)  -->
<svg version="1.1" id="Layer_1" xmlns="http://www.w3.org/2000/svg" xmlns:xlink="http://www.w3.org/1999/xlink" x="0px" y="0px"
	 viewBox="0 0 512 512" style="enable-background:new 0 0 512 512;" xml:space="preserve">
<style type="text/css">
	.st0{fill:#5BC9E1;}
	.st1{fill:#6AA9FF;}
	.st2{fill:#EDF5FF;}
	.st3{fill:#47568C;}
	.st4{fill:#FF7B4A;}
	.st5{fill:#F28F00;}
	.st6{fill:#E64C3C;}
	.st7{fill:#802F34;}
	.st8{fill:#D25627;}
	.st9{fill:#F9EAB0;}
	.st10{fill:#C03A2B;}
</style>
<circle class="st0" cx="256" cy="256" r="243.05"/>
<g>
	<circle class="st1" cx="354.62" cy="170.67" r="94.83"/>
	<g>
		<path class="st1" d="M449.46,170.67c0-52.09-42.75-94.83-94.83-94.83V265.5C406.71,265.5,449.46,222.76,449.46,170.67z"/>
	</g>
	<circle class="st2" cx="354.62" cy="170.67" r="83.72"/>
	<circle class="st3" cx="307.47" cy="217.82" r="5.56"/>
	<circle class="st3" cx="401.77" cy="123.52" r="5.56"/>
	<circle class="st3" cx="307.47" cy="123.52" r="5.56"/>
	<circle class="st3" cx="401.77" cy="217.82" r="5.56"/>
	<path class="st3" d="M299.06,176.23h-11.11c-3.07,0-5.56-2.49-5.56-5.56s2.49-5.56,5.56-5.56h11.11c3.07,0,5.56,2.49,5.56,5.56
		C304.61,173.74,302.13,176.23,299.06,176.23z"/>
	<path class="st3" d="M421.3,176.23h-11.11c-3.07,0-5.56-2.49-5.56-5.56s2.49-5.56,5.56-5.56h11.11c3.07,0,5.56,2.49,5.56,5.56
		C426.86,173.74,424.37,176.23,421.3,176.23z"/>
	<path class="st3" d="M349.07,103.99v11.11c0,3.07,2.49,5.56,5.56,5.56V98.43C351.55,98.43,349.07,100.92,349.07,103.99z"/>
	<path class="st4" d="M360.18,115.1v-11.11c0-3.07-2.49-5.56-5.56-5.56v22.23C357.7,120.66,360.18,118.18,360.18,115.1z"/>
	<path class="st3" d="M354.62,220.68c-3.07,0-5.56,2.49-5.56,5.56v11.11c0,3.07,2.49,5.56,5.56,5.56s5.56-2.49,5.56-5.56v-11.11
		C360.18,223.16,357.7,220.68,354.62,220.68z"/>
	<path class="st3" d="M391.89,200.08l-31.71-31.71v-31.04c0-3.07-2.49-5.56-5.56-5.56s-5.56,2.49-5.56,5.56v33.34
		c0,1.48,0.59,2.89,1.63,3.93l3.93,3.93l29.41,29.41c2.17,2.17,5.69,2.17,7.86,0C394.06,205.77,394.06,202.25,391.89,200.08
		L391.89,200.08z"/>
	<g>
		<path class="st3" d="M360.18,115.1v-11.11c0-3.07-2.49-5.56-5.56-5.56v22.23C357.7,120.66,360.18,118.18,360.18,115.1z"/>
		<path class="st3" d="M360.18,237.35v-11.11c0-3.07-2.49-5.56-5.56-5.56v22.23C357.7,242.91,360.18,240.42,360.18,237.35z"/>
		<path class="st3" d="M391.89,207.94c2.17-2.17,2.17-5.69,0-7.86l-31.71-31.71v-31.04c0-3.07-2.49-5.56-5.56-5.56v46.75
			l29.41,29.41C386.21,210.11,389.72,210.11,391.89,207.94L391.89,207.94z"/>
	</g>
</g>
<g id="Page-1">
	<g id="_x30_30---Shorts-and-Tshirts">
		<path id="Shape" class="st5" d="M179.92,348.82h-77.49c-3.14,0-5.69-2.55-5.69-5.69V206.47l-12.75,12.75
			c-2.24,2.22-5.85,2.22-8.09,0l-26.36-26.36c-2.22-2.24-2.22-5.85,0-8.09l50.68-50.68c1.06-1.05,2.49-1.64,3.99-1.65h121.74
			c1.49,0.01,2.92,0.6,3.99,1.65l50.68,50.68c2.22,2.24,2.22,5.85,0,8.09l-26.36,26.36c-2.24,2.22-5.85,2.22-8.09,0l-12.75-12.75
			v79.72L179.92,348.82z"/>
		<path id="Shape_1_" class="st6" d="M369.65,423.98l-80.11,15.03c-2.81,0.52-5.58-1.1-6.49-3.81l-15.49-46.52l-15.49,46.52
			c-0.91,2.71-3.68,4.34-6.49,3.81l-80.11-15.03c-1.57-0.29-2.94-1.23-3.78-2.58c-0.84-1.35-1.08-3-0.66-4.53l18.9-68.04l7.91-28.47
			h159.43l26.82,96.51c0.43,1.54,0.19,3.18-0.66,4.53C372.59,422.75,371.21,423.68,369.65,423.98L369.65,423.98z"/>
		<path id="Shape_2_" class="st7" d="M260.15,372.16c-2.45,0-4.62-1.57-5.4-3.89l-19.36-58.08c-0.64-1.93-0.21-4.06,1.14-5.59
			c1.35-1.52,3.41-2.21,5.41-1.8c2,0.41,3.62,1.85,4.27,3.78l19.36,58.08c0.58,1.74,0.29,3.65-0.79,5.14
			S261.99,372.17,260.15,372.16L260.15,372.16z"/>
		<path id="Shape_3_" class="st8" d="M199.23,138.03c0,18.81-15.24,34.05-34.05,34.05s-34.05-15.24-34.05-34.05
			c0-1.87,0.17-3.74,0.51-5.58h67.07C199.06,134.29,199.23,136.15,199.23,138.03z"/>
		<circle id="Oval" class="st9" cx="327.34" cy="391.52" r="14.23"/>
		<circle id="Oval_1_" class="st9" cx="196.38" cy="203.62" r="14.23"/>
		<path id="Shape_4_" class="st10" d="M347.27,297.57v22.78H187.84v-22.78c0.02-6.28,5.11-11.37,11.39-11.39h136.66
			C342.16,286.2,347.25,291.29,347.27,297.57z"/>
	</g>
</g>
</svg>
