<?xml version="1.0" encoding="utf-8"?>
<!-- Generator: Adobe Illustrator 25.2.0, SVG Export Plug-In . SVG Version: 6.00 Build 0)  -->
<svg version="1.1" id="Layer_1" xmlns="http://www.w3.org/2000/svg" xmlns:xlink="http://www.w3.org/1999/xlink" x="0px" y="0px"
	 viewBox="0 0 512 512" style="enable-background:new 0 0 512 512;" xml:space="preserve">
<style type="text/css">
	.st0{fill:#FBEBC9;}
	.st1{fill:#105C6E;}
	.st2{fill:#26879C;}
	.st3{fill:#DE513C;}
	.st4{fill:#FC6249;}
	.st5{fill:#E0DFD4;}
	.st6{fill:#F4F2E6;}
	.st7{fill:#E1945F;}
	.st8{fill:#643C3E;}
	.st9{fill:#F5AF73;}
	.st10{fill:#F5C882;}
	.st11{fill:#7DF5A5;}
	.st12{fill:#AFB9D2;}
	.st13{fill:#64DCA0;}
	.st14{fill:#959CB5;}
	.st15{fill:#D5DCED;}
	.st16{fill:#785353;}
</style>
<circle class="st0" cx="256" cy="256" r="243"/>
<g>
	<path class="st1" d="M297,106.1l-11.7-11.7c-2.7-2.7-6.3-4.2-10.1-4.2c-3.8,0-7.4,1.5-10.1,4.2l-8.5,8.5c-5.6,5.6-5.6,14.7,0,20.2
		l11.7,11.7c1.1,1.1,2.6,1.7,4.1,1.7s3-0.6,4.1-1.7c2.3-2.3,18.1-18.2,20.4-20.4C299.2,112,299.2,108.3,297,106.1z"/>
	<path class="st2" d="M338.3,67.6c-3.2,0-5.9,2.6-5.9,5.8v18.7c0,3.2,2.6,5.8,5.9,5.8s5.9-2.6,5.9-5.8V73.4
		C344.2,70.2,341.6,67.6,338.3,67.6z"/>
	<path class="st3" d="M352.8,66.4h-28.9c-3.2,0-5.9,2.6-5.9,5.8s2.6,5.8,5.9,5.8h28.9c3.2,0,5.9-2.6,5.9-5.8S356,66.4,352.8,66.4z"
		/>
	<path class="st4" d="M338.3,66.4h-14.4c-3.2,0-5.9,2.6-5.9,5.8s2.6,5.8,5.9,5.8h14.4V66.4z"/>
	<path class="st3" d="M401.8,112.7c-17-17-39.5-26.3-63.5-26.3s-46.5,9.3-63.5,26.3c-16.9,17-26.3,39.6-26.3,63.6
		s9.3,46.6,26.3,63.6c17,17,39.5,26.3,63.5,26.3s46.5-9.4,63.5-26.3c16.9-17,26.3-39.6,26.3-63.6S418.7,129.7,401.8,112.7z"/>
	<path class="st4" d="M338.3,86.3c-24,0-46.5,9.3-63.5,26.3c-16.9,17-26.3,39.5-26.3,63.6s9.3,46.6,26.3,63.6
		c17,17,39.5,26.3,63.5,26.3V86.3z"/>
	<path class="st5" d="M338.3,108.8c-37.1,0-67.4,30.3-67.4,67.5s30.2,67.5,67.4,67.5s67.4-30.3,67.4-67.5S375.5,108.8,338.3,108.8z"
		/>
	<path class="st6" d="M338.3,108.8c-37.1,0-67.4,30.3-67.4,67.5s30.2,67.5,67.4,67.5L338.3,108.8L338.3,108.8z"/>
	<g>
		<path class="st1" d="M338.3,123.4c3.2,0,5.9-2.6,5.9-5.8V109c-1.9-0.2-3.9-0.3-5.9-0.3s-3.9,0.1-5.9,0.3v8.5
			C332.5,120.8,335.1,123.4,338.3,123.4z"/>
		<path class="st1" d="M338.3,229.1c-3.2,0-5.9,2.6-5.9,5.9v8.5c1.9,0.2,3.9,0.3,5.9,0.3s3.9-0.1,5.9-0.3V235
			C344.2,231.7,341.6,229.1,338.3,229.1z"/>
		<path class="st1" d="M405.4,170.4h-8.4c-3.2,0-5.9,2.6-5.9,5.9s2.6,5.9,5.9,5.9h8.4c0.2-1.9,0.3-3.9,0.3-5.9
			S405.6,172.3,405.4,170.4z"/>
		<path class="st1" d="M285.5,176.2c0-3.2-2.6-5.9-5.9-5.9h-8.4c-0.2,1.9-0.3,3.9-0.3,5.9s0.1,3.9,0.3,5.9h8.4
			C282.8,182.1,285.5,179.5,285.5,176.2z"/>
		<path class="st1" d="M352.8,172.9h-8.2v-23.7c0-3.2-2.6-5.9-5.9-5.9s-5.9,2.6-5.9,5.9v29.5c0,3.2,2.6,5.9,5.9,5.9h14.1
			c3.2,0,5.9-2.6,5.9-5.9S356,172.9,352.8,172.9z"/>
	</g>
</g>
<g>
	<rect x="82.9" y="187.9" class="st7" width="33" height="46.3"/>
	<path class="st8" d="M76.3,154.8c-14.6,0-26.4,11.8-26.4,26.4v46.3c0,7.3-5.9,13.2-13.2,13.2c0,10.9,19.8,33,46.3,19.8l6.6-13.2
		v-92.5H76.3z"/>
	<path class="st9" d="M119.3,220.9L119.3,220.9c-20.1,0-36.3-16.3-36.3-36.3v-19.8c0-20.1,16.3-36.3,36.3-36.3l0,0
		c20.1,0,36.3,16.3,36.3,36.3v19.8C155.6,204.6,139.3,220.9,119.3,220.9z"/>
	<path class="st10" d="M303.9,290.3c-16.6-16.1-37.2-7.2-55.1,7.5l-71,58.2l27.7,52.6c0.9-0.7,1.8-1.4,2.7-2.1
		c36.6-28.7,73-80.2,73-80.2l79.3,73l33-6.6C393.5,392.7,327.4,313,303.9,290.3z"/>
	<path class="st9" d="M194.5,387.9l11,20.7c0.9-0.7,1.8-1.4,2.7-2.1c15.4-12.1,30.8-28.3,43.5-42.9c3.7-4.2-1.8-10.1-6.3-6.9
		C227.4,369.5,208.8,380.3,194.5,387.9z"/>
	<path class="st11" d="M168.8,363.2c-27.1-17.8-33-46.5-33-46.5c-1.9-8.1,13.8-13.2,10.5-31.4c-1.4-7.4-23.7-18.2-36.9-44.6
		l-38.7-0.2c-14.3,75.2,15,113.4,43.1,144.7c3.7,4.1,7.4,9,11.3,13.8L168.8,363.2z"/>
	<path class="st12" d="M192.1,344.2L125,399.1c8.3,10.3,17.7,20.7,31.1,24.4c23.7,6.6,37.3-5.5,52-17.1c7.8-6.1,15.6-13.3,23-20.8
		L192.1,344.2z"/>
	<path class="st13" d="M125,399.1l18.6-15.2C89.7,340,85.6,271.2,92,246.6l-21.3-6c-14.3,75.2,15,113.4,43.1,144.7
		C117.5,389.4,121.1,394.2,125,399.1z"/>
	<path class="st14" d="M231.2,385.7l-11.5-12.2c-13.9,8.5-26.8,15.3-36,20c-9.6,4.8-21,4-29.8-2c-3.6-2.4-7-5-10.3-7.7L125,399.1
		c8.3,10.3,17.7,20.7,31.1,24.4c23.7,6.6,37.3-5.5,52-17.1C216,400.3,223.8,393.2,231.2,385.7z"/>
	<path class="st9" d="M376.3,396.1l-72.5-75.3c-4.3-4.5-11.4-4.7-16-0.5l-6.6,6l79.3,73L376.3,396.1z"/>
	<path class="st15" d="M393.5,392.7h-26.4c-3.6,0-6.6,3-6.6,6.6v26.4h59.5v-6.6C419.9,404.5,408.1,392.7,393.5,392.7z"/>
	<path class="st16" d="M119.3,128.4c-20.1,0-36.3,16.3-36.3,36.3v19.8c0,5.5,1.2,10.6,3.4,15.3c29.9-11.4,34.1-34.7,69.3-32.4v-2.7
		C155.6,144.7,139.3,128.4,119.3,128.4z"/>
	<path class="st10" d="M87.6,260.8c-5.2,0-12.6-2.5-16.1-10.3c-3.4-7.5-1.3-19.2,10.3-22.9l87.1-27.6L89.1,160
		c-6.5-3.3-9.2-11.2-5.9-17.7c3.3-6.5,11.2-9.2,17.7-5.9l79.8,39.9c9.4,4.7,15,14.1,14.6,24.6c-0.4,10.5-6.6,19.5-16.4,23.5
		l-85.5,35.2C91.8,260.2,89.3,260.8,87.6,260.8z"/>
</g>
</svg>
