<?xml version="1.0" encoding="utf-8"?>
<!-- Generator: Adobe Illustrator 25.1.0, SVG Export Plug-In . SVG Version: 6.00 Build 0)  -->
<svg version="1.1" id="Layer_1" xmlns="http://www.w3.org/2000/svg" xmlns:xlink="http://www.w3.org/1999/xlink" x="0px" y="0px"
	 viewBox="0 0 512 512" style="enable-background:new 0 0 512 512;" xml:space="preserve">
<style type="text/css">
	.st0{fill:#DB5C87;}
	.st1{fill:#8C818F;}
	.st2{fill:#766D78;}
	.st3{fill:#FCF7ED;}
</style>
<circle class="st0" cx="256" cy="256" r="243.05"/>
<path class="st1" d="M399.21,351.45L102.68,312.1c-9.52-1.18-16.27-9.85-15.09-19.37l11.59-103.03c1.18-9.52,4.41-22.8,13.93-21.62
	l315.96,39.19c9.52,1.18,16.27,9.85,15.09,19.37l-14.25,114.86C428.73,351.03,408.73,352.63,399.21,351.45z"/>
<path class="st2" d="M429.91,341.51c-1.18,9.51-9.86,16.27-19.37,15.09L94.58,317.41c-9.52-1.18-16.27-9.85-15.09-19.37
	l14.25-114.86c1.18-9.51,9.84-16.27,19.37-15.09l-14.96,120.6c-0.79,6.34,3.72,12.12,10.06,12.91L429.91,341.51z"/>
<g>
	<path class="st3" d="M278.49,240.56l5.75-16.88c1.55-4.54-0.88-9.47-5.42-11.02c-4.53-1.54-9.47,0.88-11.02,5.42l-6.91,20.3
		l-11.54-1.43l5.75-16.88c1.55-4.54-0.88-9.47-5.42-11.02c-4.54-1.54-9.47,0.88-11.02,5.42l-6.91,20.3l-3.53-0.44
		c-4.76-0.59-9.09,2.79-9.68,7.55c-0.59,4.74,2.77,9.06,7.5,9.67l-4.01,11.77l-3.5-0.43c-4.76-0.59-9.09,2.79-9.68,7.55
		c-0.59,4.73,2.75,9.04,7.46,9.67l-5.91,17.34c-1.55,4.54,0.88,9.47,5.42,11.02c0.58,0.2,1.16,0.33,1.74,0.4
		c4,0.5,7.93-1.86,9.28-5.82l7.07-20.75l11.54,1.43l-5.91,17.34c-1.55,4.54,0.88,9.47,5.42,11.02c0.58,0.2,1.16,0.33,1.74,0.4
		c4,0.5,7.93-1.86,9.28-5.82l7.07-20.75l3.59,0.44c4.76,0.59,9.09-2.79,9.68-7.55c0.59-4.76-2.79-9.09-7.55-9.68l0,0l4.01-11.77
		l3.55,0.44c4.76,0.59,9.09-2.79,9.68-7.55C286.59,245.49,283.23,241.16,278.49,240.56L278.49,240.56z M251.16,266.93l-11.54-1.43
		l4.01-11.77l11.54,1.43L251.16,266.93z"/>
	<path class="st3" d="M183.56,276.42c6.58-6.98,11.14-12.59,11.43-12.93c3.02-3.72,2.45-9.19-1.27-12.21
		c-3.72-3.02-9.19-2.45-12.21,1.27c-0.05,0.07-3.15,3.86-7.83,8.99L161.1,242.6c1.86-0.97,3.57-1.96,5.17-3
		c10.53-6.85,14.58-17.76,10.31-27.79c-4.59-10.8-17.25-16.83-29.45-14.01c-1.98,0.46-3.69,1.06-5.25,1.84
		c-5.59,2.8-9.77,8.01-11.48,14.3c-1.67,6.16-0.73,12.62,2.63,17.81l2.21,3.33c-10.62,4.54-18.56,13.62-21.27,24.35
		c-2.59,10.25-0.2,20.59,6.72,29.12c4.9,6.04,11.44,9.69,18.99,10.63c0.51,0.06,1.03,0.11,1.55,0.15
		c11.59,0.85,22.63-4.68,29.66-10.56l7.24,10.91c2.65,4,8.04,5.08,12.03,2.43c3.99-2.65,5.08-8.04,2.43-12.03L183.56,276.42z
		 M147.17,218.5c0.41-1.5,1.34-2.75,2.5-3.33c0.21-0.11,0.62-0.27,1.38-0.45c1.17-0.27,2.31-0.31,3.37-0.18
		c2.97,0.37,5.34,2.1,6.18,4.07c1.09,2.57-1.47,4.92-3.81,6.44c-1.51,0.98-3.3,1.96-5.38,2.99l-3.86-5.81
		C146.93,221.26,146.79,219.9,147.17,218.5z M160.67,274.69c-5.23,4.8-12.52,7.75-18.14,7.34c-3.4-0.25-6.14-1.69-8.34-4.41
		c-4.34-5.35-4.23-10.53-3.37-13.94c1.4-5.56,5.68-10.31,11.44-12.71c0.95-0.4,1.88-0.78,2.78-1.16l16.18,24.37
		C161.04,274.35,160.86,274.52,160.67,274.69L160.67,274.69z"/>
	<g>
		<path class="st3" d="M379.76,225.19c-4.16-2.38-9.46-0.95-11.85,3.21l-45.85,79.93c-2.39,4.16-0.95,9.46,3.21,11.85
			c1.03,0.59,2.14,0.95,3.25,1.09c3.37,0.42,6.81-1.17,8.6-4.3l45.85-79.93C385.35,232.88,383.92,227.58,379.76,225.19z"/>
		<path class="st3" d="M347.72,243.74c1.83-14.77-7.56-28.13-20.93-29.79s-25.74,9.01-27.57,23.78
			c-1.83,14.77,7.56,28.13,20.93,29.79C333.52,269.18,345.89,258.51,347.72,243.74z M322.28,250.29c-3.81-0.47-6.48-5.25-5.84-10.43
			c0.64-5.18,4.4-9.16,8.21-8.68c3.81,0.47,6.48,5.25,5.84,10.43C329.85,246.79,326.09,250.76,322.28,250.29z"/>
		<path class="st3" d="M383.51,279.53c-13.37-1.66-25.74,9.01-27.57,23.77c-1.83,14.77,7.56,28.13,20.93,29.79
			c13.37,1.66,25.74-9.01,27.57-23.78C406.27,294.55,396.89,281.18,383.51,279.53z M379.01,315.87c-3.81-0.47-6.48-5.25-5.84-10.43
			s4.4-9.16,8.21-8.68c3.81,0.47,6.48,5.25,5.84,10.43C386.57,312.36,382.81,316.34,379.01,315.87z"/>
	</g>
</g>
</svg>
