<?xml version="1.0" encoding="utf-8"?>
<!-- Generator: Adobe Illustrator 25.1.0, SVG Export Plug-In . SVG Version: 6.00 Build 0)  -->
<svg version="1.1" id="Layer_1" xmlns="http://www.w3.org/2000/svg" xmlns:xlink="http://www.w3.org/1999/xlink" x="0px" y="0px"
	 viewBox="0 0 512 512" style="enable-background:new 0 0 512 512;" xml:space="preserve">
<style type="text/css">
	.st0{fill:#E6DFD6;}
	.st1{fill:#AF8066;}
	.st2{fill:#7F5B53;}
	.st3{fill:#F9EAB0;}
	.st4{fill:#FAC176;}
	.st5{fill:#F5EFCA;}
	.st6{fill:#2FA8CC;}
	.st7{fill:#E64C3C;}
	.st8{fill:#35495E;}
	.st9{fill:#C03A2B;}
	.st10{fill:#F0C419;}
	.st11{fill:#2C3E50;}
	.st12{fill:#D25627;}
	.st13{fill:#BDC3C7;}
	.st14{fill:#FB7B76;}
</style>
<circle class="st0" cx="256" cy="256" r="243.05"/>
<g>
	<path class="st1" d="M381.3,158.14h15.17c5.58,0.02,10.1,4.54,10.11,10.11v197.21c0,5.56-4.55,10.11-15.17,10.11H280.17
		c2.28,0,0,2.28,0,5.06v5.06c-0.01,2.79-2.27,5.05-5.05,5.06h-30.34c-2.79-0.01-5.05-2.27-5.05-5.06v-5.06
		c-0.01-2.79-2.27-5.05-5.06-5.06H123.41c-5.58-0.02-10.1-4.53-10.11-10.11V168.25c-0.01-1.52,0.34-3.03,1.01-4.4L381.3,158.14z"/>
	<path class="st2" d="M259.94,375.58c-2.79,0-5.06-2.26-5.06-5.05v-15.17c0-2.79,2.26-5.06,5.06-5.06c2.79,0,5.06,2.26,5.06,5.06
		v15.17C265,373.32,262.74,375.58,259.94,375.58z"/>
	<path class="st3" d="M138.58,325.01V199.71l82.17-66.85h18.96c5.36,0,10.51,2.13,14.3,5.92c3.79,3.79,5.93,8.94,5.92,14.31V350.3
		L138.58,325.01z"/>
	<path class="st4" d="M138.58,325.01h101.14c11.17,0,20.23,9.06,20.23,20.23v10.11h-116.3c-2.79,0-5.06-2.26-5.06-5.06V325.01z"/>
	<path class="st5" d="M381.3,325.01V142.97c-0.02-5.58-4.54-10.1-10.11-10.11h-91.02c-5.36,0-10.51,2.13-14.3,5.92
		c-3.79,3.79-5.93,8.94-5.92,14.31V350.3L381.3,325.01z"/>
	<path class="st3" d="M259.94,355.35h111.25c7.85,0,10.11-2.26,10.11-5.06v-25.28H275.11c-6.12,0-15.17,9.06-15.17,20.23V355.35z"/>
	<path class="st6" d="M224.55,153.08c0,30.72-24.9,55.62-55.62,55.62c-30.72,0-55.62-24.9-55.62-55.62
		c0-30.72,24.9-55.62,55.62-55.62C199.64,97.46,224.55,122.36,224.55,153.08z"/>
	<path class="st7" d="M350.96,173.31v151.7H300.4v-151.7l15.17-5.06l10.11,15.17l10.11-15.17L350.96,173.31z"/>
	<path class="st8" d="M337.16,134.73c-3.35,2.34-7.4,3.46-11.48,3.19c-4.08,0.28-8.12-0.85-11.48-3.19l6.78-18.86
		c0.75-1.94,2.62-3.22,4.7-3.22s3.95,1.28,4.7,3.22L337.16,134.73z"/>
	<path class="st4" d="M350.96,173.31l-15.17-5.06l-10.11,15.17l-10.11-15.17l-15.17,5.06l13.8-38.58c3.35,2.34,7.4,3.46,11.48,3.19
		c4.08,0.28,8.13-0.85,11.48-3.19L350.96,173.31z"/>
	<path class="st9" d="M325.68,264.33c-2.79,0-5.06-2.26-5.06-5.05v-75.85c0-2.79,2.26-5.06,5.06-5.06s5.06,2.26,5.06,5.06v75.85
		C330.74,262.07,328.47,264.33,325.68,264.33z"/>
	<path class="st9" d="M325.68,330.07c-2.79,0-5.06-2.26-5.06-5.06v-35.4c0-2.79,2.26-5.06,5.06-5.06s5.06,2.26,5.06,5.06v35.4
		C330.74,327.8,328.47,330.07,325.68,330.07z"/>
	<path class="st10" d="M189.15,134.53v43.84c-0.01,2.79-2.27,5.05-5.06,5.06h-30.34c-2.79-0.01-5.05-2.27-5.06-5.06v-43.84
		l20.23-15.98L189.15,134.53z"/>
	<path class="st1" d="M173.98,168.25v15.17h-10.11v-15.17c0-2.79,2.26-5.06,5.06-5.06C171.72,163.2,173.98,165.46,173.98,168.25z"/>
	<g>
		<path class="st11" d="M239.72,244.1h-80.91c-2.79,0-5.06-2.26-5.06-5.06c0-2.79,2.26-5.06,5.06-5.06h80.91
			c2.79,0,5.05,2.26,5.05,5.06C244.77,241.84,242.51,244.1,239.72,244.1z"/>
		<path class="st11" d="M239.72,264.33h-80.91c-2.79,0-5.06-2.26-5.06-5.05s2.26-5.06,5.06-5.06h80.91c2.79,0,5.05,2.26,5.05,5.06
			S242.51,264.33,239.72,264.33z"/>
		<path class="st11" d="M239.72,284.56h-80.91c-2.79,0-5.06-2.26-5.06-5.06c0-2.79,2.26-5.06,5.06-5.06h80.91
			c2.79,0,5.05,2.26,5.05,5.06C244.77,282.29,242.51,284.56,239.72,284.56z"/>
		<path class="st11" d="M239.72,304.78h-80.91c-2.79,0-5.06-2.26-5.06-5.05c0-2.79,2.26-5.06,5.06-5.06h80.91
			c2.79,0,5.05,2.26,5.05,5.06C244.77,302.52,242.51,304.78,239.72,304.78z"/>
	</g>
	<path class="st12" d="M199.26,148.03c-1.18,0-2.33-0.41-3.24-1.17l-27.1-22.59l-27.1,22.59c-2.15,1.76-5.31,1.45-7.09-0.68
		c-1.78-2.13-1.5-5.3,0.61-7.1l30.34-25.28c1.88-1.56,4.6-1.56,6.48,0l30.34,25.28c1.64,1.36,2.25,3.61,1.52,5.61
		C203.29,146.7,201.39,148.03,199.26,148.03z"/>
	<path class="st13" d="M300.4,325.01h50.57c5.59,0,10.11,4.53,10.11,10.11v10.11c0,5.59-4.53,10.11-10.11,10.11H300.4
		c-5.59,0-10.11-4.53-10.11-10.11v-10.11C290.28,329.54,294.81,325.01,300.4,325.01z"/>
	<path class="st14" d="M300.4,355.35h50.57v15.17c0,8.38-6.79,15.17-15.17,15.17h-20.23c-8.38,0-15.17-6.79-15.17-15.17V355.35z"/>
</g>
</svg>
