<?xml version="1.0" encoding="utf-8"?>
<!-- Generator: Adobe Illustrator 25.1.0, SVG Export Plug-In . SVG Version: 6.00 Build 0)  -->
<svg version="1.1" id="Layer_1" xmlns="http://www.w3.org/2000/svg" xmlns:xlink="http://www.w3.org/1999/xlink" x="0px" y="0px"
	 viewBox="0 0 512 512" style="enable-background:new 0 0 512 512;" xml:space="preserve">
<style type="text/css">
	.st0{fill:#B57C69;}
	.st1{fill:#105C6E;}
	.st2{fill:#26879C;}
	.st3{fill:#DE513C;}
	.st4{fill:#FC6249;}
	.st5{fill:#E0DFD4;}
	.st6{fill:#F4F2E6;}
	.st7{fill:#2D75BB;}
	.st8{fill:#FCEC97;}
	.st9{fill:#F1C056;}
	.st10{fill:#F9BB4B;}
	.st11{fill:#00AAAD;}
	.st12{fill:#7FC99D;}
</style>
<circle class="st0" cx="250.8" cy="256.29" r="243.05"/>
<g>
	<path class="st1" d="M296.96,106.05L285.3,94.36c-2.71-2.71-6.3-4.2-10.13-4.2c-3.83,0-7.43,1.49-10.13,4.2l-8.45,8.47
		c-5.56,5.58-5.56,14.65,0,20.22l11.69,11.71c1.14,1.15,2.64,1.72,4.14,1.72c1.5,0,2.99-0.57,4.13-1.71
		c2.29-2.28,18.13-18.17,20.41-20.45C299.24,112.04,299.24,108.34,296.96,106.05z"/>
	<path class="st2" d="M338.33,67.59c-3.23,0-5.85,2.62-5.85,5.85v18.72c0,3.23,2.62,5.85,5.85,5.85c3.23,0,5.85-2.62,5.85-5.85
		V73.44C344.18,70.21,341.56,67.59,338.33,67.59z"/>
	<path class="st3" d="M352.76,66.42H323.9c-3.23,0-5.85,2.62-5.85,5.85s2.62,5.85,5.85,5.85h28.87c3.23,0,5.85-2.62,5.85-5.85
		S355.99,66.42,352.76,66.42z"/>
	<path class="st4" d="M338.33,66.42H323.9c-3.23,0-5.85,2.62-5.85,5.85s2.62,5.85,5.85,5.85h14.43V66.42z"/>
	<path class="st3" d="M401.78,112.69c-16.95-16.98-39.48-26.33-63.45-26.33s-46.5,9.35-63.45,26.33
		c-16.94,16.98-26.27,39.55-26.27,63.56s9.33,46.58,26.27,63.56c16.95,16.98,39.48,26.33,63.45,26.33c23.97,0,46.5-9.35,63.45-26.33
		c16.94-16.98,26.27-39.55,26.27-63.56S418.72,129.66,401.78,112.69z"/>
	<path class="st4" d="M338.33,86.35c-23.97,0-46.5,9.35-63.45,26.33c-16.94,16.98-26.27,39.55-26.27,63.56s9.33,46.58,26.27,63.56
		c16.95,16.98,39.48,26.33,63.45,26.33V86.35z"/>
	<path class="st5" d="M338.33,108.75c-37.14,0-67.36,30.28-67.36,67.49s30.22,67.49,67.36,67.49s67.36-30.28,67.36-67.49
		S375.47,108.75,338.33,108.75z"/>
	<path class="st6" d="M338.33,108.75c-37.14,0-67.36,30.28-67.36,67.49s30.22,67.49,67.36,67.49V108.75z"/>
	<g>
		<path class="st1" d="M338.33,123.37c3.23,0,5.85-2.62,5.85-5.85v-8.51c-1.93-0.17-3.88-0.26-5.85-0.26
			c-1.97,0-3.92,0.09-5.85,0.26v8.51C332.48,120.75,335.1,123.37,338.33,123.37z"/>
		<path class="st1" d="M338.33,229.12c-3.23,0-5.85,2.62-5.85,5.85v8.51c1.93,0.17,3.88,0.26,5.85,0.26c1.97,0,3.92-0.09,5.85-0.26
			v-8.51C344.18,231.74,341.56,229.12,338.33,229.12z"/>
		<path class="st1" d="M405.44,170.39h-8.38c-3.23,0-5.85,2.62-5.85,5.85s2.62,5.85,5.85,5.85h8.38c0.17-1.93,0.26-3.88,0.26-5.85
			S405.6,172.32,405.44,170.39z"/>
		<path class="st1" d="M285.45,176.25c0-3.23-2.62-5.85-5.85-5.85h-8.38c-0.17,1.93-0.26,3.88-0.26,5.85s0.09,3.92,0.26,5.85h8.38
			C282.84,182.1,285.45,179.48,285.45,176.25z"/>
		<path class="st1" d="M352.76,172.87h-8.25V149.2c0-3.23-2.62-5.85-5.85-5.85c-3.23,0-5.85,2.62-5.85,5.85v29.52
			c0,3.23,2.62,5.85,5.85,5.85h14.11c3.23,0,5.85-2.62,5.85-5.85S355.99,172.87,352.76,172.87z"/>
	</g>
</g>
<g>
	<path class="st7" d="M83.66,405.47c0-8.69,7.04-15.73,15.73-15.73h188.78V193.09H107.25c-13.03,0-23.6,10.57-23.6,23.6V405.47z"/>
	<path class="st8" d="M130.85,216.69h133.72v70.79H130.85V216.69z"/>
	<path class="st8" d="M99.39,389.74h188.78l0,0v31.46l0,0H99.39c-8.69,0-15.73-7.04-15.73-15.73
		C83.66,396.78,90.7,389.74,99.39,389.74z"/>
	<path class="st9" d="M95.46,401.54h23.6v7.87h-23.6V401.54z"/>
	<path class="st9" d="M150.52,401.54h137.65v7.87H150.52V401.54z"/>
	<path class="st9" d="M83.66,405.47c0-8.69,7.04-15.73,15.73-15.73h7.87V193.09c-13.03,0-23.6,10.57-23.6,23.6V405.47z"/>
	<path class="st9" d="M182.12,276.72l7.59-2.07l-11.8-43.26c-0.47-1.71-2.02-2.9-3.8-2.9h-15.73c-1.77,0-3.33,1.19-3.8,2.9
		l-11.8,43.26l7.59,2.07l4.57-16.77h22.6L182.12,276.72z M157.1,252.08l4.29-15.73h9.72l4.29,15.73H157.1z"/>
	<path class="st7" d="M193.78,248.15h19.66v7.87h-19.66V248.15z"/>
	<path class="st9" d="M252.77,275.68h-31.46c-2.17,0-3.93-1.76-3.93-3.94c0-0.81,0.25-1.59,0.71-2.25l23.2-33.14h-23.91v-7.87h31.46
		c2.17,0,3.93,1.76,3.93,3.94c0,0.81-0.25,1.59-0.71,2.25l-23.2,33.14h23.91V275.68z"/>
	<path class="st9" d="M150.52,303.21h94.39v15.73h-94.39V303.21z"/>
	<g>
		<path class="st10" d="M138.72,334.68h15.73v7.87h-15.73V334.68z"/>
		<path class="st10" d="M162.32,334.68h70.79v7.87h-70.79V334.68z"/>
		<path class="st10" d="M240.97,334.68h15.73v7.87h-15.73V334.68z"/>
		<path class="st10" d="M130.85,350.41h133.72v7.87H130.85V350.41z"/>
		<path class="st10" d="M130.85,366.14h133.72v7.87H130.85V366.14z"/>
	</g>
	<path class="st11" d="M288.17,212.76h23.6v15.73h-23.6V212.76z"/>
	<path class="st12" d="M288.17,244.22h15.73v15.73h-15.73V244.22z"/>
	<path class="st11" d="M288.17,275.68h23.6v15.73h-23.6V275.68z"/>
	<path class="st12" d="M288.17,307.15h15.73v15.73h-15.73V307.15z"/>
	<path class="st11" d="M150.52,413.34l-15.73-7.87l-15.73,7.87v-23.6h31.46V413.34z"/>
</g>
</svg>
