<?xml version="1.0" encoding="utf-8"?>
<!-- Generator: Adobe Illustrator 25.1.0, SVG Export Plug-In . SVG Version: 6.00 Build 0)  -->
<svg version="1.1" id="Layer_1" xmlns="http://www.w3.org/2000/svg" xmlns:xlink="http://www.w3.org/1999/xlink" x="0px" y="0px"
	 viewBox="0 0 512 512" style="enable-background:new 0 0 512 512;" xml:space="preserve">
<style type="text/css">
	.st0{fill:#7895A4;}
	.st1{fill:#12B57B;}
	.st2{fill:#6AA9FF;}
	.st3{fill:#EDF5FF;}
	.st4{fill:#47568C;}
	.st5{fill:#FF7B4A;}
	.st6{clip-path:url(#SVGID_2_);}
	.st7{fill:#FFB69E;}
	.st8{fill:#5F6E9B;}
	.st9{fill:#414B82;}
	.st10{fill:#64AFFF;}
	.st11{fill:#E89F87;}
	.st12{fill:#78BEFF;}
	.st13{fill:#1E2D64;}
	.st14{fill:#1E73BE;}
	.st15{fill:#2896FF;}
	.st16{fill:#263980;}
</style>
<path class="st0" d="M429.7,426c-44.12,45.08-105.64,73.05-173.7,73.05S126.42,471.08,82.3,426H429.7z"/>
<path class="st1" d="M499.05,256c0,66.18-26.45,126.17-69.35,170H82.3c-42.9-43.83-69.35-103.82-69.35-170
	C12.95,121.77,121.77,12.95,256,12.95S499.05,121.77,499.05,256z"/>
<g>
	<circle class="st2" cx="354.62" cy="170.67" r="94.83"/>
	<g>
		<path class="st2" d="M449.46,170.67c0-52.09-42.75-94.83-94.83-94.83V265.5C406.71,265.5,449.46,222.76,449.46,170.67z"/>
	</g>
	<circle class="st3" cx="354.62" cy="170.67" r="83.72"/>
	<circle class="st4" cx="307.47" cy="217.82" r="5.56"/>
	<circle class="st4" cx="401.77" cy="123.52" r="5.56"/>
	<circle class="st4" cx="307.47" cy="123.52" r="5.56"/>
	<circle class="st4" cx="401.77" cy="217.82" r="5.56"/>
	<path class="st4" d="M299.06,176.23h-11.11c-3.07,0-5.56-2.49-5.56-5.56s2.49-5.56,5.56-5.56h11.11c3.07,0,5.56,2.49,5.56,5.56
		C304.61,173.74,302.13,176.23,299.06,176.23z"/>
	<path class="st4" d="M421.3,176.23h-11.11c-3.07,0-5.56-2.49-5.56-5.56s2.49-5.56,5.56-5.56h11.11c3.07,0,5.56,2.49,5.56,5.56
		C426.86,173.74,424.37,176.23,421.3,176.23z"/>
	<path class="st4" d="M349.07,103.99v11.11c0,3.07,2.49,5.56,5.56,5.56V98.43C351.55,98.43,349.07,100.92,349.07,103.99z"/>
	<path class="st5" d="M360.18,115.1v-11.11c0-3.07-2.49-5.56-5.56-5.56v22.23C357.7,120.66,360.18,118.18,360.18,115.1z"/>
	<path class="st4" d="M354.62,220.68c-3.07,0-5.56,2.49-5.56,5.56v11.11c0,3.07,2.49,5.56,5.56,5.56s5.56-2.49,5.56-5.56v-11.11
		C360.18,223.16,357.7,220.68,354.62,220.68z"/>
	<path class="st4" d="M391.89,200.08l-31.71-31.71v-31.04c0-3.07-2.49-5.56-5.56-5.56s-5.56,2.49-5.56,5.56v33.34
		c0,1.48,0.59,2.89,1.63,3.93l3.93,3.93l29.41,29.41c2.17,2.17,5.69,2.17,7.86,0C394.06,205.77,394.06,202.25,391.89,200.08
		L391.89,200.08z"/>
	<g>
		<path class="st4" d="M360.18,115.1v-11.11c0-3.07-2.49-5.56-5.56-5.56v22.23C357.7,120.66,360.18,118.18,360.18,115.1z"/>
		<path class="st4" d="M360.18,237.35v-11.11c0-3.07-2.49-5.56-5.56-5.56v22.23C357.7,242.91,360.18,240.42,360.18,237.35z"/>
		<path class="st4" d="M391.89,207.94c2.17-2.17,2.17-5.69,0-7.86l-31.71-31.71v-31.04c0-3.07-2.49-5.56-5.56-5.56v46.75
			l29.41,29.41C386.21,210.11,389.72,210.11,391.89,207.94L391.89,207.94z"/>
	</g>
</g>
<g>
	<defs>
		<circle id="SVGID_1_" cx="256" cy="256" r="243.05"/>
	</defs>
	<clipPath id="SVGID_2_">
		<use xlink:href="#SVGID_1_"  style="overflow:visible;"/>
	</clipPath>
	<g class="st6">
		<path class="st7" d="M54.37,309.01c-4.73-5.7-3.94-14.16,1.76-18.89l44.7-37.09L144.68,201c4.78-5.66,13.24-6.39,18.9-1.61
			c5.67,4.77,6.39,13.24,1.61,18.9l-44.62,52.94c-0.51,0.61-1.08,1.17-1.69,1.68l-45.62,37.86
			C67.57,315.48,59.11,314.73,54.37,309.01z"/>
		<path class="st8" d="M115.81,312.61l41.95-3.85l-8.45,64.35c-0.43,2.72-0.14,5.51,0.83,8.09l26.87,71.25
			c3.12,8.27,12.33,12.37,20.53,9.28c8.23-3.1,12.39-12.29,9.28-20.53l-25.39-67.31l9.14-60.28c0.36-2.37,0.44-4.77,0.23-7.16
			l-8.39-97.59c-0.94-10.89-10.53-18.96-21.42-18.03l-35.23,3.03c-10.87,0.93-18.93,10.49-18.03,21.36L115.81,312.61z"/>
		<path class="st9" d="M86.95,462.36c-8.58-1.95-13.95-10.49-12-19.07l18.06-79.45c0.24-1.04,0.58-2.06,1.02-3.03l28.49-63.04
			c3.62-8.02,13.06-11.58,21.08-7.96c8.02,3.62,11.58,13.06,7.96,21.08l-27.83,61.58l-17.71,77.89
			C104.07,458.91,95.55,464.31,86.95,462.36z"/>
		<path class="st10" d="M107.74,215.23c-0.9-10.87,7.16-20.42,18.03-21.36l35.23-3.03c10.89-0.94,20.48,7.13,21.42,18.03l8.33,96.86
			l-74.93,6.88L107.74,215.23z"/>
		<circle class="st7" cx="134.94" cy="153.06" r="29.3"/>
		<path class="st11" d="M207.26,319.93L185.62,267l-40.95-48.72c-4.77-5.67-4.03-14.13,1.64-18.9c5.67-4.77,14.13-4.03,18.9,1.64
			l42.3,50.33c0.9,1.07,1.62,2.27,2.15,3.55l22.43,54.88c2.8,6.86-0.48,14.69-7.34,17.49C217.92,330.06,210.07,326.82,207.26,319.93
			z"/>
		<path class="st12" d="M185.59,225.27l-20.39-24.25c-4.77-5.67-13.23-6.4-18.9-1.64c-5.67,4.77-6.4,13.23-1.64,18.9l19.38,23.06
			L185.59,225.27z"/>
		<path class="st9" d="M286.81,462.68c-6.09,0.71-11.6-3.66-12.31-9.75l-5.58-48.15c-0.12-1.05-0.09-2.11,0.09-3.16l7.27-42.37
			c1.04-6.04,6.78-10.1,12.82-9.07c6.04,1.04,10.1,6.78,9.07,12.82l-7,40.8l5.4,46.57C297.27,456.46,292.91,461.97,286.81,462.68z"
			/>
		<path class="st8" d="M337.51,447.98l-28.7-31.82c-1.69-1.77-2.78-4.03-3.12-6.45l-4.84-35.88c-1.77-5.87,1.57-12.07,7.44-13.83
			c0,0,0,0,0,0c5.87-1.76,12.06,1.57,13.82,7.44l1.99,32.59l29.24,32.4c4.23,4.44,4.27,11.74-0.19,15.96
			C348.75,452.57,341.75,452.43,337.51,447.98z"/>
		<path class="st13" d="M269.2,307.68c-0.54-8,5.45-14.94,13.45-15.57l18.7-1.48c8.05-0.64,15.1,5.37,15.74,13.42l5.39,67.42v2.32
			h-48.8L269.2,307.68z"/>
		<path class="st14" d="M278.8,304.71c-0.28-4.15,1.08-8.16,3.82-11.29c2.74-3.13,6.54-5,10.69-5.28l31.82-2.11l0.55,8.3
			l-31.82,2.11c-1.93,0.13-3.7,1-4.98,2.46c-1.28,1.46-1.91,3.32-1.78,5.26c1.11,16.74,15.62,29.46,32.37,28.34l8.7-0.58l0.55,8.3
			l-8.7,0.58C298.71,342.22,280.22,326.03,278.8,304.71z"/>
		<path class="st15" d="M310.85,294.31c-0.53-7.96,5.5-14.84,13.46-15.37c7.96-0.53,14.84,5.5,15.37,13.46l3.15,47.51
			c0.53,7.96-5.5,14.84-13.46,15.37c-7.96,0.53-14.84-5.5-15.37-13.46L310.85,294.31z"/>
		<path class="st14" d="M342.84,340.13l4.19-0.28c2.55-0.17,4.48-2.37,4.31-4.92l-0.98-14.76c-0.17-2.55-2.37-4.48-4.92-4.31
			l-4.19,0.28l1.58,23.76C342.84,339.98,342.84,340.06,342.84,340.13z"/>
		<g>
			<circle class="st7" cx="291.61" cy="253.35" r="24"/>
			<path class="st7" d="M259.17,329.56l-37.76-6.04c-5.12-0.82-8.61-5.63-7.79-10.76s5.63-8.61,10.76-7.79l35.09,5.61l31.9-13.59
				c4.77-2.03,10.29,0.19,12.32,4.96c2.03,4.77-0.19,10.29-4.96,12.32l-34.39,14.65C262.67,329.63,260.88,329.83,259.17,329.56z"/>
		</g>
		<path class="st16" d="M259.17,329.56l-37.76-6.04l2.97-18.55l35.09,5.61l31.9-13.59c4.77-2.03,10.29,0.19,12.32,4.96
			c2.03,4.77-0.19,10.29-4.96,12.32l-34.39,14.65C262.67,329.63,260.88,329.83,259.17,329.56z"/>
	</g>
</g>
</svg>
