<?xml version="1.0" encoding="utf-8"?>
<!-- Generator: Adobe Illustrator 25.1.0, SVG Export Plug-In . SVG Version: 6.00 Build 0)  -->
<svg version="1.1" id="Layer_1" xmlns="http://www.w3.org/2000/svg" xmlns:xlink="http://www.w3.org/1999/xlink" x="0px" y="0px"
	 viewBox="0 0 512 512" style="enable-background:new 0 0 512 512;" xml:space="preserve">
<style type="text/css">
	.st0{fill:#EF8337;}
	.st1{fill:#FFB680;}
	.st2{fill:#FDCD99;}
	.st3{fill:#A6673A;}
	.st4{fill:#99522E;}
	.st5{fill:#736056;}
	.st6{fill:#E55639;}
	.st7{fill:#CF4529;}
	.st8{fill:#D5593B;}
	.st9{fill:#C24B2E;}
</style>
<circle class="st0" cx="256" cy="256" r="243.05"/>
<g>
	<path class="st1" d="M158.58,332.63h-12.05c-26.58,0-48.2-21.62-48.2-48.2s21.62-48.2,48.2-48.2h12.05
		c6.65,0,12.05,5.39,12.05,12.05v72.29C170.63,327.24,165.23,332.63,158.58,332.63z"/>
	<path class="st2" d="M363.41,188.04H146.53c0,22.64,0,81.01,0,132.54c0,59.79,48.64,108.44,108.44,108.44
		c49.51,0,92.7-33.45,105.03-81.34c2.38-35.71,3.18-41.48,3.41-60.33V188.04z"/>
	<path class="st1" d="M254.97,429.02c49.51,0,92.7-33.45,105.03-81.34c2.38-35.71,3.18-41.48,3.41-60.33v-99.31H254.97V429.02z"/>
	<circle class="st3" cx="254.97" cy="248.29" r="12.05"/>
	<circle class="st4" cx="303.17" cy="248.29" r="12.05"/>
	<path class="st3" d="M267.02,368.78c0,6.67-5.38,12.05-12.05,12.05c-33.26,0-60.24-26.99-60.24-60.24
		c0-6.67,5.38-12.05,12.05-12.05s12.05,5.38,12.05,12.05c0,19.92,16.23,36.15,36.15,36.15
		C261.64,356.73,267.02,362.11,267.02,368.78z"/>
	<path class="st5" d="M161.59,284.43h-15.06v-84.34c0-6.65,5.39-12.05,12.05-12.05h48.2c6.65,0,12.05,5.39,12.05,12.05v27.11
		C218.83,258.81,193.2,284.43,161.59,284.43z"/>
	<g>
		<path class="st4" d="M267.02,368.78c0,6.67-5.38,12.05-12.05,12.05v-24.1C261.64,356.73,267.02,362.11,267.02,368.78z"/>
		<path class="st4" d="M267.02,248.29c0-6.65-5.39-12.05-12.05-12.05v24.1C261.63,260.34,267.02,254.94,267.02,248.29z"/>
	</g>
	<path class="st2" d="M434.21,300.66l-126.48-15.94c-1.49-0.19-3.02-0.29-4.56-0.29c-19.96,0-36.15,16.18-36.15,36.15
		c0,19.96,16.18,36.15,36.15,36.15c1.55,0,3.07-0.1,4.56-0.29l126.48-15.94L434.21,300.66z"/>
	<path class="st1" d="M434.22,340.5c-0.83,0.1-1.67,0.16-2.53,0.16c-11.07,0-20.08-9.01-20.08-20.08s9.01-20.08,20.08-20.08
		c0.84,0,1.69,0.05,2.52,0.16c0.42,0.05,0.83,0.12,1.25,0.2c9.45,1.8,16.31,10.1,16.31,19.73
		C451.77,330.8,444.1,339.26,434.22,340.5z"/>
	<path class="st6" d="M351.36,212.14H158.58c-4.43,0-8.5-2.43-10.6-6.32c-2.1-3.9-1.9-8.63,0.53-12.33l77.73-118.45
		c6.37-9.71,17.12-15.51,28.73-15.51c11.62,0,22.36,5.8,28.73,15.51l77.73,118.45c2.43,3.7,2.63,8.44,0.53,12.33
		C359.86,209.71,355.79,212.14,351.36,212.14z"/>
	<path class="st7" d="M351.36,212.14c4.43,0,8.5-2.43,10.6-6.32c2.1-3.9,1.9-8.63-0.53-12.33L283.71,75.03
		c-6.38-9.71-17.12-15.51-28.73-15.51v152.62H351.36z"/>
	<path class="st8" d="M375.46,212.14H134.48c-6.65,0-12.05-5.39-12.05-12.05c0-6.65,5.39-12.05,12.05-12.05h240.98
		c6.65,0,12.05,5.39,12.05,12.05C387.51,206.75,382.12,212.14,375.46,212.14z"/>
	<path class="st9" d="M375.46,188.04H254.97v24.1h120.49c6.65,0,12.05-5.39,12.05-12.05C387.51,193.44,382.12,188.04,375.46,188.04z
		"/>
</g>
</svg>
