<?xml version="1.0" encoding="utf-8"?>
<!-- Generator: Adobe Illustrator 25.1.0, SVG Export Plug-In . SVG Version: 6.00 Build 0)  -->
<svg version="1.1" id="Layer_1" xmlns="http://www.w3.org/2000/svg" xmlns:xlink="http://www.w3.org/1999/xlink" x="0px" y="0px"
	 viewBox="0 0 512 512" style="enable-background:new 0 0 512 512;" xml:space="preserve">
<style type="text/css">
	.st0{fill:#414157;}
	.st1{fill:#F6F6F6;}
	.st2{fill:#E3E0E4;}
	.st3{fill:#D9C759;}
</style>
<circle class="st0" cx="256" cy="256" r="243.05"/>
<g>
	<path class="st1" d="M384.99,387.6l-18.08,5.09h-98.67l-6.36-8.48l-6.36,8.48H133.67c-4.68,0-8.48-3.8-8.48-8.48V127.79
		c0-4.68,3.8-8.48,8.48-8.48h121.84l7.21,8.48l5.68-8.48h98.9l19.39,8.48c4.68,0,8.48,3.8,8.48,8.48l-1.7,242.84
		C393.47,383.8,389.68,387.6,384.99,387.6z"/>
	<g>
		<path class="st2" d="M390.08,119.31h-25.45c4.68,0,8.48,3.8,8.48,8.48v256.41c0,4.68-3.8,8.48-8.48,8.48h25.45
			c4.68,0,8.48-3.8,8.48-8.48V127.79C398.56,123.11,394.76,119.31,390.08,119.31z"/>
	</g>
	<g>
		<path class="st3" d="M220.67,336.86v10.18c0,4.68-3.8,8.48-8.48,8.48h-37.32c-4.68,0-8.48-3.8-8.48-8.48v-10.18
			c0-4.68,3.8-8.48,8.48-8.48h37.32C216.87,328.38,220.67,332.18,220.67,336.86z"/>
	</g>
	<g>
		<path class="st3" d="M303.07,336.86v10.18c0,4.68,3.8,8.48,8.48,8.48h37.32c4.68,0,8.48-3.8,8.48-8.48v-10.18
			c0-4.68-3.8-8.48-8.48-8.48h-37.32C306.87,328.38,303.07,332.18,303.07,336.86z"/>
	</g>
	<path class="st2" d="M255.51,119.31h12.72v273.38h-12.72V119.31z"/>
</g>
</svg>
