<?xml version="1.0" encoding="utf-8"?>
<!-- Generator: Adobe Illustrator 25.1.0, SVG Export Plug-In . SVG Version: 6.00 Build 0)  -->
<svg version="1.1" id="Layer_1" xmlns="http://www.w3.org/2000/svg" xmlns:xlink="http://www.w3.org/1999/xlink" x="0px" y="0px"
	 viewBox="0 0 512 512" style="enable-background:new 0 0 512 512;" xml:space="preserve">
<style type="text/css">
	.st0{fill:#92D7E7;}
	.st1{fill:#105C6E;}
	.st2{fill:#26879C;}
	.st3{fill:#DE513C;}
	.st4{fill:#FC6249;}
	.st5{fill:#E0DFD4;}
	.st6{fill:#F4F2E6;}
	.st7{fill:#FAB400;}
	.st8{fill:#DC9600;}
	.st9{fill:#C80A50;}
	.st10{fill:#F0C8A0;}
	.st11{fill:#0A5078;}
	.st12{fill:#F0F0F0;}
	.st13{fill:#00A0C8;}
	.st14{fill:#00325A;}
	.st15{fill:#0082AA;}
</style>
<circle class="st0" cx="256" cy="256" r="243.05"/>
<g>
	<path class="st1" d="M296.96,106.05L285.3,94.36c-2.71-2.71-6.3-4.2-10.13-4.2c-3.83,0-7.43,1.49-10.13,4.2l-8.45,8.47
		c-5.56,5.58-5.56,14.65,0,20.22l11.69,11.71c1.14,1.15,2.64,1.72,4.14,1.72c1.5,0,2.99-0.57,4.13-1.71
		c2.29-2.28,18.13-18.17,20.41-20.45C299.24,112.04,299.24,108.34,296.96,106.05z"/>
	<path class="st2" d="M338.33,67.59c-3.23,0-5.85,2.62-5.85,5.85v18.72c0,3.23,2.62,5.85,5.85,5.85c3.23,0,5.85-2.62,5.85-5.85
		V73.44C344.18,70.21,341.56,67.59,338.33,67.59z"/>
	<path class="st3" d="M352.76,66.42H323.9c-3.23,0-5.85,2.62-5.85,5.85s2.62,5.85,5.85,5.85h28.87c3.23,0,5.85-2.62,5.85-5.85
		S355.99,66.42,352.76,66.42z"/>
	<path class="st4" d="M338.33,66.42H323.9c-3.23,0-5.85,2.62-5.85,5.85s2.62,5.85,5.85,5.85h14.43V66.42z"/>
	<path class="st3" d="M401.78,112.69c-16.95-16.98-39.48-26.33-63.45-26.33s-46.5,9.35-63.45,26.33
		c-16.94,16.98-26.27,39.55-26.27,63.56s9.33,46.58,26.27,63.56c16.95,16.98,39.48,26.33,63.45,26.33c23.97,0,46.5-9.35,63.45-26.33
		c16.94-16.98,26.27-39.55,26.27-63.56S418.72,129.66,401.78,112.69z"/>
	<path class="st4" d="M338.33,86.35c-23.97,0-46.5,9.35-63.45,26.33c-16.94,16.98-26.27,39.55-26.27,63.56s9.33,46.58,26.27,63.56
		c16.95,16.98,39.48,26.33,63.45,26.33V86.35z"/>
	<path class="st5" d="M338.33,108.75c-37.14,0-67.36,30.28-67.36,67.49s30.22,67.49,67.36,67.49s67.36-30.28,67.36-67.49
		S375.47,108.75,338.33,108.75z"/>
	<path class="st6" d="M338.33,108.75c-37.14,0-67.36,30.28-67.36,67.49s30.22,67.49,67.36,67.49V108.75z"/>
	<g>
		<path class="st1" d="M338.33,123.37c3.23,0,5.85-2.62,5.85-5.85v-8.51c-1.93-0.17-3.88-0.26-5.85-0.26
			c-1.97,0-3.92,0.09-5.85,0.26v8.51C332.48,120.75,335.1,123.37,338.33,123.37z"/>
		<path class="st1" d="M338.33,229.12c-3.23,0-5.85,2.62-5.85,5.85v8.51c1.93,0.17,3.88,0.26,5.85,0.26c1.97,0,3.92-0.09,5.85-0.26
			v-8.51C344.18,231.74,341.56,229.12,338.33,229.12z"/>
		<path class="st1" d="M405.44,170.39h-8.38c-3.23,0-5.85,2.62-5.85,5.85s2.62,5.85,5.85,5.85h8.38c0.17-1.93,0.26-3.88,0.26-5.85
			S405.6,172.32,405.44,170.39z"/>
		<path class="st1" d="M285.45,176.25c0-3.23-2.62-5.85-5.85-5.85h-8.38c-0.17,1.93-0.26,3.88-0.26,5.85s0.09,3.92,0.26,5.85h8.38
			C282.84,182.1,285.45,179.48,285.45,176.25z"/>
		<path class="st1" d="M352.76,172.87h-8.25V149.2c0-3.23-2.62-5.85-5.85-5.85c-3.23,0-5.85,2.62-5.85,5.85v29.52
			c0,3.23,2.62,5.85,5.85,5.85h14.11c3.23,0,5.85-2.62,5.85-5.85S355.99,172.87,352.76,172.87z"/>
	</g>
</g>
<g id="Icons">
	<g>
		<g>
			<g>
				<g>
					<g>
						<path class="st7" d="M129.71,406.54h105.92l40.74-40.74V210.99c0-9-7.3-16.3-16.3-16.3H129.71c-9,0-16.3,7.3-16.3,16.3v179.25
							C113.42,399.24,120.71,406.54,129.71,406.54z"/>
					</g>
				</g>
			</g>
		</g>
		<g>
			<g>
				<g>
					<g>
						<g>
							<path class="st8" d="M256,308.76H133.79c-2.25,0-4.07-1.83-4.07-4.07s1.83-4.07,4.07-4.07H256c2.25,0,4.07,1.83,4.07,4.07
								S258.25,308.76,256,308.76z"/>
						</g>
					</g>
				</g>
			</g>
			<g>
				<g>
					<g>
						<g>
							<path class="st8" d="M256,325.06H133.79c-2.25,0-4.07-1.83-4.07-4.07s1.83-4.07,4.07-4.07H256c2.25,0,4.07,1.83,4.07,4.07
								S258.25,325.06,256,325.06z"/>
						</g>
					</g>
				</g>
			</g>
			<g>
				<g>
					<g>
						<g>
							<path class="st8" d="M256,341.35H133.79c-2.25,0-4.07-1.83-4.07-4.07s1.83-4.07,4.07-4.07H256c2.25,0,4.07,1.83,4.07,4.07
								S258.25,341.35,256,341.35z"/>
						</g>
					</g>
				</g>
			</g>
			<g>
				<g>
					<g>
						<g>
							<path class="st8" d="M256,357.65H133.79c-2.25,0-4.07-1.83-4.07-4.07c0-2.25,1.83-4.07,4.07-4.07H256
								c2.25,0,4.07,1.83,4.07,4.07C260.08,355.82,258.25,357.65,256,357.65z"/>
						</g>
					</g>
				</g>
			</g>
		</g>
		<g>
			<path class="st8" d="M146.01,243.58h-16.3c-2.25,0-4.07,1.83-4.07,4.07s1.83,4.07,4.07,4.07h16.3c2.24,0,4.07,1.83,4.07,4.07
				v4.07h-12.22c-6.74,0-12.22,5.48-12.22,12.22s5.48,12.22,12.22,12.22h16.3c2.25,0,4.07-1.83,4.07-4.07V255.8
				C158.23,249.06,152.75,243.58,146.01,243.58z M150.08,276.17h-12.22c-2.24,0-4.07-1.83-4.07-4.07c0-2.24,1.83-4.07,4.07-4.07
				h12.22V276.17z"/>
			<path class="st8" d="M194.89,259.88h-4.07v-4.07c0-2.25-1.83-4.07-4.07-4.07c-2.25,0-4.07,1.83-4.07,4.07v4.07h-4.07
				c-2.25,0-4.07,1.83-4.07,4.07s1.83,4.07,4.07,4.07h4.07v4.07c0,2.25,1.83,4.07,4.07,4.07c2.25,0,4.07-1.83,4.07-4.07v-4.07h4.07
				c2.25,0,4.07-1.83,4.07-4.07S197.14,259.88,194.89,259.88z"/>
			<path class="st8" d="M219.34,243.58h-4.07v-12.22c0-2.25-1.82-4.07-4.07-4.07s-4.07,1.83-4.07,4.07v48.89
				c0,2.25,1.82,4.07,4.07,4.07h8.15c11.23,0,20.37-9.14,20.37-20.37C239.71,252.72,230.57,243.58,219.34,243.58z M219.34,276.17
				h-4.07v-24.44h4.07c6.74,0,12.22,5.48,12.22,12.22S226.08,276.17,219.34,276.17z"/>
			<path class="st8" d="M182.67,243.58c0-2.25-1.83-4.07-4.07-4.07h-12.11c0.28-1.15,1.04-2.13,2.14-2.68l9.54-4.77
				c2.77-1.39,4.5-4.18,4.5-7.29v-1.56c0-4.49-3.65-8.15-8.15-8.15H162.3c-2.25,0-4.07,1.83-4.07,4.07s1.83,4.07,4.07,4.07h12.22
				v1.56l-9.54,4.77c-4.17,2.08-6.75,6.27-6.75,10.93v3.11c0,2.25,1.83,4.07,4.07,4.07h16.3
				C180.85,247.65,182.67,245.83,182.67,243.58z"/>
			<path class="st8" d="M250.11,236.83l9.54-4.77c2.77-1.39,4.5-4.18,4.5-7.29v-1.56c0-4.49-3.65-8.15-8.15-8.15h-12.22
				c-2.25,0-4.07,1.83-4.07,4.07s1.82,4.07,4.07,4.07H256v1.56l-9.54,4.77c-4.16,2.08-6.75,6.27-6.75,10.93v3.11
				c0,2.25,1.82,4.07,4.07,4.07h16.3c2.25,0,4.07-1.83,4.07-4.07s-1.82-4.07-4.07-4.07h-12.11
				C248.25,238.35,249.01,237.37,250.11,236.83z"/>
		</g>
		<g>
			<g>
				<g>
					<g>
						<path class="st8" d="M276.37,365.8h-24.44c-9,0-16.3,7.3-16.3,16.3v24.44L276.37,365.8z"/>
					</g>
				</g>
			</g>
		</g>
		<g>
			<g>
				<g>
					<g>
						<g>
							<path class="st9" d="M284.52,259.88h32.59v130.36h-32.59V259.88z"/>
						</g>
					</g>
				</g>
			</g>
			<g>
				<g>
					<g>
						<g>
							<path class="st10" d="M317.11,390.24h-32.59l8.15,16.3h16.3L317.11,390.24z"/>
						</g>
					</g>
				</g>
			</g>
			<g>
				<g>
					<g>
						<g>
							<path class="st11" d="M292.67,406.54l4.51,9.01c1.5,3,5.78,3,7.29,0l4.5-9.01H292.67z"/>
						</g>
					</g>
				</g>
			</g>
			<g>
				<g>
					<g>
						<g>
							<path class="st12" d="M284.52,251.73h32.59v8.15h-32.59V251.73z"/>
						</g>
					</g>
				</g>
			</g>
			<g>
				<g>
					<g>
						<g>
							<path class="st11" d="M308.96,227.28h-16.3c-4.5,0-8.15,3.65-8.15,8.15v16.3h32.59v-16.3
								C317.11,230.93,313.46,227.28,308.96,227.28z"/>
						</g>
					</g>
				</g>
			</g>
		</g>
		<g>
			<g>
				<g>
					<g>
						<g>
							<path class="st8" d="M190.82,276.17h-77.4v114.07c0,9,7.3,16.3,16.3,16.3h69.26V284.32
								C198.97,279.82,195.32,276.17,190.82,276.17z"/>
						</g>
					</g>
				</g>
			</g>
			<g>
				<g>
					<g>
						<g>
							<path class="st13" d="M186.75,276.17H97.12c-4.5,0-8.15,3.65-8.15,8.15v130.36c0,4.5,3.65,8.15,8.15,8.15h89.63
								c4.5,0,8.15-3.65,8.15-8.15V284.32C194.89,279.82,191.25,276.17,186.75,276.17z"/>
						</g>
					</g>
				</g>
			</g>
			<g>
				<g>
					<g>
						<g>
							<path class="st11" d="M182.67,284.32h-81.48c-2.25,0-4.07,1.83-4.07,4.07v24.44c0,2.25,1.83,4.07,4.07,4.07h81.48
								c2.25,0,4.07-1.83,4.07-4.07v-24.44C186.75,286.14,184.92,284.32,182.67,284.32z"/>
						</g>
					</g>
				</g>
			</g>
			<g>
				<g>
					<g>
						<g>
							<path class="st14" d="M182.67,284.32h-81.48c-2.25,0-4.07,1.83-4.07,4.07v4.07c0-2.25,1.83-4.07,4.07-4.07h81.48
								c2.25,0,4.07,1.83,4.07,4.07v-4.07C186.75,286.14,184.92,284.32,182.67,284.32z"/>
						</g>
					</g>
				</g>
			</g>
			<g>
				<g>
					<g>
						<g>
							<g>
								<path class="st15" d="M109.34,329.13h-8.15c-2.25,0-4.07,1.83-4.07,4.07v8.15c0,2.25,1.83,4.07,4.07,4.07h8.15
									c2.25,0,4.07-1.83,4.07-4.07v-8.15C113.42,330.96,111.59,329.13,109.34,329.13z"/>
							</g>
						</g>
					</g>
				</g>
				<g>
					<g>
						<g>
							<g>
								<path class="st15" d="M133.79,329.13h-8.15c-2.25,0-4.07,1.83-4.07,4.07v8.15c0,2.25,1.83,4.07,4.07,4.07h8.15
									c2.25,0,4.07-1.83,4.07-4.07v-8.15C137.86,330.96,136.03,329.13,133.79,329.13z"/>
							</g>
						</g>
					</g>
				</g>
				<g>
					<g>
						<g>
							<g>
								<path class="st15" d="M158.23,329.13h-8.15c-2.25,0-4.07,1.83-4.07,4.07v8.15c0,2.25,1.83,4.07,4.07,4.07h8.15
									c2.25,0,4.07-1.83,4.07-4.07v-8.15C162.3,330.96,160.48,329.13,158.23,329.13z"/>
							</g>
						</g>
					</g>
				</g>
				<g>
					<g>
						<g>
							<g>
								<path class="st15" d="M182.67,329.13h-8.15c-2.25,0-4.07,1.83-4.07,4.07v8.15c0,2.25,1.83,4.07,4.07,4.07h8.15
									c2.25,0,4.07-1.83,4.07-4.07v-8.15C186.75,330.96,184.92,329.13,182.67,329.13z"/>
							</g>
						</g>
					</g>
				</g>
				<g>
					<g>
						<g>
							<g>
								<path class="st15" d="M109.34,353.57h-8.15c-2.25,0-4.07,1.83-4.07,4.07v8.15c0,2.25,1.83,4.07,4.07,4.07h8.15
									c2.25,0,4.07-1.83,4.07-4.07v-8.15C113.42,355.4,111.59,353.57,109.34,353.57z"/>
							</g>
						</g>
					</g>
				</g>
				<g>
					<g>
						<g>
							<g>
								<path class="st15" d="M133.79,353.57h-8.15c-2.25,0-4.07,1.83-4.07,4.07v8.15c0,2.25,1.83,4.07,4.07,4.07h8.15
									c2.25,0,4.07-1.83,4.07-4.07v-8.15C137.86,355.4,136.03,353.57,133.79,353.57z"/>
							</g>
						</g>
					</g>
				</g>
				<g>
					<g>
						<g>
							<g>
								<path class="st15" d="M158.23,353.57h-8.15c-2.25,0-4.07,1.83-4.07,4.07v8.15c0,2.25,1.83,4.07,4.07,4.07h8.15
									c2.25,0,4.07-1.83,4.07-4.07v-8.15C162.3,355.4,160.48,353.57,158.23,353.57z"/>
							</g>
						</g>
					</g>
				</g>
				<g>
					<g>
						<g>
							<g>
								<path class="st15" d="M182.67,353.57h-8.15c-2.25,0-4.07,1.83-4.07,4.07v8.15c0,2.25,1.83,4.07,4.07,4.07h8.15
									c2.25,0,4.07-1.83,4.07-4.07v-8.15C186.75,355.4,184.92,353.57,182.67,353.57z"/>
							</g>
						</g>
					</g>
				</g>
				<g>
					<g>
						<g>
							<g>
								<path class="st15" d="M109.34,378.02h-8.15c-2.25,0-4.07,1.83-4.07,4.07v8.15c0,2.25,1.83,4.07,4.07,4.07h8.15
									c2.25,0,4.07-1.83,4.07-4.07v-8.15C113.42,379.84,111.59,378.02,109.34,378.02z"/>
							</g>
						</g>
					</g>
				</g>
				<g>
					<g>
						<g>
							<g>
								<path class="st15" d="M133.79,378.02h-8.15c-2.25,0-4.07,1.83-4.07,4.07v8.15c0,2.25,1.83,4.07,4.07,4.07h8.15
									c2.25,0,4.07-1.83,4.07-4.07v-8.15C137.86,379.84,136.03,378.02,133.79,378.02z"/>
							</g>
						</g>
					</g>
				</g>
				<g>
					<g>
						<g>
							<g>
								<path class="st15" d="M158.23,378.02h-8.15c-2.25,0-4.07,1.83-4.07,4.07v8.15c0,2.25,1.83,4.07,4.07,4.07h8.15
									c2.25,0,4.07-1.83,4.07-4.07v-8.15C162.3,379.84,160.48,378.02,158.23,378.02z"/>
							</g>
						</g>
					</g>
				</g>
				<g>
					<g>
						<g>
							<g>
								<path class="st15" d="M182.67,378.02h-8.15c-2.25,0-4.07,1.83-4.07,4.07v32.59c0,2.25,1.83,4.07,4.07,4.07h8.15
									c2.25,0,4.07-1.83,4.07-4.07v-32.59C186.75,379.84,184.92,378.02,182.67,378.02z"/>
							</g>
						</g>
					</g>
				</g>
				<g>
					<g>
						<g>
							<g>
								<path class="st15" d="M109.34,402.46h-8.15c-2.25,0-4.07,1.83-4.07,4.07v8.15c0,2.25,1.83,4.07,4.07,4.07h8.15
									c2.25,0,4.07-1.83,4.07-4.07v-8.15C113.42,404.29,111.59,402.46,109.34,402.46z"/>
							</g>
						</g>
					</g>
				</g>
				<g>
					<g>
						<g>
							<g>
								<path class="st15" d="M133.79,402.46h-8.15c-2.25,0-4.07,1.83-4.07,4.07v8.15c0,2.25,1.83,4.07,4.07,4.07h8.15
									c2.25,0,4.07-1.83,4.07-4.07v-8.15C137.86,404.29,136.03,402.46,133.79,402.46z"/>
							</g>
						</g>
					</g>
				</g>
				<g>
					<g>
						<g>
							<g>
								<path class="st15" d="M158.23,402.46h-8.15c-2.25,0-4.07,1.83-4.07,4.07v8.15c0,2.25,1.83,4.07,4.07,4.07h8.15
									c2.25,0,4.07-1.83,4.07-4.07v-8.15C162.3,404.29,160.48,402.46,158.23,402.46z"/>
							</g>
						</g>
					</g>
				</g>
			</g>
			<g>
				<g>
					<g>
						<g>
							<path class="st7" d="M109.34,325.06h-8.15c-2.25,0-4.07,1.83-4.07,4.07v8.15c0,2.25,1.83,4.07,4.07,4.07h8.15
								c2.25,0,4.07-1.83,4.07-4.07v-8.15C113.42,326.88,111.59,325.06,109.34,325.06z"/>
						</g>
					</g>
				</g>
			</g>
			<g>
				<g>
					<g>
						<g>
							<path class="st7" d="M133.79,325.06h-8.15c-2.25,0-4.07,1.83-4.07,4.07v8.15c0,2.25,1.83,4.07,4.07,4.07h8.15
								c2.25,0,4.07-1.83,4.07-4.07v-8.15C137.86,326.88,136.03,325.06,133.79,325.06z"/>
						</g>
					</g>
				</g>
			</g>
			<g>
				<g>
					<g>
						<g>
							<path class="st7" d="M158.23,325.06h-8.15c-2.25,0-4.07,1.83-4.07,4.07v8.15c0,2.25,1.83,4.07,4.07,4.07h8.15
								c2.25,0,4.07-1.83,4.07-4.07v-8.15C162.3,326.88,160.48,325.06,158.23,325.06z"/>
						</g>
					</g>
				</g>
			</g>
			<g>
				<g>
					<g>
						<g>
							<path class="st7" d="M182.67,325.06h-8.15c-2.25,0-4.07,1.83-4.07,4.07v8.15c0,2.25,1.83,4.07,4.07,4.07h8.15
								c2.25,0,4.07-1.83,4.07-4.07v-8.15C186.75,326.88,184.92,325.06,182.67,325.06z"/>
						</g>
					</g>
				</g>
			</g>
			<g>
				<g>
					<g>
						<g>
							<path class="st12" d="M109.34,349.5h-8.15c-2.25,0-4.07,1.83-4.07,4.07v8.15c0,2.25,1.83,4.07,4.07,4.07h8.15
								c2.25,0,4.07-1.83,4.07-4.07v-8.15C113.42,351.33,111.59,349.5,109.34,349.5z"/>
						</g>
					</g>
				</g>
			</g>
			<g>
				<g>
					<g>
						<g>
							<path class="st12" d="M133.79,349.5h-8.15c-2.25,0-4.07,1.83-4.07,4.07v8.15c0,2.25,1.83,4.07,4.07,4.07h8.15
								c2.25,0,4.07-1.83,4.07-4.07v-8.15C137.86,351.33,136.03,349.5,133.79,349.5z"/>
						</g>
					</g>
				</g>
			</g>
			<g>
				<g>
					<g>
						<g>
							<path class="st12" d="M158.23,349.5h-8.15c-2.25,0-4.07,1.83-4.07,4.07v8.15c0,2.25,1.83,4.07,4.07,4.07h8.15
								c2.25,0,4.07-1.83,4.07-4.07v-8.15C162.3,351.33,160.48,349.5,158.23,349.5z"/>
						</g>
					</g>
				</g>
			</g>
			<g>
				<g>
					<g>
						<g>
							<path class="st12" d="M182.67,349.5h-8.15c-2.25,0-4.07,1.83-4.07,4.07v8.15c0,2.25,1.83,4.07,4.07,4.07h8.15
								c2.25,0,4.07-1.83,4.07-4.07v-8.15C186.75,351.33,184.92,349.5,182.67,349.5z"/>
						</g>
					</g>
				</g>
			</g>
			<g>
				<g>
					<g>
						<g>
							<path class="st12" d="M109.34,373.94h-8.15c-2.25,0-4.07,1.83-4.07,4.07v8.15c0,2.25,1.83,4.07,4.07,4.07h8.15
								c2.25,0,4.07-1.83,4.07-4.07v-8.15C113.42,375.77,111.59,373.94,109.34,373.94z"/>
						</g>
					</g>
				</g>
			</g>
			<g>
				<g>
					<g>
						<g>
							<path class="st12" d="M133.79,373.94h-8.15c-2.25,0-4.07,1.83-4.07,4.07v8.15c0,2.25,1.83,4.07,4.07,4.07h8.15
								c2.25,0,4.07-1.83,4.07-4.07v-8.15C137.86,375.77,136.03,373.94,133.79,373.94z"/>
						</g>
					</g>
				</g>
			</g>
			<g>
				<g>
					<g>
						<g>
							<path class="st12" d="M158.23,373.94h-8.15c-2.25,0-4.07,1.83-4.07,4.07v8.15c0,2.25,1.83,4.07,4.07,4.07h8.15
								c2.25,0,4.07-1.83,4.07-4.07v-8.15C162.3,375.77,160.48,373.94,158.23,373.94z"/>
						</g>
					</g>
				</g>
			</g>
			<g>
				<g>
					<g>
						<g>
							<path class="st9" d="M182.67,373.94h-8.15c-2.25,0-4.07,1.83-4.07,4.07v32.59c0,2.25,1.83,4.07,4.07,4.07h8.15
								c2.25,0,4.07-1.83,4.07-4.07v-32.59C186.75,375.77,184.92,373.94,182.67,373.94z"/>
						</g>
					</g>
				</g>
			</g>
			<g>
				<g>
					<g>
						<g>
							<path class="st12" d="M109.34,398.39h-8.15c-2.25,0-4.07,1.83-4.07,4.07v8.15c0,2.25,1.83,4.07,4.07,4.07h8.15
								c2.25,0,4.07-1.83,4.07-4.07v-8.15C113.42,400.21,111.59,398.39,109.34,398.39z"/>
						</g>
					</g>
				</g>
			</g>
			<g>
				<g>
					<g>
						<g>
							<path class="st12" d="M133.79,398.39h-8.15c-2.25,0-4.07,1.83-4.07,4.07v8.15c0,2.25,1.83,4.07,4.07,4.07h8.15
								c2.25,0,4.07-1.83,4.07-4.07v-8.15C137.86,400.21,136.03,398.39,133.79,398.39z"/>
						</g>
					</g>
				</g>
			</g>
			<g>
				<g>
					<g>
						<g>
							<path class="st12" d="M158.23,398.39h-8.15c-2.25,0-4.07,1.83-4.07,4.07v8.15c0,2.25,1.83,4.07,4.07,4.07h8.15
								c2.25,0,4.07-1.83,4.07-4.07v-8.15C162.3,400.21,160.48,398.39,158.23,398.39z"/>
						</g>
					</g>
				</g>
			</g>
		</g>
	</g>
</g>
</svg>
