<?xml version="1.0" encoding="utf-8"?>
<!-- Generator: Adobe Illustrator 25.1.0, SVG Export Plug-In . SVG Version: 6.00 Build 0)  -->
<svg version="1.1" id="Layer_1" xmlns="http://www.w3.org/2000/svg" xmlns:xlink="http://www.w3.org/1999/xlink" x="0px" y="0px"
	 viewBox="0 0 512 512" style="enable-background:new 0 0 512 512;" xml:space="preserve">
<style type="text/css">
	.st0{fill:#B55232;}
	.st1{fill:#00BBD6;}
	.st2{fill:#FCBC86;}
	.st3{fill:#FED2A5;}
	.st4{fill:#F6A96C;}
	.st5{fill:#F99F1B;}
	.st6{fill:#EB9C59;}
	.st7{fill:#E7EAED;}
	.st8{fill:#CED4DA;}
	.st9{fill:#824737;}
	.st10{fill:#64362B;}
	.st11{fill:#414042;}
	.st12{fill:#EDEBEC;}
	.st13{fill:#FFD074;}
</style>
<circle class="st0" cx="256" cy="256" r="243.05"/>
<path class="st1" d="M403.43,62.77L104.11,445.8C-1.66,363.14-20.39,210.4,62.26,104.63S297.65-19.88,403.43,62.77z"/>
<g>
	<path class="st2" d="M368.37,384.17c-15.31,6.93-34.1,21.48-36.94,38.77c-0.49,3.33-1.38,6.52-2.59,9.73
		c-7.97,21.17-29.1,34.22-50.57,32.72l85.36-226.66c40.6,15.29,61.23,60.85,45.94,101.45C402.15,359.87,387.55,375.49,368.37,384.17
		z"/>
	<g>
		<path class="st3" d="M409.57,340.18c15.29-40.6-5.34-86.16-45.94-101.45s-86.16,5.34-101.45,45.94
			c-7.01,18.62-10.44,38.29-13.8,57.37c-3.29,18.5-6.77,37.89-13.33,55.31c-9.74,25.86,3.21,55.26,29.07,65
			c4.69,1.77,9.36,2.76,14.16,3.04c21.46,1.5,42.6-11.55,50.57-32.72c1.21-3.22,2.1-6.4,2.59-9.73
			c2.84-17.29,21.63-31.84,36.94-38.77C387.55,375.49,402.15,359.87,409.57,340.18z"/>
		<path class="st4" d="M385.58,319.36c2.93-19.55-6.55-39.49-23.64-49.75c-2.75-1.65-5.59-3.02-8.41-4.08
			c-25.59-9.64-54.72,3.11-64.56,29.23c-8.12,21.57-11.01,45.88-15.72,70.58c-2.51,12.36,4.22,24.54,15.88,28.93
			c5.09,1.92,10.57,1.99,15.7,0.56c5.95-1.58,11.35-5.36,14.83-10.94l2.86-4.74c8.55-13.76,9.66-29.71,4.62-43.55
			c-4.46-12.54-13.88-23.28-27.16-29.04c0.72-2.33,1.53-4.47,2.39-6.75c6.86-18.22,27.35-27.95,46.11-20.88
			c2.01,0.76,4.1,1.7,6.1,2.91c11.96,7.26,18.87,21.79,16.81,35.4c-1.84,12.62-9.43,22.61-20.73,27.84l5.93,13.1
			C372.13,351.02,382.93,336.57,385.58,319.36z"/>
		<g>
			<g>
				<g>
					<path class="st5" d="M431.91,263.08c-0.03-11.47-3.25-22.63-10.37-31.71c-6.38-8.13-15.85-13.59-25.86-15.91
						c-6.31-1.46-12.86-1.85-19.31-1.29c-2.6,0.22-5.13,2.14-5,5c0.11,2.52,2.21,5.24,5,5c2.71-0.23,5.44-0.31,8.16-0.2
						c1.2,0.05,2.39,0.14,3.58,0.27c0.32,0.03,0.64,0.07,0.96,0.11c1.15,0.13-1.2-0.19-0.06-0.01c0.68,0.11,1.35,0.22,2.02,0.34
						c2.36,0.45,4.7,1.06,6.97,1.86c0.57,0.2,1.13,0.41,1.68,0.63c0.33,0.13,1.19,0.62-0.1-0.05c0.17,0.09,0.37,0.16,0.54,0.24
						c1.16,0.51,2.3,1.08,3.41,1.7c0.93,0.52,1.84,1.07,2.72,1.65c0.48,0.32,0.95,0.65,1.42,0.98c0.15,0.11,0.31,0.23,0.46,0.34
						c0.71,0.51-0.95-0.76,0.12,0.1c1.78,1.44,3.43,3.03,4.93,4.76c0.31,0.36,0.62,0.73,0.92,1.1c0.26,0.32,0.59,1.07-0.07-0.1
						c0.14,0.24,0.35,0.47,0.51,0.7c0.68,0.94,1.32,1.92,1.91,2.92c0.58,0.97,1.11,1.97,1.61,2.99c0.24,0.49,0.46,0.99,0.69,1.49
						c0.45,1-0.43-1.1-0.04-0.08c0.15,0.38,0.3,0.75,0.44,1.13c0.95,2.56,1.65,5.21,2.13,7.9c0.06,0.32,0.11,0.64,0.16,0.97
						c0.03,0.22,0.07,0.43,0.1,0.65c-0.1-0.78-0.12-0.9-0.05-0.34c0.08,0.67,0.15,1.34,0.21,2.01c0.14,1.62,0.2,3.24,0.2,4.86
						c0.01,2.62,2.29,5.12,5,5C429.61,267.96,431.91,265.88,431.91,263.08L431.91,263.08z"/>
				</g>
			</g>
		</g>
		<g>
			<g>
				<g>
					<path class="st5" d="M457.87,260.35c-0.03-16.74-4.68-33.12-15.1-46.37c-9.37-11.93-23.24-19.85-37.92-23.24
						c-9.32-2.15-18.98-2.68-28.5-1.86c-2.6,0.23-5.13,2.14-5,5c0.11,2.52,2.21,5.24,5,5c4.08-0.35,8.17-0.47,12.26-0.3
						c1.96,0.08,3.92,0.23,5.87,0.45c0.48,0.05,0.96,0.12,1.44,0.17c0.73,0.08-1.31-0.19-0.22-0.03c0.21,0.03,0.42,0.06,0.63,0.09
						c0.94,0.14,1.87,0.3,2.81,0.48c3.63,0.68,7.2,1.63,10.69,2.85c0.85,0.3,1.69,0.61,2.53,0.94c0.37,0.15,0.73,0.32,1.1,0.45
						c-1.46-0.49,0.04,0.03,0.44,0.2c1.61,0.72,3.18,1.51,4.73,2.36c1.52,0.84,3.01,1.74,4.46,2.71c0.72,0.48,1.43,0.97,2.12,1.48
						c0.31,0.23,0.61,0.46,0.92,0.69c0.66,0.49-0.28-0.21-0.33-0.26c0.2,0.19,0.46,0.36,0.67,0.54c2.67,2.16,5.15,4.55,7.41,7.14
						c0.57,0.65,1.12,1.31,1.65,1.99c0.12,0.15,0.23,0.31,0.36,0.45c-0.05-0.06-0.74-0.98-0.26-0.33c0.29,0.39,0.58,0.77,0.86,1.16
						c1.02,1.42,1.97,2.88,2.86,4.39c0.9,1.53,1.74,3.09,2.5,4.69c0.37,0.77,0.71,1.55,1.05,2.32c0.29,0.64-0.48-1.2-0.09-0.22
						c0.07,0.19,0.15,0.37,0.23,0.56c0.19,0.47,0.37,0.95,0.55,1.42c1.47,3.94,2.55,8.02,3.28,12.16c0.09,0.54,0.18,1.08,0.27,1.62
						c0.04,0.27,0.07,0.55,0.12,0.82c0.11,0.64-0.14-1.12-0.02-0.18c0.14,1.17,0.27,2.34,0.37,3.52c0.2,2.37,0.29,4.75,0.29,7.13
						c0.01,2.62,2.3,5.12,5,5C455.58,265.23,457.88,263.15,457.87,260.35L457.87,260.35z"/>
				</g>
			</g>
		</g>
		<g>
			<g>
				<g>
					<path class="st5" d="M485.17,256.95c-0.02-11.68-1.57-23.49-5.21-34.62c-3.38-10.35-8.46-19.93-15.18-28.49
						c-6.3-8.02-14.14-14.83-22.83-20.16c-9.03-5.53-19.1-9.48-29.41-11.84c-11.24-2.57-22.89-3.42-34.39-2.79
						c-1.51,0.08-3.02,0.19-4.52,0.33c-2.6,0.23-5.13,2.14-5,5c0.11,2.51,2.21,5.24,5,5c5.67-0.5,11.37-0.66,17.06-0.42
						c2.78,0.12,5.56,0.33,8.33,0.64c0.64,0.07,1.28,0.16,1.92,0.23c0.57,0.07-0.56-0.08-0.53-0.07c0.15,0.04,0.32,0.04,0.48,0.07
						c0.37,0.05,0.74,0.11,1.11,0.16c1.31,0.2,2.61,0.42,3.91,0.66c5.05,0.95,10.03,2.27,14.87,3.97c1.23,0.43,2.45,0.89,3.66,1.37
						c0.28,0.11,0.55,0.22,0.83,0.34c0.18,0.07,1.13,0.47,0.37,0.15c-0.77-0.32,0.18,0.08,0.36,0.16c0.32,0.14,0.63,0.28,0.95,0.42
						c2.24,1,4.43,2.1,6.58,3.28c2.12,1.17,4.19,2.43,6.2,3.77c1,0.67,1.98,1.36,2.95,2.07c0.46,0.34,0.92,0.69,1.38,1.03
						c0.25,0.19-0.87-0.69-0.1-0.08c0.26,0.21,0.53,0.42,0.79,0.63c3.76,3.03,7.25,6.39,10.41,10.04c0.79,0.91,1.55,1.83,2.3,2.77
						c0.09,0.11,0.18,0.23,0.27,0.34c0.34,0.42-0.37-0.48-0.34-0.44c0.17,0.23,0.35,0.46,0.53,0.69c0.38,0.5,0.75,1.01,1.11,1.52
						c1.42,1.97,2.74,4.01,3.98,6.1c1.28,2.17,2.47,4.39,3.55,6.67c0.26,0.54,0.51,1.09,0.76,1.63c0.12,0.27,0.25,0.55,0.37,0.82
						c0.09,0.2,0.53,1.27,0.23,0.51c-0.31-0.76,0.08,0.2,0.16,0.38c0.12,0.28,0.23,0.56,0.34,0.85c0.24,0.61,0.48,1.23,0.71,1.85
						c1.83,4.92,3.23,10,4.23,15.15c0.27,1.39,0.51,2.79,0.73,4.19c0.05,0.33,0.1,0.65,0.15,0.98c0.02,0.16,0.04,0.33,0.07,0.49
						c0.08,0.57-0.07-0.52-0.07-0.5c0.07,0.72,0.18,1.44,0.26,2.16c0.31,2.84,0.52,5.7,0.62,8.55c0.05,1.47,0.08,2.94,0.08,4.41
						c0,2.62,2.3,5.12,5,5C482.88,261.83,485.18,259.75,485.17,256.95L485.17,256.95z"/>
				</g>
			</g>
		</g>
	</g>
	<g>
		<path class="st6" d="M327.15,335.6c5.04,13.83,3.93,29.78-4.62,43.55l-2.86,4.74c-3.48,5.57-8.88,9.35-14.83,10.94L327.15,335.6
			L327.15,335.6z"/>
		<path class="st6" d="M356.59,358.17l-5.93-13.1c11.3-5.23,18.89-15.22,20.73-27.84c2.06-13.6-4.85-28.14-16.81-35.4
			c-1.99-1.21-4.08-2.15-6.09-2.91l5.05-13.4c2.81,1.06,5.66,2.44,8.41,4.08c17.09,10.26,26.57,30.2,23.64,49.75
			C382.93,336.57,372.13,351.02,356.59,358.17z"/>
	</g>
</g>
<g>
	<path class="st7" d="M54.73,177.54c56.68,95.35,184.67,95.35,241.35,0c0.46-0.77,0.46-1.73,0-2.49
		c-56.68-95.35-184.67-95.35-241.35,0C54.28,175.81,54.28,176.78,54.73,177.54z"/>
	<path class="st8" d="M296.09,177.54c-30.8,51.81-82.65,75.47-132.67,70.97c42.04-3.77,82.8-27.43,108.68-70.97
		c0.46-0.76,0.46-1.73,0-2.49c-25.88-43.54-66.64-67.2-108.68-70.97c50.03-4.5,101.87,19.16,132.67,70.97
		C296.54,175.81,296.54,176.78,296.09,177.54z"/>
	<circle class="st9" cx="175.41" cy="176.3" r="71.31"/>
	<path class="st10" d="M246.72,176.29c0,39.38-31.92,71.31-71.31,71.31c-3.98,0-7.89-0.33-11.7-0.96
		c33.82-5.58,59.61-34.95,59.61-70.35s-25.79-64.77-59.61-70.35c3.81-0.63,7.72-0.96,11.7-0.96
		C214.79,104.99,246.72,136.91,246.72,176.29z"/>
	<circle class="st11" cx="173.98" cy="179.11" r="23.99"/>
	<path class="st11" d="M197.97,179.12c0,13.25-10.74,23.99-23.99,23.99c-2.1,0-4.14-0.27-6.07-0.78
		c10.31-2.69,17.92-12.06,17.92-23.21c0-11.15-7.61-20.52-17.92-23.21c1.94-0.51,3.97-0.78,6.07-0.78
		C187.23,155.13,197.97,165.87,197.97,179.12z"/>
	<g>
		<circle class="st12" cx="187.48" cy="162.84" r="13.35"/>
		<path class="st12" d="M200.83,162.83c0,7.37-5.98,13.35-13.35,13.35c-1.17,0-2.3-0.15-3.38-0.43c5.74-1.5,9.97-6.71,9.97-12.92
			c0-6.21-4.23-11.42-9.97-12.92c1.08-0.28,2.21-0.43,3.38-0.43C194.85,149.48,200.83,155.46,200.83,162.83z"/>
	</g>
	<g>
		<path class="st13" d="M175.41,72.93c-2.02,0-3.66-1.64-3.66-3.66V55.83c0-2.02,1.64-3.66,3.66-3.66s3.66,1.64,3.66,3.66v13.44
			C179.07,71.29,177.43,72.93,175.41,72.93z"/>
		<path class="st13" d="M175.41,300.42c-2.02,0-3.66-1.64-3.66-3.66v-13.44c0-2.02,1.64-3.66,3.66-3.66s3.66,1.64,3.66,3.66v13.44
			C179.07,298.78,177.43,300.42,175.41,300.42z"/>
		<path class="st13" d="M121.9,87.27c-1.27,0-2.5-0.66-3.17-1.83l-6.72-11.64c-1.01-1.75-0.41-3.99,1.34-5
			c1.75-1.01,3.99-0.41,5,1.34l6.72,11.64c1.01,1.75,0.41,3.99-1.34,5C123.15,87.11,122.52,87.27,121.9,87.27z"/>
		<path class="st13" d="M235.65,284.28c-1.27,0-2.5-0.66-3.17-1.83l-6.72-11.64c-1.01-1.75-0.41-3.99,1.34-5
			c1.75-1.01,3.99-0.41,5,1.34l6.72,11.64c1.01,1.75,0.41,3.99-1.34,5C236.9,284.13,236.27,284.28,235.65,284.28z"/>
		<path class="st13" d="M82.72,126.44c-0.62,0-1.25-0.16-1.83-0.49l-11.64-6.72c-1.75-1.01-2.35-3.25-1.34-5
			c1.01-1.75,3.25-2.35,5-1.34l11.64,6.72c1.75,1.01,2.35,3.25,1.34,5C85.21,125.79,83.98,126.44,82.72,126.44z"/>
		<path class="st13" d="M279.73,240.19c-0.62,0-1.25-0.16-1.83-0.49l-11.64-6.72c-1.75-1.01-2.35-3.25-1.34-5
			c1.01-1.75,3.25-2.35,5-1.34l11.64,6.72c1.75,1.01,2.35,3.25,1.34,5C282.23,239.53,281,240.19,279.73,240.19z"/>
		<path class="st13" d="M71.09,240.19c-1.27,0-2.5-0.66-3.17-1.83c-1.01-1.75-0.41-3.99,1.34-5l11.64-6.72
			c1.75-1.01,3.99-0.41,5,1.34c1.01,1.75,0.41,3.99-1.34,5l-11.64,6.72C72.34,240.03,71.71,240.19,71.09,240.19z"/>
		<path class="st13" d="M268.1,126.44c-1.27,0-2.5-0.66-3.17-1.83c-1.01-1.75-0.41-3.99,1.34-5l11.64-6.72
			c1.75-1.01,3.99-0.41,5,1.34c1.01,1.75,0.41,3.99-1.34,5l-11.64,6.72C269.35,126.28,268.72,126.44,268.1,126.44z"/>
		<path class="st13" d="M115.17,284.28c-0.62,0-1.25-0.16-1.83-0.49c-1.75-1.01-2.35-3.25-1.34-5l6.72-11.64
			c1.01-1.75,3.25-2.35,5-1.34c1.75,1.01,2.35,3.25,1.34,5l-6.72,11.64C117.67,283.63,116.44,284.28,115.17,284.28z"/>
		<path class="st13" d="M228.92,87.27c-0.62,0-1.25-0.16-1.83-0.49c-1.75-1.01-2.35-3.25-1.34-5l6.72-11.64
			c1.01-1.75,3.25-2.35,5-1.34c1.75,1.01,2.35,3.25,1.34,5l-6.72,11.64C231.42,86.61,230.19,87.27,228.92,87.27z"/>
	</g>
</g>
</svg>
