<?xml version="1.0" encoding="utf-8"?>
<!-- Generator: Adobe Illustrator 25.1.0, SVG Export Plug-In . SVG Version: 6.00 Build 0)  -->
<svg version="1.1" id="Layer_1" xmlns="http://www.w3.org/2000/svg" xmlns:xlink="http://www.w3.org/1999/xlink" x="0px" y="0px"
	 viewBox="0 0 512 512" style="enable-background:new 0 0 512 512;" xml:space="preserve">
<style type="text/css">
	.st0{fill:#C48FBC;}
	.st1{fill:#CF8230;}
	.st2{fill:#C7751E;}
	.st3{fill:#FFDBB5;}
	.st4{fill:#FFD1A1;}
	.st5{fill:#5D76CF;}
	.st6{fill:#4D69CF;}
	.st7{fill:#FFD52B;}
	.st8{fill:#FCCA00;}
	.st9{fill:#E9F0F5;}
	.st10{fill:#DDE3E8;}
	.st11{fill:#2AE88F;}
	.st12{fill:#FFFFFF;}
</style>
<circle class="st0" cx="256" cy="256" r="243.05"/>
<g>
	<g>
		<g>
			<g>
				<g>
					<path class="st1" d="M379.45,224.64h-81.53v-44.22c0-17.74,14.38-32.11,32.11-32.11h17.31c17.74,0,32.11,14.38,32.11,32.11
						V224.64z"/>
					<path class="st2" d="M347.34,148.31h-17.31c-0.43,0-0.85,0.02-1.28,0.03c17.14,0.67,30.83,14.77,30.83,32.08v44.22h19.87
						v-44.22C379.45,162.69,365.08,148.31,347.34,148.31z"/>
					<g>
						<g>
							<g>
								<path class="st3" d="M317.3,185.19c-10.71,0-19.38,8.68-19.38,19.38v24.48c0,22.39,18.23,40.54,40.71,40.54h0.12
									c22.48,0,40.71-18.15,40.71-40.54v-24.48c0-10.71-8.68-19.38-19.38-19.38H317.3z"/>
							</g>
						</g>
					</g>
					<path class="st4" d="M360.07,185.19H340.2c10.71,0,19.38,8.68,19.38,19.38v24.48c0,19-13.12,34.94-30.83,39.34
						c3.16,0.78,6.47,1.21,9.87,1.21h0.12c22.48,0,40.71-18.15,40.71-40.54v-24.48C379.45,193.87,370.77,185.19,360.07,185.19z"/>
				</g>
				<path class="st5" d="M390.21,317.9l-26.59,71.18h-49.68l-26.59-71.18l-0.17-12.49c0-19.6,15.88-35.48,35.48-35.48h32.08
					c19.6,0,35.48,15.88,35.48,35.48L390.21,317.9L390.21,317.9z"/>
				<path class="st6" d="M354.72,269.93h-19.87c19.6,0,35.48,15.88,35.48,35.48v12.49h19.87v-12.49
					C390.21,285.82,374.32,269.93,354.72,269.93z"/>
				<g>
					<path class="st3" d="M363.61,317.9h26.59v71.3h-26.59V317.9z"/>
					<path class="st3" d="M287.34,317.9h26.59v71.3h-26.59V317.9z"/>
				</g>
			</g>
		</g>
		<g>
			<g>
				<g>
					<g>
						<g>
							<g>
								<path class="st3" d="M217.49,188.25c-17.34,0-31.4,14.06-31.4,31.4v40.25c0,17.24,14.04,31.22,31.35,31.22h0.09
									c17.31,0,31.35-13.98,31.35-31.22v-40.25C248.89,202.3,234.83,188.25,217.49,188.25L217.49,188.25z"/>
							</g>
						</g>
					</g>
					<path class="st4" d="M217.49,188.25c-3.47,0-6.81,0.57-9.93,1.61c12.47,4.16,21.46,15.92,21.46,29.78v40.25
						c0,13.8-9,25.5-21.46,29.63c3.11,1.03,6.43,1.59,9.89,1.59h0.09c17.31,0,31.35-13.98,31.35-31.22v-40.25
						C248.89,202.3,234.83,188.25,217.49,188.25L217.49,188.25z"/>
					<path class="st7" d="M259.56,389.09h-84.14v-69.06c0-16,12.97-28.97,28.97-28.97h26.19c16,0,28.97,12.97,28.97,28.97
						L259.56,389.09L259.56,389.09z"/>
					<path class="st8" d="M230.59,291.06h-19.87c16,0,28.97,12.97,28.97,28.97v69.06h19.87v-69.06
						C259.56,304.03,246.59,291.06,230.59,291.06L230.59,291.06z"/>
					<g>
						<path class="st3" d="M175.42,325.32h21.71v63.76h-21.71V325.32z"/>
						<path class="st3" d="M237.85,325.32h21.71v63.76h-21.71V325.32z"/>
					</g>
				</g>
				<path class="st1" d="M248.89,233.5h-11.04l-10.51-11.21l-9.85,11.21h-31.21v-14c0-17.26,13.99-31.26,31.26-31.26h0.09
					c17.26,0,31.26,13.99,31.26,31.26L248.89,233.5L248.89,233.5z"/>
				<g>
					<path class="st2" d="M217.63,188.25h-0.09c-3.46,0-6.78,0.57-9.89,1.61c12.42,4.14,21.37,15.85,21.37,29.65v4.59l8.83,9.41
						h11.04v-14C248.89,202.24,234.89,188.25,217.63,188.25z"/>
				</g>
			</g>
		</g>
		<g>
			<g>
				<path class="st9" d="M126.88,403.69h23.7v21.33h-23.7V403.69z"/>
				<path class="st9" d="M370.61,403.69h23.7v21.33h-23.7V403.69z"/>
			</g>
			<path class="st1" d="M96.03,389.09h329.13v21.22H96.03V389.09z"/>
		</g>
		<g>
			<path class="st9" d="M273.84,389.2h-91.6c0-7.05,5.17-13.02,12.14-14.04l54.08-7.9C261.84,365.31,273.84,375.68,273.84,389.2z"/>
			<path class="st10" d="M248.46,367.26l-8.65,1.26c8.2,3.19,14.16,11.15,14.16,20.68h19.87
				C273.84,375.68,261.84,365.31,248.46,367.26z"/>
			<path class="st9" d="M273.84,389.2h91.6c0-7.05-5.17-13.02-12.14-14.04l-54.08-7.9C285.84,365.31,273.84,375.68,273.84,389.2
				L273.84,389.2z"/>
		</g>
		<g>
			<g>
				<path class="st5" d="M145.55,314.03c-0.01-2.74-2.23-4.95-4.97-4.95c0,0-0.01,0-0.01,0c-2.74,0.01-4.96,2.24-4.95,4.98
					l0.08,30.56c0.01,2.74,2.23,4.95,4.97,4.95h0.01c2.74-0.01,4.96-2.24,4.95-4.98L145.55,314.03z"/>
				<path class="st5" d="M125.13,316.87c-2.74,0-4.97,2.22-4.97,4.97v22.77c0,2.74,2.22,4.97,4.97,4.97c2.74,0,4.97-2.22,4.97-4.97
					v-22.77C130.1,319.09,127.88,316.87,125.13,316.87L125.13,316.87z"/>
			</g>
			<path class="st11" d="M134.23,389.09h-2.69c-8.21,0-14.87-6.66-14.87-14.87V344.6h32.43v29.62
				C149.1,382.43,142.44,389.09,134.23,389.09z"/>
		</g>
	</g>
	<g>
		<path class="st9" d="M127.76,264.43c-2.74,0-4.97,2.22-4.97,4.97c0,0.36-0.02,0.71-0.07,1.06c-0.52,3.74-3.74,6.52-7.52,6.52
			c-0.05,0-0.1,0-0.16,0c-3.96-0.08-7.21-3.23-7.42-7.18c-0.11-2.11,0.63-4.11,2.07-5.63c1.45-1.53,3.4-2.37,5.5-2.37
			c2.74,0,4.97-2.22,4.97-4.97v-13.13c0-2.74-2.22-4.97-4.97-4.97c-2.74,0-4.97,2.22-4.97,4.97v8.89c-2.92,0.87-5.61,2.49-7.74,4.73
			c-3.34,3.52-5.04,8.13-4.79,12.99c0.47,9.12,8,16.41,17.14,16.59c0.12,0,0.24,0,0.36,0c8.72,0,16.15-6.43,17.35-15.08
			c0.11-0.8,0.17-1.62,0.17-2.44C132.73,266.65,130.51,264.43,127.76,264.43L127.76,264.43z"/>
		<path class="st9" d="M115.37,232.62c6.39,0,6.4-9.93,0-9.93C108.98,222.69,108.97,232.62,115.37,232.62z"/>
		<path class="st9" d="M164.45,239.29c-0.47-9.12-8-16.41-17.14-16.59c-0.12,0-0.24,0-0.36,0c-8.72,0-16.15,6.43-17.35,15.08
			c-0.11,0.8-0.17,1.62-0.17,2.44c0,2.74,2.22,4.97,4.97,4.97s4.97-2.22,4.97-4.97c0-0.36,0.02-0.72,0.07-1.06
			c0.52-3.74,3.74-6.52,7.52-6.52c0.05,0,0.1,0,0.15,0c3.96,0.08,7.21,3.23,7.42,7.18c0.11,2.11-0.63,4.11-2.07,5.63
			c-1.45,1.53-3.4,2.37-5.5,2.37c-2.74,0-4.97,2.22-4.97,4.97v13.13c0,2.74,2.22,4.97,4.97,4.97c2.74,0,4.97-2.22,4.97-4.97v-8.89
			c2.92-0.87,5.61-2.49,7.74-4.73C163,248.75,164.7,244.14,164.45,239.29z"/>
		<path class="st9" d="M146.78,276.98c-6.39,0-6.4,9.93,0,9.93C153.18,286.92,153.19,276.98,146.78,276.98z"/>
	</g>
	<g>
		<path class="st9" d="M234.82,95.89c20.99-0.05,38.41,16.89,38.88,37.88c0.15,6.48-1.29,12.6-3.95,18.01l10.38,20.3l-19.52-8.33
			c-7.07,6.25-16.44,9.97-26.67,9.71c-20.73-0.52-37.53-17.53-37.79-38.26C195.87,113.54,213.31,95.95,234.82,95.89z"/>
		<path class="st10" d="M269.75,151.78c2.66-5.41,4.1-11.53,3.95-18.01c-0.48-20.99-17.89-37.93-38.88-37.88
			c-3.41,0.01-6.72,0.46-9.88,1.3c16.26,4.33,28.49,19.04,28.89,36.58c0.41,17.86-11.57,33.82-28.81,38.4
			c12.4,3.3,25.99,0.05,35.58-8.43l19.52,8.33L269.75,151.78z"/>
		<g>
			<g>
				<path class="st12" d="M217.49,139.65c6.39,0,6.4-9.93,0-9.93C211.1,129.71,211.09,139.65,217.49,139.65z"/>
			</g>
			<g>
				<path class="st12" d="M234.52,139.65c6.39,0,6.4-9.93,0-9.93C228.13,129.71,228.12,139.65,234.52,139.65z"/>
			</g>
			<g>
				<path class="st12" d="M251.55,139.65c6.39,0,6.4-9.93,0-9.93C245.16,129.71,245.15,139.65,251.55,139.65z"/>
			</g>
		</g>
	</g>
</g>
</svg>
