<?xml version="1.0" encoding="utf-8"?>
<!-- Generator: Adobe Illustrator 25.1.0, SVG Export Plug-In . SVG Version: 6.00 Build 0)  -->
<svg version="1.1" id="Layer_1" xmlns="http://www.w3.org/2000/svg" xmlns:xlink="http://www.w3.org/1999/xlink" x="0px" y="0px"
	 viewBox="0 0 512 512" style="enable-background:new 0 0 512 512;" xml:space="preserve">
<style type="text/css">
	.st0{fill:#FFB680;}
	.st1{fill:#FDCD99;}
	.st2{fill:#A6673A;}
	.st3{fill:#99522E;}
	.st4{fill:#736056;}
	.st5{fill:#E55639;}
	.st6{fill:#CF4529;}
	.st7{fill:#D5593B;}
	.st8{fill:#C24B2E;}
</style>
<g>
	<path class="st0" d="M94.61,378.43h-16.7c-36.83,0-66.78-29.96-66.78-66.78s29.96-66.78,66.78-66.78h16.7
		c9.22,0,16.7,7.47,16.7,16.7v100.17C111.3,370.96,103.83,378.43,94.61,378.43z"/>
	<path class="st1" d="M378.43,178.09H77.91c0,31.38,0,112.25,0,183.65c0,82.85,67.4,150.26,150.26,150.26
		c68.61,0,128.45-46.35,145.53-112.71c3.3-49.49,4.4-57.47,4.73-83.59V178.09z"/>
	<path class="st0" d="M228.17,512c68.61,0,128.45-46.35,145.53-112.71c3.3-49.49,4.4-57.47,4.73-83.59V178.09H228.17V512z"/>
	<circle class="st2" cx="228.17" cy="261.57" r="16.7"/>
	<circle class="st3" cx="294.96" cy="261.57" r="16.7"/>
	<path class="st2" d="M244.87,428.52c0,9.24-7.46,16.7-16.7,16.7c-46.08,0-83.48-37.4-83.48-83.48c0-9.24,7.46-16.7,16.7-16.7
		s16.7,7.46,16.7,16.7c0,27.6,22.48,50.09,50.09,50.09C237.41,411.83,244.87,419.28,244.87,428.52z"/>
	<path class="st4" d="M98.78,311.65H77.91V194.78c0-9.22,7.47-16.7,16.7-16.7h66.78c9.22,0,16.7,7.48,16.7,16.7v37.57
		C178.09,276.15,142.58,311.65,98.78,311.65z"/>
	<g>
		<path class="st3" d="M244.87,428.52c0,9.24-7.46,16.7-16.7,16.7v-33.39C237.41,411.83,244.87,419.28,244.87,428.52z"/>
		<path class="st3" d="M244.87,261.57c0-9.22-7.48-16.7-16.7-16.7v33.39C237.39,278.26,244.87,270.79,244.87,261.57z"/>
	</g>
	<path class="st1" d="M476.54,334.13l-175.26-22.08c-2.07-0.26-4.18-0.39-6.32-0.39c-27.66,0-50.09,22.42-50.09,50.09
		c0,27.66,22.42,50.09,50.09,50.09c2.14,0,4.25-0.14,6.33-0.39l175.26-22.08L476.54,334.13z"/>
	<path class="st0" d="M476.54,389.35c-1.15,0.14-2.31,0.22-3.5,0.22c-15.34,0-27.83-12.48-27.83-27.83s12.48-27.83,27.83-27.83
		c1.17,0,2.34,0.07,3.5,0.22c0.58,0.07,1.16,0.17,1.73,0.27c13.1,2.5,22.6,13.99,22.6,27.33
		C500.87,375.9,490.24,387.62,476.54,389.35z"/>
	<path class="st5" d="M361.74,211.48H94.61c-6.14,0-11.78-3.37-14.69-8.76c-2.92-5.4-2.63-11.96,0.73-17.09L188.36,21.49
		C197.19,8.03,212.08,0,228.17,0s30.98,8.03,39.81,21.49L375.7,185.62c3.37,5.13,3.65,11.69,0.73,17.09S367.88,211.48,361.74,211.48
		z"/>
	<path class="st6" d="M361.74,211.48c6.14,0,11.78-3.37,14.69-8.76c2.92-5.4,2.63-11.96-0.73-17.09L267.99,21.49
		C259.15,8.03,244.27,0,228.17,0v211.48H361.74z"/>
	<path class="st7" d="M395.13,211.48H61.22c-9.22,0-16.7-7.48-16.7-16.7c0-9.22,7.47-16.7,16.7-16.7h333.91
		c9.22,0,16.7,7.48,16.7,16.7C411.83,204,404.35,211.48,395.13,211.48z"/>
	<path class="st8" d="M395.13,178.09H228.17v33.39h166.96c9.22,0,16.7-7.48,16.7-16.7C411.83,185.56,404.35,178.09,395.13,178.09z"
		/>
</g>
</svg>
