<svg id="Capa_1" enable-background="new 0 0 512 512" height="512" viewBox="0 0 512 512" width="512" xmlns="http://www.w3.org/2000/svg"><g><g><path d="m474.831 244.116 30.232-10.214c9.246-3.124 9.246-16.202 0-19.326l-30.232-10.214c-21.974-7.424-32.367-32.514-22.078-53.302l14.155-28.599c4.329-8.747-4.918-17.995-13.665-13.665l-28.6 14.155c-20.788 10.289-45.878-.104-53.302-22.078l-10.214-30.232c-3.124-9.246-16.202-9.246-19.326 0l-10.214 30.232c-7.424 21.974-32.514 32.367-53.302 22.078l-28.6-14.155c-8.747-4.329-17.995 4.918-13.665 13.665l14.155 28.599c10.289 20.788-.104 45.878-22.078 53.302l-30.232 10.214c-9.246 3.124-9.246 16.202 0 19.326l30.232 10.214c21.974 7.424 32.367 32.514 22.078 53.302l-14.155 28.599c-4.329 8.747 4.918 17.995 13.665 13.665l28.6-14.155c20.788-10.289 45.878.104 53.302 22.078l10.214 30.232c3.124 9.246 16.202 9.246 19.326 0l10.214-30.232c7.424-21.974 32.514-32.367 53.302-22.078l28.6 14.155c8.747 4.329 17.995-4.918 13.665-13.665l-14.155-28.599c-10.289-20.788.104-45.878 22.078-53.302z" fill="#e94444"/><g fill="#d83131"><path d="m431.524 146.553 14.15-28.601c.995-2 1.266-4.03 1.015-5.909l6.552-3.246c8.753-4.331 17.999 4.914 13.667 13.667l-14.16 28.601c-9.527 19.255-1.306 42.198 17.416 51.383l-16.561-2.593c-21.978-7.426-32.37-32.52-22.079-53.302z"/><path d="m505.066 233.903-30.239 10.21c-21.968 7.427-32.359 32.52-22.079 53.302l14.16 28.601c4.331 8.753-4.914 17.999-13.667 13.667l-10.783-5.336c3.748-2.713 5.688-7.858 3.216-12.843l-14.15-28.601c-10.291-20.782 2.532-50.981 24.511-58.407l30.229-10.21c6.331-2.14 8.331-8.954 5.979-14.039l12.823 4.331c9.245 3.125 9.245 16.199 0 19.325z"/></g></g><path d="m284.014 448.291h-64.97c-26.795 0-52.646-9.896-72.591-27.79l-23.659-21.225h-122.791v-142.386h122.792l22.413-23.965c20.555-21.978 49.301-34.452 79.393-34.452h31.629c15.345 0 27.784 12.44 27.784 27.784v93.399z" fill="#fed2a4"/><path d="m284.017 428.195v20.099h-64.97c-26.802 0-52.649-9.899-72.597-27.797l-23.656-21.225h-122.794v-20.099h133.376l23.656 21.225c19.948 17.898 35.213 27.797 62.015 27.797z" fill="#ffbd86"/><g fill="#f6a96c"><path d="m236.438 420.285c0 15.468 12.539 28.007 28.007 28.007h64.542c15.468 0 28.007-12.539 28.007-28.007 0-15.468-12.539-28.007-28.007-28.007h-64.542c-15.468 0-28.007 12.539-28.007 28.007z"/><path d="m226.581 364.272c0 15.468 12.539 28.007 28.007 28.007h94.003c15.468 0 28.007-12.539 28.007-28.007 0-15.468-12.539-28.007-28.007-28.007h-94.003c-15.468 0-28.007 12.539-28.007 28.007z"/><path d="m258.717 280.252h117.879c15.468 0 28.007 12.539 28.007 28.007 0 15.468-12.539 28.007-28.007 28.007h-117.879z"/><path d="m284.014 280.252h76.07c15.468 0 28.007-12.539 28.007-28.007 0-15.468-12.539-28.007-28.007-28.007h-76.07z"/></g><path d="m356.996 420.286c0 15.466-12.542 28.008-28.008 28.008h-64.548c-15.466 0-27.998-12.542-27.998-28.008 0-3.537.653-6.934 1.869-10.049 4.03 10.502 14.21 17.958 26.129 17.958h64.548c11.919 0 22.109-7.457 26.139-17.958 1.216 3.115 1.869 6.512 1.869 10.049z" fill="#ea9b58"/><path d="m376.593 364.271c0 15.466-12.532 28.008-28.008 28.008h-94.002c-15.466 0-27.998-12.542-27.998-28.008 0-3.537.653-6.934 1.869-10.049 4.03 10.502 14.21 17.958 26.129 17.958h94.002c11.929 0 22.109-7.457 26.139-17.958 1.216 3.115 1.869 6.511 1.869 10.049z" fill="#ea9b58"/><path d="m404.601 308.255c0 7.738-3.135 14.742-8.2 19.807s-12.069 8.2-19.807 8.2h-117.88v-20.099h117.88c7.738 0 14.742-3.135 19.807-8.2 2.743-2.743 4.924-6.06 6.341-9.758 1.205 3.116 1.859 6.513 1.859 10.05z" fill="#ea9b58"/><path d="m388.089 252.249c0 15.466-12.542 27.998-28.008 27.998h-76.064v-20.099h76.064c11.919 0 22.109-7.447 26.149-17.948 1.206 3.115 1.859 6.502 1.859 10.049z" fill="#ea9b58"/><g><path d="m145.208 232.925c20.555-21.978 49.301-34.452 79.393-34.452h31.629c15.345 0 27.784 12.44 27.784 27.784v95.383c0 9.173-7.436 16.609-16.609 16.609-20.745 0-37.563-16.818-37.563-37.563v-42.84s0 35.7-52.672 39.707z" fill="#fed2a4"/><path d="m284.017 226.262v95.384c0 9.165-7.437 16.602-16.612 16.602-10.371 0-19.757-4.201-26.561-11.004-1.708-1.709-3.246-3.568-4.613-5.577 3.306.945 6.793 1.457 10.401 1.457 9.175 0 16.612-7.436 16.612-16.602v-95.384c0-4.442-1.045-8.633-2.904-12.361 13.397 1.989 23.677 13.536 23.677 27.485z" fill="#ffbd86"/></g><path d="m249.985 271.588v-23.037c0-8.384-6.797-15.18-15.18-15.18h-.531c-6.325 0-11.943 3.939-14.211 9.844-4.688 12.204-17.568 32.186-39.96 37.411-5.185 1.21-7.851 6.982-5.491 11.755 1.568 3.17 4.977 5.024 8.483 4.565 46.749-6.127 46.749-39.097 46.749-39.097v13.741c0 5.508 4.425 9.995 9.933 10.07 5.614.075 10.208-4.456 10.208-10.072z" fill="#ffbd86"/><path d="" style="fill:none;stroke:#000;stroke-width:15;stroke-linecap:round;stroke-linejoin:round;stroke-miterlimit:10"/></g></svg>