<?xml version="1.0" encoding="utf-8"?>
<!-- Generator: Adobe Illustrator 25.1.0, SVG Export Plug-In . SVG Version: 6.00 Build 0)  -->
<svg version="1.1" id="Layer_1" xmlns="http://www.w3.org/2000/svg" xmlns:xlink="http://www.w3.org/1999/xlink" x="0px" y="0px"
	 viewBox="0 0 512 512" style="enable-background:new 0 0 512 512;" xml:space="preserve">
<style type="text/css">
	.st0{fill:#FBD6DB;}
	.st1{fill:#105C6E;}
	.st2{fill:#26879C;}
	.st3{fill:#DE513C;}
	.st4{fill:#FC6249;}
	.st5{fill:#E0DFD4;}
	.st6{fill:#F4F2E6;}
	.st7{fill:#F0F0F0;}
	.st8{fill:#00AEEF;}
	.st9{fill:#008FC4;}
	.st10{fill:#FDD7AD;}
	.st11{fill:#F9C795;}
</style>
<circle class="st0" cx="256" cy="256" r="243.05"/>
<g>
	<path class="st1" d="M296.96,106.05L285.3,94.36c-2.71-2.71-6.3-4.2-10.13-4.2c-3.83,0-7.43,1.49-10.13,4.2l-8.45,8.47
		c-5.56,5.58-5.56,14.65,0,20.22l11.69,11.71c1.14,1.15,2.64,1.72,4.14,1.72c1.5,0,2.99-0.57,4.13-1.71
		c2.29-2.28,18.13-18.17,20.41-20.45C299.24,112.04,299.24,108.34,296.96,106.05z"/>
	<path class="st2" d="M338.33,67.59c-3.23,0-5.85,2.62-5.85,5.85v18.72c0,3.23,2.62,5.85,5.85,5.85c3.23,0,5.85-2.62,5.85-5.85
		V73.44C344.18,70.21,341.56,67.59,338.33,67.59z"/>
	<path class="st3" d="M352.76,66.42H323.9c-3.23,0-5.85,2.62-5.85,5.85s2.62,5.85,5.85,5.85h28.87c3.23,0,5.85-2.62,5.85-5.85
		S355.99,66.42,352.76,66.42z"/>
	<path class="st4" d="M338.33,66.42H323.9c-3.23,0-5.85,2.62-5.85,5.85s2.62,5.85,5.85,5.85h14.43V66.42z"/>
	<path class="st3" d="M401.78,112.69c-16.95-16.98-39.48-26.33-63.45-26.33s-46.5,9.35-63.45,26.33
		c-16.94,16.98-26.27,39.55-26.27,63.56s9.33,46.58,26.27,63.56c16.95,16.98,39.48,26.33,63.45,26.33c23.97,0,46.5-9.35,63.45-26.33
		c16.94-16.98,26.27-39.55,26.27-63.56S418.72,129.66,401.78,112.69z"/>
	<path class="st4" d="M338.33,86.35c-23.97,0-46.5,9.35-63.45,26.33c-16.94,16.98-26.27,39.55-26.27,63.56s9.33,46.58,26.27,63.56
		c16.95,16.98,39.48,26.33,63.45,26.33V86.35z"/>
	<path class="st5" d="M338.33,108.75c-37.14,0-67.36,30.28-67.36,67.49s30.22,67.49,67.36,67.49s67.36-30.28,67.36-67.49
		S375.47,108.75,338.33,108.75z"/>
	<path class="st6" d="M338.33,108.75c-37.14,0-67.36,30.28-67.36,67.49s30.22,67.49,67.36,67.49V108.75z"/>
	<g>
		<path class="st1" d="M338.33,123.37c3.23,0,5.85-2.62,5.85-5.85v-8.51c-1.93-0.17-3.88-0.26-5.85-0.26
			c-1.97,0-3.92,0.09-5.85,0.26v8.51C332.48,120.75,335.1,123.37,338.33,123.37z"/>
		<path class="st1" d="M338.33,229.12c-3.23,0-5.85,2.62-5.85,5.85v8.51c1.93,0.17,3.88,0.26,5.85,0.26c1.97,0,3.92-0.09,5.85-0.26
			v-8.51C344.18,231.74,341.56,229.12,338.33,229.12z"/>
		<path class="st1" d="M405.44,170.39h-8.38c-3.23,0-5.85,2.62-5.85,5.85s2.62,5.85,5.85,5.85h8.38c0.17-1.93,0.26-3.88,0.26-5.85
			S405.6,172.32,405.44,170.39z"/>
		<path class="st1" d="M285.45,176.25c0-3.23-2.62-5.85-5.85-5.85h-8.38c-0.17,1.93-0.26,3.88-0.26,5.85s0.09,3.92,0.26,5.85h8.38
			C282.84,182.1,285.45,179.48,285.45,176.25z"/>
		<path class="st1" d="M352.76,172.87h-8.25V149.2c0-3.23-2.62-5.85-5.85-5.85c-3.23,0-5.85,2.62-5.85,5.85v29.52
			c0,3.23,2.62,5.85,5.85,5.85h14.11c3.23,0,5.85-2.62,5.85-5.85S355.99,172.87,352.76,172.87z"/>
	</g>
</g>
<g id="Page-1">
	<g id="_x30_26---Open-Book">
		<path id="Shape" class="st7" d="M93.63,233.24v-25.35c0-1.31,0.66-2.54,1.76-3.26c1.1-0.73,2.48-0.85,3.69-0.34
			c80.76,33.86,80.76,52.59,80.76,52.59v29.39L93.63,233.24z"/>
		<path id="Shape_1_" class="st7" d="M266.04,233.24v-25.35c0-1.31-0.66-2.54-1.76-3.26c-1.1-0.73-2.48-0.85-3.69-0.34
			c-80.76,33.86-80.76,52.59-80.76,52.59v29.39L266.04,233.24z"/>
		<path id="Shape_2_" class="st8" d="M276.03,228.23l-78.37,39.18c-1.33,0.66-2.16,2.01-2.16,3.49v-0.31c0-2.16-1.75-3.92-3.92-3.92
			h-23.51c-2.16,0-3.92,1.75-3.92,3.92v0.31c0.01-1.48-0.83-2.83-2.16-3.49l-78.37-39.18c-1.21-0.61-2.66-0.55-3.81,0.16
			c-1.16,0.71-1.86,1.97-1.87,3.33v155.84c-0.02,1.48,0.82,2.84,2.16,3.49l78.37,39.18c1.21,0.61,2.66,0.55,3.81-0.16
			c1.16-0.71,1.86-1.97,1.87-3.33v0.59c0,2.16,1.75,3.92,3.92,3.92h23.51c2.16,0,3.92-1.75,3.92-3.92v-0.59
			c0,1.36,0.71,2.62,1.87,3.33c1.16,0.71,2.6,0.77,3.81,0.16l78.37-39.18c1.33-0.65,2.17-2.01,2.16-3.49V231.71
			c0-1.36-0.71-2.62-1.87-3.33C278.69,227.68,277.25,227.61,276.03,228.23L276.03,228.23z"/>
		<path id="Rectangle-path" class="st9" d="M168.08,266.67h23.51c2.16,0,3.92,1.75,3.92,3.92v156.74c0,2.16-1.75,3.92-3.92,3.92
			h-23.51c-2.16,0-3.92-1.75-3.92-3.92V270.58C164.16,268.42,165.91,266.67,168.08,266.67z"/>
		<path id="Shape_3_" class="st10" d="M74.04,278.42h17.63c5.41,0,9.8,4.39,9.8,9.8s-4.39,9.8-9.8,9.8H74.04
			c-4.33,0-7.84-3.51-7.84-7.84v-3.92C66.2,281.93,69.71,278.42,74.04,278.42z"/>
		<path id="Shape_4_" class="st10" d="M74.04,317.61h17.63c5.41,0,9.8,4.39,9.8,9.8c0,5.41-4.39,9.8-9.8,9.8H74.04
			c-4.33,0-7.84-3.51-7.84-7.84v-3.92C66.2,321.12,69.71,317.61,74.04,317.61z"/>
		<path id="Shape_5_" class="st11" d="M74.04,337.2h13.71c5.41,0,9.8,4.39,9.8,9.8c0,5.41-4.39,9.8-9.8,9.8H74.04
			c-4.33,0-7.84-3.51-7.84-7.84v-3.92C66.2,340.71,69.71,337.2,74.04,337.2z"/>
		<path id="Shape_6_" class="st11" d="M74.04,298.01h25.47c2.6,0,5.09,1.03,6.93,2.87c1.84,1.84,2.87,4.33,2.87,6.93
			c0,2.6-1.03,5.09-2.87,6.93c-1.84,1.84-4.33,2.87-6.93,2.87H74.04c-4.33,0-7.84-3.51-7.84-7.84v-3.92
			C66.2,301.52,69.71,298.01,74.04,298.01z"/>
		<path id="Shape_7_" class="st10" d="M285.63,298.01H268c-5.41,0-9.8-4.39-9.8-9.8s4.39-9.8,9.8-9.8h17.63
			c4.33,0,7.84,3.51,7.84,7.84v3.92C293.47,294.51,289.96,298.01,285.63,298.01z"/>
		<path id="Shape_8_" class="st10" d="M285.63,337.2H268c-5.41,0-9.8-4.39-9.8-9.8c0-5.41,4.39-9.8,9.8-9.8h17.63
			c4.33,0,7.84,3.51,7.84,7.84v3.92C293.47,333.69,289.96,337.2,285.63,337.2z"/>
		<g>
			<path id="Shape_9_" class="st11" d="M285.63,356.79h-13.71c-5.41,0-9.8-4.39-9.8-9.8c0-5.41,4.39-9.8,9.8-9.8h13.71
				c4.33,0,7.84,3.51,7.84,7.84v3.92C293.47,353.28,289.96,356.79,285.63,356.79z"/>
			<path id="Shape_10_" class="st11" d="M285.63,317.61h-25.47c-5.41,0-9.8-4.39-9.8-9.8c0-5.41,4.39-9.8,9.8-9.8h25.47
				c4.33,0,7.84,3.51,7.84,7.84v3.92C293.47,314.1,289.96,317.61,285.63,317.61z"/>
		</g>
	</g>
</g>
</svg>
