<?xml version="1.0" encoding="utf-8"?>
<!-- Generator: Adobe Illustrator 25.2.0, SVG Export Plug-In . SVG Version: 6.00 Build 0)  -->
<svg version="1.1" id="Layer_1" xmlns="http://www.w3.org/2000/svg" xmlns:xlink="http://www.w3.org/1999/xlink" x="0px" y="0px"
	 viewBox="0 0 512 512" style="enable-background:new 0 0 512 512;" xml:space="preserve">
<style type="text/css">
	.st0{fill:#7C4FAB;}
	.st1{fill:#105C6E;}
	.st2{fill:#26879C;}
	.st3{fill:#DE513C;}
	.st4{fill:#FC6249;}
	.st5{fill:#E0DFD4;}
	.st6{fill:#F4F2E6;}
	.st7{fill:#F0F0F0;}
	.st8{fill:#00AEEF;}
	.st9{fill:#008FC4;}
	.st10{fill:#FDD7AD;}
	.st11{fill:#F9C795;}
</style>
<circle class="st0" cx="256" cy="256" r="243"/>
<g>
	<path class="st1" d="M297,106.1l-11.7-11.7c-2.7-2.7-6.3-4.2-10.1-4.2c-3.8,0-7.4,1.5-10.1,4.2l-8.5,8.5c-5.6,5.6-5.6,14.7,0,20.2
		l11.7,11.7c1.1,1.1,2.6,1.7,4.1,1.7s3-0.6,4.1-1.7c2.3-2.3,18.1-18.2,20.4-20.4C299.2,112,299.2,108.3,297,106.1z"/>
	<path class="st2" d="M338.3,67.6c-3.2,0-5.9,2.6-5.9,5.8v18.7c0,3.2,2.6,5.8,5.9,5.8s5.9-2.6,5.9-5.8V73.4
		C344.2,70.2,341.6,67.6,338.3,67.6z"/>
	<path class="st3" d="M352.8,66.4h-28.9c-3.2,0-5.9,2.6-5.9,5.8s2.6,5.8,5.9,5.8h28.9c3.2,0,5.9-2.6,5.9-5.8S356,66.4,352.8,66.4z"
		/>
	<path class="st4" d="M338.3,66.4h-14.4c-3.2,0-5.9,2.6-5.9,5.8s2.6,5.8,5.9,5.8h14.4V66.4z"/>
	<path class="st3" d="M401.8,112.7c-17-17-39.5-26.3-63.5-26.3s-46.5,9.3-63.5,26.3c-16.9,17-26.3,39.6-26.3,63.6
		s9.3,46.6,26.3,63.6c17,17,39.5,26.3,63.5,26.3s46.5-9.4,63.5-26.3c16.9-17,26.3-39.6,26.3-63.6S418.7,129.7,401.8,112.7z"/>
	<path class="st4" d="M338.3,86.3c-24,0-46.5,9.3-63.5,26.3c-16.9,17-26.3,39.5-26.3,63.6s9.3,46.6,26.3,63.6
		c17,17,39.5,26.3,63.5,26.3V86.3z"/>
	<path class="st5" d="M338.3,108.8c-37.1,0-67.4,30.3-67.4,67.5s30.2,67.5,67.4,67.5s67.4-30.3,67.4-67.5S375.5,108.8,338.3,108.8z"
		/>
	<path class="st6" d="M338.3,108.8c-37.1,0-67.4,30.3-67.4,67.5s30.2,67.5,67.4,67.5L338.3,108.8L338.3,108.8z"/>
	<g>
		<path class="st1" d="M338.3,123.4c3.2,0,5.9-2.6,5.9-5.8V109c-1.9-0.2-3.9-0.3-5.9-0.3s-3.9,0.1-5.9,0.3v8.5
			C332.5,120.8,335.1,123.4,338.3,123.4z"/>
		<path class="st1" d="M338.3,229.1c-3.2,0-5.9,2.6-5.9,5.9v8.5c1.9,0.2,3.9,0.3,5.9,0.3s3.9-0.1,5.9-0.3V235
			C344.2,231.7,341.6,229.1,338.3,229.1z"/>
		<path class="st1" d="M405.4,170.4h-8.4c-3.2,0-5.9,2.6-5.9,5.9s2.6,5.9,5.9,5.9h8.4c0.2-1.9,0.3-3.9,0.3-5.9
			S405.6,172.3,405.4,170.4z"/>
		<path class="st1" d="M285.5,176.2c0-3.2-2.6-5.9-5.9-5.9h-8.4c-0.2,1.9-0.3,3.9-0.3,5.9s0.1,3.9,0.3,5.9h8.4
			C282.8,182.1,285.5,179.5,285.5,176.2z"/>
		<path class="st1" d="M352.8,172.9h-8.2v-23.7c0-3.2-2.6-5.9-5.9-5.9s-5.9,2.6-5.9,5.9v29.5c0,3.2,2.6,5.9,5.9,5.9h14.1
			c3.2,0,5.9-2.6,5.9-5.9S356,172.9,352.8,172.9z"/>
	</g>
</g>
<g id="Page-1">
	<g id="_x30_26---Open-Book">
		<path id="Shape" class="st7" d="M93.6,233.2v-25.4c0-1.3,0.7-2.5,1.8-3.3c1.1-0.7,2.5-0.9,3.7-0.3c80.8,33.9,80.8,52.6,80.8,52.6
			v29.4L93.6,233.2z"/>
		<path id="Shape_1_" class="st7" d="M266,233.2v-25.4c0-1.3-0.7-2.5-1.8-3.3c-1.1-0.7-2.5-0.9-3.7-0.3
			c-80.8,33.9-80.8,52.6-80.8,52.6v29.4L266,233.2z"/>
		<path id="Shape_2_" class="st8" d="M276,228.2l-78.4,39.2c-1.3,0.7-2.2,2-2.2,3.5v-0.3c0-2.2-1.8-3.9-3.9-3.9h-23.5
			c-2.2,0-3.9,1.8-3.9,3.9v0.3c0-1.5-0.8-2.8-2.2-3.5l-78.4-39.2c-1.2-0.6-2.7-0.6-3.8,0.2c-1.2,0.7-1.9,2-1.9,3.3v155.8
			c0,1.5,0.8,2.8,2.2,3.5l78.4,39.2c1.2,0.6,2.7,0.5,3.8-0.2c1.2-0.7,1.9-2,1.9-3.3v0.6c0,2.2,1.8,3.9,3.9,3.9h23.5
			c2.2,0,3.9-1.8,3.9-3.9v-0.6c0,1.4,0.7,2.6,1.9,3.3c1.2,0.7,2.6,0.8,3.8,0.2l78.4-39.2c1.3-0.6,2.2-2,2.2-3.5V231.7
			c0-1.4-0.7-2.6-1.9-3.3C278.7,227.7,277.2,227.6,276,228.2L276,228.2z"/>
		<path id="Rectangle-path" class="st9" d="M168.1,266.7h23.5c2.2,0,3.9,1.8,3.9,3.9v156.7c0,2.2-1.8,3.9-3.9,3.9h-23.5
			c-2.2,0-3.9-1.8-3.9-3.9V270.6C164.2,268.4,165.9,266.7,168.1,266.7z"/>
		<path id="Shape_3_" class="st10" d="M74,278.4h17.6c5.4,0,9.8,4.4,9.8,9.8s-4.4,9.8-9.8,9.8H74c-4.3,0-7.8-3.5-7.8-7.8v-3.9
			C66.2,281.9,69.7,278.4,74,278.4z"/>
		<path id="Shape_4_" class="st10" d="M74,317.6h17.6c5.4,0,9.8,4.4,9.8,9.8c0,5.4-4.4,9.8-9.8,9.8H74c-4.3,0-7.8-3.5-7.8-7.8v-3.9
			C66.2,321.1,69.7,317.6,74,317.6z"/>
		<path id="Shape_5_" class="st11" d="M74,337.2h13.7c5.4,0,9.8,4.4,9.8,9.8c0,5.4-4.4,9.8-9.8,9.8H74c-4.3,0-7.8-3.5-7.8-7.8V345
			C66.2,340.7,69.7,337.2,74,337.2z"/>
		<path id="Shape_6_" class="st11" d="M74,298h25.5c2.6,0,5.1,1,6.9,2.9s2.9,4.3,2.9,6.9s-1,5.1-2.9,6.9c-1.8,1.8-4.3,2.9-6.9,2.9
			H74c-4.3,0-7.8-3.5-7.8-7.8v-3.9C66.2,301.5,69.7,298,74,298z"/>
		<path id="Shape_7_" class="st10" d="M285.6,298H268c-5.4,0-9.8-4.4-9.8-9.8s4.4-9.8,9.8-9.8h17.6c4.3,0,7.8,3.5,7.8,7.8v3.9
			C293.5,294.5,290,298,285.6,298z"/>
		<path id="Shape_8_" class="st10" d="M285.6,337.2H268c-5.4,0-9.8-4.4-9.8-9.8c0-5.4,4.4-9.8,9.8-9.8h17.6c4.3,0,7.8,3.5,7.8,7.8
			v3.9C293.5,333.7,290,337.2,285.6,337.2z"/>
		<g>
			<path id="Shape_9_" class="st11" d="M285.6,356.8h-13.7c-5.4,0-9.8-4.4-9.8-9.8c0-5.4,4.4-9.8,9.8-9.8h13.7
				c4.3,0,7.8,3.5,7.8,7.8v3.9C293.5,353.3,290,356.8,285.6,356.8z"/>
			<path id="Shape_10_" class="st11" d="M285.6,317.6h-25.5c-5.4,0-9.8-4.4-9.8-9.8c0-5.4,4.4-9.8,9.8-9.8h25.5
				c4.3,0,7.8,3.5,7.8,7.8v3.9C293.5,314.1,290,317.6,285.6,317.6z"/>
		</g>
	</g>
</g>
</svg>
