<?xml version="1.0" encoding="utf-8"?>
<!-- Generator: Adobe Illustrator 25.1.0, SVG Export Plug-In . SVG Version: 6.00 Build 0)  -->
<svg version="1.1" id="Layer_1" xmlns="http://www.w3.org/2000/svg" xmlns:xlink="http://www.w3.org/1999/xlink" x="0px" y="0px"
	 viewBox="0 0 511 511" style="enable-background:new 0 0 511 511;" xml:space="preserve">
<style type="text/css">
	.st0{fill:#414B82;}
	.st1{fill:#5F6E9B;}
	.st2{fill:#FCA688;}
	.st3{fill:#4699F2;}
	.st4{fill:#64AFFF;}
	.st5{fill:#FFB69E;}
	.st6{fill:#A56941;}
	.st7{fill:#823214;}
	.st8{fill:#965028;}
</style>
<g>
	<path class="st0" d="M364.65,351.23c-6.43,0-12.82-2.7-17.33-7.96l-56.29-65.56l-80.75,59.24c-10.17,7.46-24.46,5.27-31.91-4.9
		s-5.26-24.46,4.9-31.91l97.8-71.75c9.63-7.06,23.06-5.52,30.83,3.54l70.06,81.6c8.22,9.57,7.12,23.98-2.45,32.2
		C375.21,349.41,369.92,351.23,364.65,351.23z"/>
	<path class="st1" d="M182.24,351.78c-12.59,0-22.86-10.19-22.89-22.78c-0.03-12.61,10.17-23.49,22.78-23.52h272.83h0.05
		c12.58,0,22.8,10.19,22.83,22.78c0.03,12.61-10.17,22.85-22.78,22.88L182.24,351.78C182.22,351.78,182.25,351.78,182.24,351.78z"/>
	<path class="st2" d="M146.56,161.9l0.23-30.06l-59.02-4.02c-10.75-0.73-18.88-10.04-18.14-20.8c0.73-10.75,10.05-18.88,20.8-18.14
		l98.78,6.73c7.43,0.51,13.93,5.2,16.74,12.1c2.81,6.9,1.46,14.8-3.5,20.36l-25.47,28.58L146.56,161.9z"/>
	<path class="st3" d="M146.72,131.91l-34.78,39.02c-7.17,8.05-6.46,20.39,1.59,27.56c8.05,7.18,20.39,6.46,27.56-1.58l35.89-40.26
		L146.72,131.91z"/>
	<path class="st4" d="M207.71,304.6l-41.69,40.45L61.41,243.08c-10.53-10.26-10.82-27.09-0.66-37.71l33.67-35.2
		c4.98-5.21,11.86-8.19,19.07-8.27c7.21-0.08,14.14,2.75,19.24,7.85l75.44,75.47C224.62,261.67,224.41,288.4,207.71,304.6z"/>
	<path class="st5" d="M148.61,280.8l-26.15-17.68l-9.57-29.08l31.15-3.46l18.5,12.51l72.39-23.84c10.24-3.37,21.27,2.2,24.64,12.44
		c3.37,10.24-2.19,21.27-12.43,24.64l-81.49,26.83C160.05,285.02,153.74,284.27,148.61,280.8z"/>
	<path class="st3" d="M82.03,235.77l40.43,27.34l21.57-32.53l-40.14-27.15c-8.93-6.04-21.06-3.7-27.1,5.23
		C70.76,217.6,73.1,229.73,82.03,235.77z"/>
	<path class="st5" d="M106.39,105.33c-17.01-16.27-43.99-15.68-60.27,1.33c-16.27,17.01-15.68,44,1.34,60.27
		c17.01,16.27,43.99,15.68,60.26-1.33C124,148.58,123.4,121.6,106.39,105.33z"/>
	<path class="st6" d="M173.52,382.85c-3.59,0-7.17-1.37-9.91-4.1L3.12,218.5c-5.48-5.47-5.49-14.35-0.02-19.84
		c5.47-5.48,14.35-5.49,19.84-0.02L183.43,358.9c5.48,5.47,5.49,14.35,0.02,19.84C180.71,381.48,177.12,382.85,173.52,382.85z"/>
	<path class="st7" d="M86.78,416.51l24.32-38.45l-29.2-18.47l-33.81,53.47C45.07,417.8,48.49,424,54.11,424h19.06
		C78.69,424,83.83,421.17,86.78,416.51z"/>
	<path class="st7" d="M475.21,413.05l-33.81-53.47l-29.21,18.47l24.32,38.45c2.96,4.67,8.09,7.5,13.61,7.5h19.06
		C474.8,424,478.21,417.8,475.21,413.05z"/>
	<path class="st8" d="M492.72,385.11H21.85c-9.54,0-17.28-7.73-17.28-17.28c0-9.54,7.73-17.27,17.28-17.27h470.87
		c9.54,0,17.28,7.73,17.28,17.27C510,377.37,502.27,385.11,492.72,385.11z"/>
</g>
</svg>
