<?xml version="1.0" encoding="utf-8"?>
<!-- Generator: Adobe Illustrator 25.1.0, SVG Export Plug-In . SVG Version: 6.00 Build 0)  -->
<svg version="1.1" id="Layer_1" xmlns="http://www.w3.org/2000/svg" xmlns:xlink="http://www.w3.org/1999/xlink" x="0px" y="0px"
	 viewBox="0 0 512 512" style="enable-background:new 0 0 512 512;" xml:space="preserve">
<style type="text/css">
	.st0{fill:#F98869;}
	.st1{opacity:0.38;fill:#781900;enable-background:new    ;}
	.st2{fill:#FFBCAB;}
	.st3{fill:#3C66B1;}
	.st4{fill:#B8D6FD;}
	.st5{fill:#FFF5CC;}
	.st6{fill:#315591;}
	.st7{opacity:0.58;fill:#315591;enable-background:new    ;}
</style>
<g>
	<path class="st0" d="M128.32,371.67v36.83h-80.6v-63.42h54.01C116.42,345.08,128.32,356.99,128.32,371.67z"/>
	<rect x="47.72" y="374.08" class="st1" width="80.6" height="26.08"/>
	<g>
		<path class="st0" d="M47.72,509.09H0V236.17h17.06c16.93,0,30.66,13.73,30.66,30.66L47.72,509.09L47.72,509.09L47.72,509.09z"/>
		<path class="st0" d="M512,509.09h-47.72V390.33c0-7.89,6.4-14.29,14.29-14.29H512V509.09z"/>
		<rect x="47.72" y="429.41" class="st0" width="416.56" height="37.01"/>
	</g>
	<rect x="47.72" y="392.39" class="st2" width="416.56" height="37.01"/>
	<rect id="SVGCleanerId_0" x="211.31" y="33.81" class="st3" width="203.09" height="289.94"/>
	<g>
		<rect id="SVGCleanerId_0_1_" x="211.31" y="33.81" class="st3" width="203.09" height="289.94"/>
	</g>
	<rect x="211.31" y="18.36" class="st3" width="203.09" height="305.39"/>
	<g>
		<rect x="297.52" y="33.81" class="st4" width="30.65" height="289.94"/>
		<rect x="211.31" y="163.45" class="st4" width="98.77" height="30.65"/>
		<rect x="308.6" y="163.45" class="st4" width="105.8" height="30.65"/>
	</g>
	<g>
		<path class="st5" d="M375.22,55.11c4.63,6.73,7.35,14.89,7.35,23.67c0,23.1-18.73,41.82-41.82,41.82c-4.38,0-8.6-0.68-12.56-1.92
			c7.54,10.96,20.17,18.15,34.47,18.15c23.1,0,41.82-18.73,41.82-41.82C404.48,76.29,392.18,60.44,375.22,55.11z"/>
		<path class="st5" d="M254.04,115.58c-4.33,0-7.84-3.51-7.84-7.84V84.19c0-4.33,3.51-7.84,7.84-7.84c4.33,0,7.84,3.51,7.84,7.84
			v23.56C261.87,112.08,258.36,115.58,254.04,115.58z"/>
		<path class="st5" d="M265.81,103.81h-23.55c-4.33,0-7.84-3.51-7.84-7.84s3.51-7.84,7.84-7.84h23.55c4.33,0,7.84,3.51,7.84,7.84
			S270.14,103.81,265.81,103.81z"/>
		<path class="st5" d="M263.38,278.04c-2.01,0-4.01-0.77-5.54-2.3l-16.66-16.66c-3.06-3.06-3.06-8.02,0-11.08
			c3.06-3.06,8.02-3.06,11.08,0l16.66,16.66c3.06,3.06,3.06,8.02,0,11.08C267.39,277.27,265.38,278.04,263.38,278.04z"/>
		<path class="st5" d="M246.72,278.04c-2.01,0-4.01-0.77-5.54-2.3c-3.06-3.06-3.06-8.02,0-11.08L257.84,248
			c3.06-3.06,8.02-3.06,11.08,0c3.06,3.06,3.06,8.02,0,11.08l-16.66,16.66C250.73,277.27,248.73,278.04,246.72,278.04z"/>
	</g>
	<rect x="183.65" y="2.91" class="st4" width="258.4" height="30.9"/>
	<g>
		<rect x="328.18" y="163.45" class="st6" width="20.69" height="30.65"/>
		<rect x="211.31" y="33.81" class="st7" width="203.09" height="20.69"/>
	</g>
	<rect x="47.72" y="447.92" class="st1" width="416.56" height="18.51"/>
</g>
</svg>
