<?xml version="1.0" encoding="utf-8"?>
<!-- Generator: Adobe Illustrator 25.2.0, SVG Export Plug-In . SVG Version: 6.00 Build 0)  -->
<svg version="1.1" id="Layer_1" xmlns="http://www.w3.org/2000/svg" xmlns:xlink="http://www.w3.org/1999/xlink" x="0px" y="0px"
	 viewBox="0 0 512 512" style="enable-background:new 0 0 512 512;" xml:space="preserve">
<style type="text/css">
	.st0{fill:#309651;}
	.st1{fill:#68DE8D;}
	.st2{fill:#CDF2F9;}
	.st3{fill:#A4E8F9;}
	.st4{fill:#FFFFFF;}
	.st5{fill:#F4E5E0;}
	.st6{fill:#71DDF9;}
	.st7{fill:#23C7F7;}
	.st8{fill:#6F6571;}
	.st9{fill:#5D5360;}
	.st10{fill:#E6D6D1;}
	.st11{fill:#FCF1F2;}
	.st12{fill:#FC8D94;}
	.st13{fill:#FA6F7C;}
</style>
<path class="st0" d="M475.8,359.9C436.8,442.1,353.1,499,256,499S75.2,442.1,36.2,359.9H475.8z"/>
<path class="st1" d="M499,256c0,37.2-8.3,72.4-23.3,103.9H36.2C21.3,328.4,13,293.2,13,256C13,121.8,121.8,13,256,13
	S499,121.8,499,256z"/>
<g>
	<path class="st2" d="M100,359.9l69.9,21l-7-175.4l-62.9-7L100,359.9z"/>
	<path class="st3" d="M103.5,380.8h66.4l-7-21H100v17.5C100,379.3,101.5,380.8,103.5,380.8z"/>
	<path class="st4" d="M124.4,247.3h14c1.9,0,3.5,1.6,3.5,3.5v63.6c0,1.9-1.6,3.5-3.5,3.5h-14c-1.9,0-3.5-1.6-3.5-3.5v-63.6
		C120.9,248.9,122.5,247.3,124.4,247.3z"/>
	<path class="st5" d="M257.9,149.2c-2.9,0-5.2-2.3-5.2-5.2V109l10.5-19v54C263.2,146.8,260.8,149.2,257.9,149.2z"/>
	<path class="st6" d="M162.9,380.8h40.9l49.4-7.4l57.2,7.4h21l7-175.4H162.9V380.8z"/>
	<path class="st7" d="M331.3,205.4h21v175.4h-21V205.4z"/>
	<path class="st8" d="M116.2,161.4h89.3l-42.6,44H87.4c-1.9,0-3.5-1.6-3.5-3.5V198c0-6.5,2.6-12.7,7.2-17.3l15.3-15.3
		C109,162.9,112.5,161.4,116.2,161.4z"/>
	<path class="st8" d="M257.6,299.8h-25.5c-3.9,0-7,3.1-7,7v53.1l65,7L257.6,299.8z"/>
	<path class="st9" d="M257.6,299.8v67.1l32.5-7v-53.1c0-3.9-3.1-7-7-7H257.6z"/>
	<path class="st5" d="M287.3,359.9h-79c-1.9,0-3.5,1.6-3.5,3.5v17.5h86v-17.5C290.8,361.4,289.2,359.9,287.3,359.9z"/>
	<path class="st10" d="M310.3,363.4v17.5h-21v-17.5c0-1.9-1.6-3.5-3.5-3.5h21C308.8,359.9,310.3,361.4,310.3,363.4z"/>
	<path class="st4" d="M327.8,268.3H187.3c-1.9,0-3.5-1.6-3.5-3.5v-24.5c0-1.9,1.6-3.5,3.5-3.5h140.5c1.9,0,3.5,1.6,3.5,3.5v24.5
		C331.3,266.8,329.7,268.3,327.8,268.3z"/>
	<path class="st11" d="M231.7,140.4h33.6c3.8,0,7.4,1.5,10,4.3l58.8,60.7H162.9l58.8-60.7C224.3,142,227.9,140.4,231.7,140.4
		L231.7,140.4z"/>
	<path class="st5" d="M352.3,205.4h-21l-58.8-60.7c-2.6-2.7-6.3-4.3-10.1-4.3h21c3.8,0,7.4,1.5,10.1,4.3L352.3,205.4z"/>
	<path class="st12" d="M284.5,109h-31.8V84.5c0-3.9,3.1-7,7-7h24.8c3.9,0,7,3.1,7,7V102C291.5,105.8,288.3,109,284.5,109z"/>
	<path class="st13" d="M310.3,84.5V102c0,3.9-3.1,7-7,7h-21c3.9,0,7-3.1,7-7V84.5c0-3.9-3.1-7-7-7h21
		C307.2,77.5,310.3,80.6,310.3,84.5z"/>
	<path class="st10" d="M256.9,184.4c-6.4,0-11.5-5.2-11.5-11.5c0-6.4,5.2-11.5,11.5-11.5s11.5,5.2,11.5,11.5
		C268.4,179.3,263.2,184.4,256.9,184.4L256.9,184.4z"/>
	<path class="st2" d="M393.5,380.8h-41.2V205.4H397v171.9C397,379.3,395.4,380.8,393.5,380.8L393.5,380.8z"/>
	<path class="st3" d="M415.2,205.4v154.5l-6.8,5.8l-14.2-5.8v-45.4l-12.8-26.9l12.8-36.7v-45.4L415.2,205.4z"/>
	<path class="st3" d="M392.8,380.8h-40.5v-21h44v17.5C396.3,379.3,394.7,380.8,392.8,380.8z"/>
	<path class="st6" d="M415.2,359.9v17.5c0,1.9-1.6,3.5-3.5,3.5h-21c1.9,0,3.5-1.6,3.5-3.5v-17.5H415.2z"/>
	<path class="st8" d="M380,161.4h-70.4l42.6,44h56.6c1.9,0,3.5-1.6,3.5-3.5V198c0-6.5-2.6-12.7-7.2-17.3l-15.3-15.3
		C387.3,162.9,383.7,161.4,380,161.4L380,161.4z"/>
	<path class="st9" d="M431.2,198v3.9c0,1.9-1.6,3.5-3.5,3.5h-21c1.9,0,3.5-1.6,3.5-3.5V198c0-6.5-2.6-12.7-7.2-17.3l-15.3-15.3
		c-2.6-2.6-6.2-4.1-9.9-4.1h21c3.7,0,7.3,1.5,9.9,4.1l15.3,15.3C428.7,185.3,431.2,191.6,431.2,198z"/>
	<path class="st4" d="M376.7,247.3h14c1.9,0,3.5,1.6,3.5,3.5v63.6c0,1.9-1.6,3.5-3.5,3.5h-14c-1.9,0-3.5-1.6-3.5-3.5v-63.6
		C373.2,248.9,374.8,247.3,376.7,247.3z"/>
	<g>
		<path class="st6" d="M284.8,236.9h10.5v31.5h-10.5V236.9z"/>
		<path class="st6" d="M219.8,236.9h10.5v31.5h-10.5V236.9z"/>
	</g>
</g>
</svg>
