<?xml version="1.0" encoding="utf-8"?>
<!-- Generator: Adobe Illustrator 25.2.0, SVG Export Plug-In . SVG Version: 6.00 Build 0)  -->
<svg version="1.1" id="Layer_1" xmlns="http://www.w3.org/2000/svg" xmlns:xlink="http://www.w3.org/1999/xlink" x="0px" y="0px"
	 viewBox="0 0 512 512" style="enable-background:new 0 0 512 512;" xml:space="preserve">
<style type="text/css">
	.st0{fill:#72CCE0;}
	.st1{fill:#353744;}
	.st2{fill:#808080;}
	.st3{fill:#55525B;}
	.st4{fill:#5C76B2;}
	.st5{fill:#6FA4D8;}
	.st6{fill:#F68820;}
	.st7{fill:#FBBE18;}
	.st8{fill:#DBDEE3;}
</style>
<circle class="st0" cx="256" cy="256" r="243"/>
<g>
	<g>
		<path class="st1" d="M367.4,303.2V121.4c0-13-10.5-23.5-23.5-23.5h35.2c13,0,23.5,10.5,23.5,23.5v181.8c0,9.7-7.9,17.6-17.6,17.6
			S367.4,312.9,367.4,303.2z"/>
	</g>
	<path class="st2" d="M396.7,320.8H385c-2.1,0-4-0.4-5.9-1.1v24.5c0,17.3-9.5,32.4-23.5,40.6v6.4c0,13-10.5,23.5-23.5,23.5
		c38.8,0,70.4-31.6,70.4-70.4v-24.5C400.7,320.4,398.8,320.8,396.7,320.8z"/>
	<g>
		<path class="st1" d="M379.1,86.3c-19.4,0-35.2,15.7-35.2,35.2v82.1h11.7v-82.1c0-13,10.5-23.5,23.5-23.5s23.5,10.5,23.5,23.5
			v181.8c0,9.7-7.9,17.6-17.6,17.6h11.7c9.7,0,17.6-7.9,17.6-17.6V121.4C414.3,102,398.6,86.3,379.1,86.3z"/>
	</g>
	<g>
		<g>
			<path class="st1" d="M273.6,203.5v-82.1c0-13-10.5-23.5-23.5-23.5h35.2c13,0,23.5,10.5,23.5,23.5v82.1H273.6z"/>
		</g>
		<g>
			<path class="st3" d="M285.3,86.3h-35.2c-19.4,0-35.2,15.7-35.2,35.2v82.1h35.2v-82.1C250.1,102,265.9,86.3,285.3,86.3z"/>
		</g>
		<g>
			<path class="st1" d="M285.3,86.3c-19.4,0-35.2,15.7-35.2,35.2v82.1h11.7v-82.1c0-13,10.5-23.5,23.5-23.5s23.5,10.5,23.5,23.5
				v82.1h11.7v-82.1C320.5,102,304.7,86.3,285.3,86.3z"/>
		</g>
	</g>
	<g>
		<g>
			<path class="st1" d="M367.4,303.2V121.4c0-13-10.5-23.5-23.5-23.5h35.2c13,0,23.5,10.5,23.5,23.5v181.8c0,9.7-7.9,17.6-17.6,17.6
				S367.4,312.9,367.4,303.2z"/>
		</g>
		<g>
			<path class="st3" d="M379.1,86.3H344c-19.4,0-35.2,15.7-35.2,35.2v82.1H344v-82.1C344,102,359.7,86.3,379.1,86.3z"/>
		</g>
	</g>
	<g>
		<path class="st4" d="M261.9,109.7h-58.6c-51.8,0-93.8,42-93.8,93.8v187.6c0,13,10.5,23.5,23.5,23.5h199.4
			c13,0,23.5-10.5,23.5-23.5V203.5C355.7,151.7,313.7,109.7,261.9,109.7z"/>
	</g>
	<g>
		<path class="st5" d="M203.2,109.7c-51.8,0-93.8,42-93.8,93.8v187.6c0,13,10.5,23.5,23.5,23.5h140.7c13,0,23.5-10.5,23.5-23.5
			V203.5C297,151.7,255,109.7,203.2,109.7z"/>
	</g>
	<g>
		<path class="st6" d="M250.1,238.7h-129c-13,0-23.5,10.5-23.5,23.5v105.5c0,13,10.5,23.5,23.5,23.5h129c13,0,23.5-10.5,23.5-23.5
			V262.2C273.6,249.2,263.1,238.7,250.1,238.7z"/>
	</g>
	<g>
		<path class="st7" d="M215,238.7h-93.8c-13,0-23.5,10.5-23.5,23.5v105.5c0,13,10.5,23.5,23.5,23.5H215c13,0,23.5-10.5,23.5-23.5
			V262.2C238.4,249.2,227.9,238.7,215,238.7z"/>
	</g>
	<g>
		<path class="st6" d="M97.7,273.9h140.7v11.7H97.7V273.9z"/>
	</g>
	<g>
		<path class="st8" d="M241.3,180.1h-79.2c-3.2,0-5.9-2.6-5.9-5.9s2.6-5.9,5.9-5.9h79.2c3.2,0,5.9,2.6,5.9,5.9
			S244.6,180.1,241.3,180.1z"/>
	</g>
	<g>
		<path class="st3" d="M320.5,203.5v17.6c0,3.2,2.6,5.9,5.9,5.9s5.9-2.6,5.9-5.9v-17.6c0-51.8-42-93.8-93.8-93.8h-11.7
			C278.5,109.7,320.5,151.7,320.5,203.5z"/>
	</g>
</g>
</svg>
