<?xml version="1.0" encoding="utf-8"?>
<!-- Generator: Adobe Illustrator 25.2.0, SVG Export Plug-In . SVG Version: 6.00 Build 0)  -->
<svg version="1.1" id="Layer_1" xmlns="http://www.w3.org/2000/svg" xmlns:xlink="http://www.w3.org/1999/xlink" x="0px" y="0px"
	 viewBox="0 0 512 512" style="enable-background:new 0 0 512 512;" xml:space="preserve">
<style type="text/css">
	.st0{fill:#72CCE0;}
	.st1{fill:#353744;}
	.st2{fill:#808080;}
	.st3{fill:#55525B;}
	.st4{fill:#5C76B2;}
	.st5{fill:#6FA4D8;}
	.st6{fill:#F68820;}
	.st7{fill:#FBBE18;}
	.st8{fill:#DBDEE3;}
	.st9{fill:#105C6E;}
	.st10{fill:#26879C;}
	.st11{fill:#DE513C;}
	.st12{fill:#FC6249;}
	.st13{fill:#E0DFD4;}
	.st14{fill:#F4F2E6;}
</style>
<circle class="st0" cx="256" cy="256" r="243"/>
<g>
	<g>
		<path class="st1" d="M247.2,329.3l-35.3-138.4c-2.5-9.9-12.6-15.8-22.4-13.3l26.8-6.8c9.9-2.5,19.9,3.4,22.4,13.3L274,322.5
			c1.9,7.4-2.6,14.9-10,16.8C256.6,341.2,249.1,336.7,247.2,329.3z"/>
	</g>
	<path class="st2" d="M272.9,337l-8.9,2.3c-1.6,0.4-3.1,0.5-4.7,0.3l4.8,18.7c3.4,13.2-0.9,26.5-10,35.4l1.2,4.8
		c2.5,9.9-3.4,19.9-13.3,22.4c29.5-7.5,47.4-37.7,39.9-67.2l-4.8-18.7C275.9,335.9,274.5,336.6,272.9,337z"/>
	<g>
		<path class="st1" d="M214,161.9c-14.8,3.8-23.7,18.8-20,33.6L210,258l8.9-2.3L203,193.2c-2.5-9.9,3.4-19.9,13.3-22.4
			s19.9,3.4,22.4,13.3L274,322.5c1.9,7.4-2.6,14.9-10,16.8l8.9-2.3c7.4-1.9,11.9-9.4,10-16.8l-35.3-138.4
			C243.8,167,228.8,158.1,214,161.9z"/>
	</g>
	<g>
		<g>
			<path class="st1" d="M156.4,271.6l-15.9-62.5c-2.5-9.9-12.6-15.8-22.4-13.3l26.8-6.8c9.9-2.5,19.9,3.4,22.4,13.3l15.9,62.5
				L156.4,271.6z"/>
		</g>
		<g>
			<path class="st3" d="M142.6,180.1l-26.8,6.8c-14.8,3.8-23.7,18.8-20,33.6l15.9,62.5l26.8-6.8l-15.9-62.5
				C118.8,198.9,127.8,183.9,142.6,180.1z"/>
		</g>
		<g>
			<path class="st1" d="M142.6,180.1c-14.8,3.8-23.7,18.8-20,33.6l15.9,62.5l8.9-2.3l-15.9-62.5c-2.5-9.9,3.4-19.9,13.3-22.4
				s19.9,3.4,22.4,13.3l15.9,62.5l8.9-2.3L176.2,200C172.4,185.2,157.4,176.3,142.6,180.1z"/>
		</g>
	</g>
	<g>
		<g>
			<path class="st1" d="M247.2,329.3l-35.3-138.4c-2.5-9.9-12.6-15.8-22.4-13.3l26.8-6.8c9.9-2.5,19.9,3.4,22.4,13.3L274,322.5
				c1.9,7.4-2.6,14.9-10,16.8C256.6,341.2,249.1,336.7,247.2,329.3z"/>
		</g>
		<g>
			<path class="st3" d="M214,161.9l-26.8,6.8c-14.8,3.8-23.7,18.8-20,33.6l15.9,62.5L210,258L194,195.5
				C190.3,180.7,199.2,165.6,214,161.9z"/>
		</g>
	</g>
	<g>
		<path class="st4" d="M129.3,202.5l-44.6,11.4c-39.5,10.1-63.3,50.2-53.2,89.6l36.4,142.9c2.5,9.9,12.6,15.8,22.4,13.3L242,421
			c9.9-2.5,15.8-12.6,13.3-22.4l-36.4-142.9C208.9,216.3,168.7,192.4,129.3,202.5z"/>
	</g>
	<g>
		<path class="st5" d="M84.6,213.9c-39.5,10.1-63.3,50.2-53.2,89.6l36.4,142.9c2.5,9.9,12.6,15.8,22.4,13.3l107.1-27.3
			c9.9-2.5,15.8-12.6,13.3-22.4l-36.4-142.9C164.2,227.6,124.1,203.8,84.6,213.9z"/>
	</g>
	<g>
		<path class="st6" d="M145.4,303L47.2,328c-9.9,2.5-15.8,12.6-13.3,22.4l20.5,80.4c2.5,9.9,12.6,15.8,22.4,13.3l98.2-25.1
			c9.9-2.5,15.8-12.6,13.3-22.4l-20.5-80.4C165.3,306.4,155.3,300.5,145.4,303z"/>
	</g>
	<g>
		<path class="st7" d="M118.6,309.8L47.2,328c-9.9,2.5-15.8,12.6-13.3,22.4l20.5,80.4c2.5,9.9,12.6,15.8,22.4,13.3l71.4-18.2
			c9.9-2.5,15.8-12.6,13.3-22.4L141,323.1C138.5,313.3,128.5,307.3,118.6,309.8z"/>
	</g>
	<g>
		<path class="st6" d="M36.1,359.4L143.3,332l2.3,8.9L38.4,368.3L36.1,359.4z"/>
	</g>
	<g>
		<path class="st8" d="M127.3,260L67,275.4c-2.5,0.6-5-0.9-5.6-3.3c-0.6-2.5,0.9-5,3.3-5.6l60.3-15.4c2.5-0.6,5,0.9,5.6,3.3
			C131.3,256.9,129.8,259.4,127.3,260z"/>
	</g>
	<g>
		<path class="st3" d="M192.1,262.5l3.4,13.4c0.6,2.5,3.1,4,5.6,3.3c2.5-0.6,4-3.1,3.3-5.6l-3.4-13.4C191,220.8,150.9,197,111.4,207
			l-8.9,2.3C141.9,199.3,182.1,223.1,192.1,262.5z"/>
	</g>
</g>
<g>
	<path class="st9" d="M311.2,108.8l-11.7-11.7c-2.7-2.7-6.3-4.2-10.1-4.2c-3.8,0-7.4,1.5-10.1,4.2l-8.5,8.5
		c-5.6,5.6-5.6,14.7,0,20.2l11.7,11.7c1.1,1.1,2.6,1.7,4.1,1.7s3-0.6,4.1-1.7c2.3-2.3,18.1-18.2,20.4-20.4
		C313.5,114.8,313.5,111.1,311.2,108.8z"/>
	<path class="st10" d="M352.6,70.3c-3.2,0-5.9,2.6-5.9,5.8v18.7c0,3.2,2.6,5.8,5.9,5.8s5.9-2.6,5.9-5.8V76.2
		C358.4,73,355.8,70.3,352.6,70.3z"/>
	<path class="st11" d="M367,69.2h-28.9c-3.2,0-5.9,2.6-5.9,5.8s2.6,5.8,5.9,5.8H367c3.2,0,5.9-2.6,5.9-5.8S370.2,69.2,367,69.2z"/>
	<path class="st12" d="M352.6,69.2h-14.4c-3.2,0-5.9,2.6-5.9,5.8s2.6,5.8,5.9,5.8h14.4V69.2z"/>
	<path class="st11" d="M416,115.4c-17-17-39.5-26.3-63.5-26.3s-46.5,9.3-63.5,26.3c-16.9,17-26.3,39.5-26.3,63.6
		c0,24,9.3,46.6,26.3,63.6c17,17,39.5,26.3,63.5,26.3s46.5-9.4,63.5-26.3c16.9-17,26.3-39.5,26.3-63.6
		C442.3,155,433,132.4,416,115.4z"/>
	<path class="st12" d="M352.6,89.1c-24,0-46.5,9.3-63.5,26.3c-16.9,17-26.3,39.5-26.3,63.6s9.3,46.6,26.3,63.6
		c17,17,39.5,26.3,63.5,26.3V89.1z"/>
	<path class="st13" d="M352.6,111.5c-37.1,0-67.4,30.3-67.4,67.5s30.2,67.5,67.4,67.5s67.4-30.3,67.4-67.5S389.7,111.5,352.6,111.5z
		"/>
	<path class="st14" d="M352.6,111.5c-37.1,0-67.4,30.3-67.4,67.5s30.2,67.5,67.4,67.5L352.6,111.5L352.6,111.5z"/>
	<g>
		<path class="st9" d="M352.6,126.1c3.2,0,5.9-2.6,5.9-5.8v-8.5c-1.9-0.2-3.9-0.3-5.9-0.3s-3.9,0.1-5.9,0.3v8.5
			C346.7,123.5,349.4,126.1,352.6,126.1z"/>
		<path class="st9" d="M352.6,231.9c-3.2,0-5.9,2.6-5.9,5.9v8.5c1.9,0.2,3.9,0.3,5.9,0.3s3.9-0.1,5.9-0.3v-8.5
			C358.4,234.5,355.8,231.9,352.6,231.9z"/>
		<path class="st9" d="M419.7,173.1h-8.4c-3.2,0-5.9,2.6-5.9,5.9s2.6,5.9,5.9,5.9h8.4c0.2-1.9,0.3-3.9,0.3-5.9
			S419.9,175.1,419.7,173.1z"/>
		<path class="st9" d="M299.7,179c0-3.2-2.6-5.9-5.9-5.9h-8.4c-0.2,1.9-0.3,3.9-0.3,5.9s0.1,3.9,0.3,5.9h8.4
			C297.1,184.8,299.7,182.2,299.7,179z"/>
		<path class="st9" d="M367,175.6h-8.2v-23.7c0-3.2-2.6-5.9-5.9-5.9s-5.9,2.6-5.9,5.9v29.5c0,3.2,2.6,5.9,5.9,5.9H367
			c3.2,0,5.9-2.6,5.9-5.9S370.2,175.6,367,175.6z"/>
	</g>
</g>
</svg>
