<?xml version="1.0" encoding="utf-8"?>
<!-- Generator: Adobe Illustrator 25.1.0, SVG Export Plug-In . SVG Version: 6.00 Build 0)  -->
<svg version="1.1" id="Layer_1" xmlns="http://www.w3.org/2000/svg" xmlns:xlink="http://www.w3.org/1999/xlink" x="0px" y="0px"
	 viewBox="0 0 512 512" style="enable-background:new 0 0 512 512;" xml:space="preserve">
<style type="text/css">
	.st0{fill:#007BC4;}
	.st1{fill:#F4FBFF;}
	.st2{fill:#DAF1F4;}
	.st3{fill:#365E7D;}
	.st4{fill:#2B4D66;}
</style>
<circle class="st0" cx="256" cy="256" r="243.05"/>
<g>
	<path class="st1" d="M349.3,266.52c7.05-27.4,6.06-65.52-1.56-92.99c-2.08-7.5,0.04-15.53,5.54-21.03l6.04-6.04
		c5.72-5.72,6.14-15.04,0.63-20.96c-5.79-6.21-15.52-6.34-21.47-0.39l-0.89,0.89c-6.54,6.54-16.5,8.16-24.81,4.1
		c-50.71-24.8-150.69-22.36-202.65,2.15c-8.23,3.88-18,2.15-24.43-4.28l-2.86-2.86c-5.83-5.83-15.27-5.83-21.1,0
		c-5.83,5.83-5.83,15.27,0,21.1l6.59,6.59c5.6,5.6,7.66,13.81,5.43,21.41c-7.93,26.98-8.82,64.77-1.54,91.7
		c2.02,7.46-0.1,15.43-5.57,20.9l-4.91,4.91c-5.83,5.83-5.83,15.27,0,21.1c5.83,5.83,15.27,5.83,21.1,0l1.88-1.88
		c6.25-6.25,15.72-8.12,23.81-4.56c53.24,23.38,153.69,26.2,205.66,2.1c8.2-3.8,17.9-2.05,24.29,4.34c5.83,5.83,15.27,5.83,21.1,0
		c5.83-5.83,5.83-15.27,0-21.1l-4.62-4.62C349.57,281.72,347.4,273.89,349.3,266.52L349.3,266.52z"/>
	<path class="st2" d="M359.57,291.72c-1.4-2.06-14.14-10.17-10.27-25.2c6.87-26.69,6.26-64.92-1.6-93.15
		c-2.07-7.43,0.12-15.41,5.58-20.87l6.04-6.04c5.72-5.72,6.14-15.04,0.63-20.96c-5.79-6.21-15.52-6.34-21.47-0.39l-0.29,0.29
		c0.03,0.04,0.07,0.07,0.11,0.1c5.51,5.92,5.09,15.24-0.63,20.96l-6.04,6.04c-5.5,5.5-7.61,13.54-5.53,21.04
		c0.13,0.46,0.25,0.93,0.38,1.39c5.78,21.76-6.03,44.13-26.97,52.39c-40.53,15.98-70.38,53.18-75.87,97.9
		c34.18-0.55,67.24-5.94,90.55-16.76c8.07-3.74,17.59-2.09,23.98,4.06c0.1,0.1,0.21,0.18,0.3,0.28c5.82,5.83,15.27,5.83,21.09,0
		C365.4,306.99,365.4,297.54,359.57,291.72L359.57,291.72z"/>
	<circle class="st3" cx="343.94" cy="340.14" r="104.78"/>
	<path class="st4" d="M343.94,235.36c-2.78,0-5.53,0.11-8.25,0.32c54.01,4.21,96.53,49.37,96.53,104.46S389.7,440.39,335.69,444.6
		c2.72,0.21,5.48,0.32,8.25,0.32c57.87,0,104.78-46.91,104.78-104.78S401.81,235.36,343.94,235.36L343.94,235.36z"/>
	<circle class="st1" cx="343.94" cy="340.14" r="78.16"/>
	<path class="st2" d="M343.94,261.98c-3.62,0-7.18,0.25-10.67,0.73c38.11,5.21,67.48,37.89,67.48,77.43s-29.37,72.22-67.48,77.43
		c3.49,0.48,7.05,0.73,10.67,0.73c43.17,0,78.16-34.99,78.16-78.16C422.1,296.97,387.11,261.98,343.94,261.98z"/>
	<g>
		<g>
			<path class="st3" d="M343.94,291.94c-3.26,0-5.91-2.64-5.91-5.91v-2.71c0-3.26,2.64-5.91,5.91-5.91c3.26,0,5.91,2.64,5.91,5.91
				v2.71C349.85,289.3,347.21,291.94,343.94,291.94z"/>
		</g>
		<g>
			<path class="st3" d="M382.2,307.79c-1.51,0-3.02-0.58-4.18-1.73c-2.31-2.31-2.31-6.05,0-8.35l1.91-1.91
				c2.31-2.31,6.05-2.31,8.35,0c2.31,2.31,2.31,6.05,0,8.35l-1.91,1.91C385.22,307.21,383.71,307.79,382.2,307.79L382.2,307.79z"/>
		</g>
		<g>
			<path class="st3" d="M400.75,346.05h-2.71c-3.26,0-5.91-2.64-5.91-5.91c0-3.26,2.64-5.91,5.91-5.91h2.71
				c3.26,0,5.91,2.64,5.91,5.91C406.66,343.4,404.02,346.05,400.75,346.05z"/>
		</g>
		<g>
			<path class="st3" d="M289.84,346.05h-2.71c-3.26,0-5.91-2.64-5.91-5.91c0-3.26,2.64-5.91,5.91-5.91h2.71
				c3.26,0,5.91,2.64,5.91,5.91C295.75,343.4,293.1,346.05,289.84,346.05z"/>
		</g>
		<g>
			<path class="st3" d="M384.11,386.22c-1.51,0-3.02-0.58-4.18-1.73l-1.91-1.91c-2.31-2.31-2.31-6.05,0-8.35
				c2.31-2.31,6.05-2.31,8.35,0l1.91,1.91c2.31,2.31,2.31,6.05,0,8.35C387.14,385.64,385.63,386.22,384.11,386.22L384.11,386.22z"/>
		</g>
		<g>
			<path class="st3" d="M343.94,402.85c-3.26,0-5.91-2.64-5.91-5.91v-2.7c0-3.26,2.64-5.91,5.91-5.91c3.26,0,5.91,2.64,5.91,5.91
				v2.7C349.85,400.21,347.21,402.85,343.94,402.85z"/>
		</g>
		<g>
			<path class="st3" d="M303.77,386.22c-1.51,0-3.02-0.58-4.18-1.73c-2.31-2.31-2.31-6.05,0-8.35l1.91-1.91
				c2.31-2.31,6.05-2.31,8.35,0c2.31,2.31,2.31,6.05,0,8.35l-1.91,1.91C306.8,385.64,305.29,386.22,303.77,386.22z"/>
		</g>
		<g>
			<path class="st3" d="M305.69,307.79c-1.51,0-3.02-0.58-4.18-1.73l-1.91-1.91c-2.31-2.31-2.3-6.05,0-8.35
				c2.31-2.3,6.05-2.31,8.35,0l1.91,1.91c2.31,2.31,2.3,6.05,0,8.35C308.71,307.21,307.2,307.79,305.69,307.79z"/>
		</g>
	</g>
	<g>
		<path class="st4" d="M343.95,346.05c-1.36,0-2.7-0.47-3.79-1.37l-13.72-11.46c-2.5-2.09-2.84-5.82-0.74-8.32
			c2.09-2.5,5.82-2.84,8.32-0.74l4.03,3.36V307.4c0-3.26,2.64-5.91,5.91-5.91s5.91,2.64,5.91,5.91v32.74c0,2.29-1.33,4.38-3.4,5.35
			C345.65,345.86,344.79,346.05,343.95,346.05L343.95,346.05z"/>
	</g>
	<g>
		<g>
			<path class="st3" d="M405.95,221.11h-16.59c-2.2,0-4.21-1.22-5.23-3.16c-1.02-1.94-0.88-4.29,0.37-6.1l9.54-13.83h-4.26
				c-3.26,0-5.91-2.64-5.91-5.91s2.64-5.91,5.91-5.91h15.5c2.2,0,4.21,1.22,5.23,3.16c1.02,1.94,0.88,4.29-0.37,6.1l-9.54,13.83
				h5.35c3.26,0,5.91,2.64,5.91,5.91C411.86,218.47,409.21,221.11,405.95,221.11L405.95,221.11z"/>
		</g>
	</g>
	<g>
		<g>
			<path class="st3" d="M448.73,202.8h-22.1c-2.2,0-4.21-1.22-5.23-3.16c-1.02-1.94-0.88-4.29,0.37-6.1l14.82-21.49h-9.4
				c-3.26,0-5.91-2.64-5.91-5.91c0-3.26,2.64-5.91,5.91-5.91h20.65c2.2,0,4.21,1.22,5.23,3.16c1.02,1.94,0.88,4.29-0.37,6.1
				l-14.82,21.49h10.85c3.26,0,5.91,2.64,5.91,5.91S451.99,202.8,448.73,202.8L448.73,202.8z"/>
		</g>
	</g>
</g>
</svg>
