<svg id="Layer_1" enable-background="new 0 0 497 497" height="512" viewBox="0 0 497 497" width="512" xmlns="http://www.w3.org/2000/svg"><g><g><g><g><g><path d="m427.98 194.42h-123.121v-66.777c0-26.781 21.711-48.492 48.492-48.492h26.137c26.781 0 48.492 21.711 48.492 48.492z" fill="#cf8230"/><path d="m379.488 79.15h-26.137c-.648 0-1.29.024-1.931.049 25.885 1.015 46.561 22.31 46.561 48.443v66.777h30v-66.777c-.001-26.781-21.711-48.492-48.493-48.492z" fill="#c7751e"/><g><g><g><path d="m334.13 134.848c-16.166 0-29.271 13.105-29.271 29.271v36.959c0 33.813 27.522 61.224 61.472 61.224h.177c33.95 0 61.472-27.411 61.472-61.224v-36.959c0-16.166-13.105-29.271-29.271-29.271z" fill="#ffdbb5"/></g></g></g><path d="m398.709 134.848h-30c16.166 0 29.271 13.105 29.271 29.271v36.959c0 28.69-19.818 52.762-46.561 59.4 4.775 1.185 9.768 1.824 14.911 1.824h.177c33.95 0 61.472-27.411 61.472-61.224v-36.959c.001-16.166-13.104-29.271-29.27-29.271z" fill="#ffd1a1"/></g><path d="m444.218 335.245-40.155 107.49h-75.024l-40.155-107.49-.261-18.86c0-29.59 23.987-53.577 53.577-53.577h48.442c29.59 0 53.577 23.987 53.577 53.577v18.86z" fill="#5d76cf"/><path d="m390.64 262.808h-30c29.59 0 53.577 23.987 53.577 53.577v18.86h30v-18.86c.001-29.59-23.987-53.577-53.577-53.577z" fill="#4d69cf"/><g fill="#ffdbb5"><path d="m404.062 335.245h40.155v107.667h-40.155z"/><path d="m288.882 335.245h40.155v107.667h-40.155z"/></g></g></g><g><g><g><g><g><g><path d="m183.411 139.457c-26.184 0-47.41 21.226-47.41 47.41v60.777c0 26.04 21.196 47.15 47.342 47.15h.136c26.146 0 47.342-21.11 47.342-47.15v-60.777c-.001-26.184-21.227-47.41-47.41-47.41z" fill="#ffdbb5"/></g></g></g><path d="m183.411 139.457c-5.245 0-10.284.864-15 2.437 18.829 6.278 32.41 24.034 32.41 44.973v60.777c0 20.842-13.583 38.513-32.41 44.743 4.696 1.554 9.712 2.408 14.932 2.408h.136c26.146 0 47.342-21.11 47.342-47.15v-60.777c-.001-26.185-21.227-47.411-47.41-47.411z" fill="#ffd1a1"/><path d="m246.935 442.734h-127.049v-104.281c0-24.161 19.586-43.747 43.747-43.747h39.554c24.161 0 43.747 19.586 43.747 43.747v104.281z" fill="#ffd52b"/><path d="m203.188 294.706h-30c24.161 0 43.747 19.586 43.747 43.747v104.281h30v-104.281c0-24.161-19.586-43.747-43.747-43.747z" fill="#fcca00"/><g fill="#ffdbb5"><path d="m119.886 346.452h32.788v96.282h-32.788z"/><path d="m214.147 346.452h32.788v96.282h-32.788z"/></g></g><path d="m230.82 207.799h-16.673l-15.87-16.927-14.867 16.927h-47.13v-21.144c0-26.067 21.132-47.199 47.199-47.199h.143c26.067 0 47.199 21.132 47.199 47.199v21.144z" fill="#cf8230"/><g><path d="m183.622 139.457h-.143c-5.219 0-10.235.86-14.929 2.424 18.748 6.249 32.27 23.927 32.27 44.775v6.929l13.327 14.215h16.673v-21.144c0-26.068-21.131-47.199-47.198-47.199z" fill="#c7751e"/></g></g></g><g><g fill="#e9f0f5"><path d="m46.584 464.784h35.789v32.216h-35.789z"/><path d="m414.632 464.784h35.789v32.216h-35.789z"/></g><path d="m0 442.734h497v32.05h-497z" fill="#cf8230"/></g><g><path d="m268.5 442.912h-138.316c0-10.639 7.805-19.667 18.333-21.205l81.659-11.927c20.205-2.952 38.324 12.713 38.324 33.132z" fill="#e9f0f5"/><path d="m230.177 409.779-13.066 1.908c12.386 4.816 21.389 16.834 21.389 31.224h30c0-20.418-18.119-36.083-38.323-33.132z" fill="#dde3e8"/><path d="m268.5 442.912h138.316c0-10.639-7.805-19.667-18.333-21.205l-81.659-11.927c-20.205-2.952-38.324 12.713-38.324 33.132z" fill="#e9f0f5"/></g><g><g fill="#5d76cf"><path d="m74.777 329.392c-.012-4.136-3.367-7.479-7.5-7.479-.007 0-.014 0-.021 0-4.143.012-7.491 3.379-7.479 7.521l.127 46.143c.012 4.136 3.367 7.479 7.5 7.479h.021c4.143-.012 7.491-3.379 7.479-7.521z"/><path d="m43.95 333.678c-4.143 0-7.5 3.357-7.5 7.5v34.377c0 4.143 3.357 7.5 7.5 7.5s7.5-3.357 7.5-7.5v-34.377c0-4.143-3.357-7.5-7.5-7.5z"/></g><path d="m57.686 442.734h-4.059c-12.402 0-22.456-10.054-22.456-22.456v-44.724h48.971v44.724c0 12.403-10.054 22.456-22.456 22.456z" fill="#2ae88f"/></g></g><g fill="#e9f0f5"><path d="m47.917 254.497c-4.143 0-7.5 3.357-7.5 7.5 0 .538-.037 1.078-.111 1.608-.789 5.653-5.647 9.85-11.353 9.85-.078 0-.156-.001-.235-.002-5.973-.12-10.893-4.88-11.201-10.836-.165-3.183.947-6.203 3.133-8.506 2.188-2.304 5.139-3.572 8.309-3.572 4.143 0 7.5-3.357 7.5-7.5v-19.824c0-4.143-3.357-7.5-7.5-7.5s-7.5 3.357-7.5 7.5v13.419c-4.416 1.313-8.472 3.765-11.687 7.149-5.046 5.315-7.615 12.279-7.235 19.611.715 13.772 12.082 24.777 25.88 25.055.181.004.36.006.541.006 13.165 0 24.38-9.704 26.204-22.772.17-1.214.256-2.453.256-3.686-.001-4.143-3.358-7.5-7.501-7.5z"/><path d="m29.212 206.47c9.652 0 9.668-15 0-15-9.651 0-9.667 15 0 15z"/><path d="m103.318 216.531c-.715-13.771-12.082-24.777-25.88-25.056-.181-.004-.36-.006-.541-.006-13.165 0-24.38 9.704-26.204 22.773-.169 1.209-.255 2.448-.255 3.685 0 4.143 3.357 7.5 7.5 7.5s7.5-3.357 7.5-7.5c0-.542.037-1.082.11-1.607.789-5.654 5.647-9.851 11.353-9.851.078 0 .156.001.234.002 5.973.121 10.894 4.881 11.202 10.837.165 3.183-.947 6.203-3.133 8.506-2.188 2.304-5.139 3.572-8.309 3.572-4.143 0-7.5 3.357-7.5 7.5v19.824c0 4.143 3.357 7.5 7.5 7.5s7.5-3.357 7.5-7.5v-13.419c4.416-1.313 8.472-3.765 11.687-7.149 5.047-5.315 7.616-12.279 7.236-19.611z"/><path d="m76.642 273.455c-9.652 0-9.668 15 0 15 9.652 0 9.668-15 0-15z"/></g><g><path d="m209.585 0c31.701-.081 57.995 25.505 58.716 57.199.223 9.781-1.952 19.024-5.971 27.194l15.67 30.655-29.483-12.585c-10.682 9.443-24.826 15.051-40.271 14.663-31.297-.787-56.667-26.47-57.069-57.774-.419-32.699 25.919-59.269 58.408-59.352z" fill="#e9f0f5"/><path d="m262.33 84.393c4.019-8.169 6.194-17.413 5.971-27.194-.721-31.693-27.015-57.28-58.716-57.199-5.154.013-10.151.698-14.913 1.963 24.556 6.537 43.027 28.748 43.63 55.236.613 26.965-17.464 51.073-43.507 57.988 18.724 4.976 39.239.082 53.723-12.724l29.482 12.585z" fill="#dde3e8"/><g><g><path d="m183.411 66.072c9.652 0 9.668-15 0-15-9.652 0-9.668 15 0 15z" fill="#fff"/></g><g><path d="m209.13 66.072c9.652 0 9.668-15 0-15-9.652 0-9.668 15 0 15z" fill="#fff"/></g><g><path d="m234.849 66.072c9.652 0 9.668-15 0-15-9.652 0-9.668 15 0 15z" fill="#fff"/></g></g></g></g></svg>