<svg id="Capa_1" enable-background="new 0 0 497 497" height="512" viewBox="0 0 497 497" width="512" xmlns="http://www.w3.org/2000/svg"><g><path d="m497 248.5c0 88.413-46.172 166.042-115.719 210.089-38.411 24.327-132.781 29.422-132.781 29.422s-68.121-8.452-125.127-49.191c-59.259-42.35-107.49-118.33-107.49-188.281 0-79.045 21.023-151.508 78.543-197.022 42.351-33.511 95.876-53.517 154.074-53.517 137.243 0 248.5 111.257 248.5 248.5z" fill="#e27c48"/><path d="m445.247 154.125c-24.287-23.883-63.336-23.556-87.22.73-23.883 24.287 1.833 84.432 1.833 84.432s62.233 26.344 86.116 2.057 23.558-63.336-.729-87.219z" fill="#fcf7ed"/><path d="m449.302 237.686c-1.05 1.25-2.15 2.47-3.32 3.66-23.89 24.29-62.94 24.61-87.22.73-24.29-23.88-24.62-62.93-.73-87.22 2.71-2.76 5.62-5.21 8.68-7.34-20.48 24.41-19.05 60.85 4.05 83.56 21.52 21.17 54.65 23.32 78.54 6.61z" fill="#f7e5c1"/><path d="m382.376 180.609c3.33-3.386 4.924-7.821 4.815-12.222-.034-1.349.763-2.588 2.048-3.001 12.449-4.005 26.73-.79 36.259 9.715 9.968 10.99 11.524 27.058 4.741 39.652-1.344 2.495-9.336 5.47-9.336 5.47s-26.403 12.61-40.265-1.021c-9.641-9.481-14.34-12.462-10.459-24.511.412-1.278 1.647-2.067 2.989-2.033 3.242.082 3.275-7.795 6.117-9.569 1.101-.686 2.14-1.513 3.091-2.48z" fill="#8c818f"/><path d="m430.952 213.336c-1.44 3.02-3.35 5.87-5.73 8.43-13.31 14.36-35.75 14.8-49.61 1.17-9.64-9.48-12.54-23.23-8.66-35.28.41-1.28 1.65-2.06 2.99-2.03 3.24.08 6.5-.76 9.34-2.54-.05 9.01 3.4 18.03 10.33 24.85 11.28 11.09 28.25 12.87 41.34 5.4z" fill="#766d78"/><path d="m277.845 154.125c-24.287-23.883-63.336-23.556-87.22.73s1.833 84.432 1.833 84.432 62.233 26.344 86.116 2.057c23.885-24.286 23.558-63.336-.729-87.219z" fill="#fcf7ed"/><path d="m281.9 237.686c-1.05 1.25-2.15 2.47-3.32 3.66-23.89 24.29-62.94 24.61-87.22.73-24.29-23.88-24.62-62.93-.73-87.22 2.71-2.76 5.62-5.21 8.68-7.34-20.48 24.41-19.05 60.85 4.05 83.56 21.52 21.17 54.65 23.32 78.54 6.61z" fill="#f7e5c1"/><path d="m416.75 431.38c-44.27 40.74-103.35 65.62-168.25 65.62-137.24 0-248.5-111.26-248.5-248.5 0-90.32 48.18-169.38 120.25-212.88-49.34 45.42-80.25 110.54-80.25 182.88 0 137.24 111.26 248.5 248.5 248.5 46.92 0 90.81-13.01 128.25-35.62z" fill="#d1653f"/><path d="m223.651 80.181 71.765 41.751c7.754 4.511 10.383 14.454 5.872 22.209-4.188 7.198-18.114 4.195-25.567.948l-66.439-28.914c-10.697-4.645-20.263-15.455-15.618-26.153 4.645-10.697 17.083-15.604 27.78-10.958.727.317 1.533.732 2.207 1.117z" fill="#b36d3c"/><path d="m301.289 144.14c-4.196 7.199-13.061 9.973-20.518 6.731l-76.155-33.067c-10.617-4.606-15.519-16.908-11.051-27.551 2.899 4.195 7.171 7.822 12.453 10.185l92.366 41.267c1.168.524 2.343.937 3.528 1.253-.196.403-.4.799-.623 1.182z" fill="#995e34"/><path d="m413.739 80.181-71.765 41.751c-7.754 4.511-10.383 14.454-5.872 22.209 4.188 7.198 18.114 4.195 25.567.948l66.439-28.914c10.697-4.645 20.263-15.455 15.618-26.153-4.645-10.697-17.083-15.604-27.78-10.958-.728.317-1.534.732-2.207 1.117z" fill="#b36d3c"/><path d="m336.101 144.14c4.196 7.199 13.061 9.973 20.518 6.731l76.155-33.067c10.617-4.606 15.519-16.908 11.051-27.551-2.899 4.195-7.171 7.822-12.453 10.185l-92.366 41.267c-1.168.524-2.343.937-3.528 1.253.195.403.4.799.623 1.182z" fill="#995e34"/><path d="m443.539 413.287-258.443-2.202c-8.284 0-15-6.716-15-15l-1.021-89.57c0-8.284 1.358-20.016 9.643-20.016h275.081c8.284 0 15 6.716 15 15v100c-.001 8.285-16.976 11.788-25.26 11.788z" fill="#8c818f"/><path d="m468.8 401.5c0 8.28-6.72 15-15 15h-275.08c-8.284 0-15-6.716-15-15v-100c0-8.28 6.71-15 15-15v105c0 5.523 4.477 10 10 10z" fill="#766d78"/><g fill="#fcf7ed"><path d="m328.228 331.049 3.136-15.087c.843-4.056-1.761-8.026-5.817-8.869-4.051-.842-8.026 1.76-8.87 5.816l-3.77 18.139h-10.047l3.136-15.086c.843-4.056-1.761-8.026-5.817-8.869-4.055-.842-8.026 1.76-8.87 5.816l-3.77 18.139h-3.074c-4.142 0-7.5 3.357-7.5 7.5 0 4.128 3.335 7.474 7.456 7.498l-2.186 10.517h-3.046c-4.142 0-7.5 3.357-7.5 7.5 0 4.119 3.32 7.458 7.429 7.496l-3.222 15.499c-.843 4.056 1.761 8.026 5.817 8.869.515.107 1.028.159 1.534.159 3.479 0 6.599-2.435 7.335-5.976l3.856-18.548h10.047l-3.221 15.495c-.843 4.056 1.761 8.026 5.817 8.869.515.107 1.028.159 1.534.159 3.479 0 6.599-2.435 7.335-5.976l3.856-18.548h3.122c4.142 0 7.5-3.357 7.5-7.5s-3.358-7.5-7.5-7.5h-.004l2.186-10.515h3.095c4.142 0 7.5-3.357 7.5-7.5 0-4.133-3.346-7.485-7.477-7.497zm-20.625 25.513h-10.047l2.186-10.515h10.047z"/><path d="m250.649 371.896c4.9-6.682 8.217-11.977 8.421-12.304 2.193-3.514 1.123-8.139-2.39-10.332-3.512-2.195-8.139-1.126-10.333 2.388-.04.063-2.288 3.647-5.754 8.54l-12.8-14.902c1.494-1.033 2.854-2.059 4.118-3.123 8.3-6.994 10.611-16.777 5.888-24.923-5.088-8.775-16.581-12.595-26.737-8.877-1.645.603-3.052 1.301-4.303 2.136-4.493 2.996-7.525 7.909-8.32 13.479-.779 5.461.716 10.902 4.153 14.988l2.248 2.617c-8.622 5.021-14.462 13.649-15.645 23.14-1.129 9.061 2.017 17.675 8.858 24.256 4.842 4.658 10.839 7.096 17.415 7.096.447 0 .897-.012 1.349-.034 10.026-.501 18.903-6.417 24.312-12.207l7.371 8.581c2.699 3.144 7.435 3.503 10.576.803 3.142-2.699 3.501-7.434.803-10.576zm-37.36-45.799c.189-1.331.86-2.498 1.793-3.12.17-.113.506-.298 1.136-.529.976-.356 1.947-.515 2.873-.515 2.583 0 4.805 1.235 5.73 2.831 1.209 2.085-.735 4.374-2.578 5.928-1.19 1.003-2.622 2.035-4.295 3.133l-3.927-4.572c-.642-.765-.909-1.915-.732-3.156zm17.551 46.742c-3.977 4.674-9.913 7.978-14.771 8.22-2.946.148-5.441-.798-7.616-2.891-4.293-4.129-4.747-8.582-4.372-11.59.613-4.919 3.773-9.448 8.453-12.116.776-.442 1.529-.872 2.26-1.289l16.466 19.171c-.139.165-.279.33-.42.495z"/><g><path d="m413.426 307.101c-3.821-1.601-8.215.195-9.818 4.014l-30.809 73.41c-1.603 3.819.194 8.215 4.013 9.818.948.397 1.932.586 2.899.586 2.931 0 5.714-1.729 6.919-4.6l30.809-73.41c1.603-3.819-.193-8.215-4.013-9.818z"/><path d="m387.93 326.414c0-12.858-9.471-23.319-21.113-23.319s-21.113 10.461-21.113 23.319c0 12.857 9.471 23.318 21.113 23.318s21.113-10.46 21.113-23.318zm-21.113 8.319c-3.313 0-6.113-3.81-6.113-8.318 0-4.51 2.799-8.319 6.113-8.319s6.113 3.81 6.113 8.319c0 4.508-2.799 8.318-6.113 8.318z"/><path d="m422.426 353.287c-11.642 0-21.113 10.461-21.113 23.318 0 12.858 9.471 23.319 21.113 23.319s21.113-10.461 21.113-23.319c0-12.857-9.471-23.318-21.113-23.318zm0 31.638c-3.314 0-6.113-3.81-6.113-8.319s2.799-8.318 6.113-8.318c3.313 0 6.113 3.81 6.113 8.318 0 4.509-2.799 8.319-6.113 8.319z"/></g></g><path d="m214.974 180.609c3.33-3.386 4.924-7.821 4.815-12.222-.034-1.349.763-2.588 2.048-3.001 12.449-4.005 26.73-.79 36.259 9.715 9.968 10.99 11.524 27.058 4.741 39.652-1.344 2.495-9.336 5.47-9.336 5.47s-26.403 12.61-40.265-1.021c-9.641-9.481-14.34-12.462-10.459-24.511.412-1.278 1.647-2.067 2.989-2.033 3.242.082 3.275-7.795 6.117-9.569 1.101-.686 2.14-1.513 3.091-2.48z" fill="#8c818f"/><path d="m263.55 213.336c-1.44 3.02-3.35 5.87-5.73 8.43-13.31 14.36-35.75 14.8-49.61 1.17-9.64-9.48-12.54-23.23-8.66-35.28.41-1.28 1.65-2.06 2.99-2.03 3.24.08 6.5-.76 9.34-2.54-.05 9.01 3.4 18.03 10.33 24.85 11.28 11.09 28.25 12.87 41.34 5.4z" fill="#766d78"/></g></svg>