<svg id="Capa_1" enable-background="new 0 0 322.293 322.293" height="512" viewBox="0 0 322.293 322.293" width="512" xmlns="http://www.w3.org/2000/svg"><g><path d="m306.293 316.293-21.32 6h-116.327l-7.5-10-7.5 10h-143.646c-5.523 0-10-4.477-10-10v-302.293c0-5.523 4.477-10 10-10h143.639l8.495 10 6.702-10h116.599l22.858 10c5.523 0 10 4.477 10 10l-2 286.293c0 5.523-4.477 10-10 10z" fill="#f6f6f6"/><g><path d="m312.293 0h-30c5.523 0 10 4.477 10 10v302.293c0 5.523-4.477 10-10 10h30c5.523 0 10-4.477 10-10v-302.293c0-5.523-4.477-10-10-10z" fill="#e3e0e4"/></g><g><path d="m112.573 256.48v12c0 5.523-4.477 10-10 10h-44c-5.523 0-10-4.477-10-10v-12c0-5.523 4.477-10 10-10h44c5.523 0 10 4.477 10 10z" fill="#f7e365"/></g><g><path d="m209.72 256.48v12c0 5.523 4.477 10 10 10h44c5.523 0 10-4.477 10-10v-12c0-5.523-4.477-10-10-10h-44c-5.523 0-10 4.477-10 10z" fill="#f7e365"/></g><path d="m153.646 0h15v322.293h-15z" fill="#e3e0e4"/></g></svg>