<svg id="Capa_1" enable-background="new 0 0 512 512" height="512" viewBox="0 0 512 512" width="512" xmlns="http://www.w3.org/2000/svg"><g><circle cx="256" cy="256" fill="#6aa9ff" r="256"/><g><path d="m512 256c0-140.61-115.39-256-256-256v512c140.61 0 256-115.39 256-256z" fill="#4895ff"/></g><circle cx="256" cy="256" fill="#edf5ff" r="226"/><path d="m482 256c0-124.072-101.928-226-226-226v452c124.072 0 226-101.928 226-226z" fill="#d5e8fe"/><circle cx="128.721" cy="383.279" fill="#47568c" r="15"/><circle cx="383.279" cy="128.721" fill="#29376d" r="15"/><circle cx="128.721" cy="128.721" fill="#47568c" r="15"/><circle cx="383.279" cy="383.279" fill="#29376d" r="15"/><path d="m106 271h-30c-8.291 0-15-6.709-15-15s6.709-15 15-15h30c8.291 0 15 6.709 15 15s-6.709 15-15 15z" fill="#47568c"/><path d="m436 271h-30c-8.291 0-15-6.709-15-15s6.709-15 15-15h30c8.291 0 15 6.709 15 15s-6.709 15-15 15z" fill="#29376d"/><path d="m241 76v30c0 8.291 6.709 15 15 15v-60c-8.291 0-15 6.709-15 15z" fill="#47568c"/><path d="m271 106v-30c0-8.291-6.709-15-15-15v60c8.291 0 15-6.709 15-15z" fill="#ff7b4a"/><path d="m256 391c-8.291 0-15 6.709-15 15v30c0 8.291 6.709 15 15 15s15-6.709 15-15v-30c0-8.291-6.709-15-15-15z" fill="#47568c"/><path d="m356.605 335.395-85.605-85.606v-83.789c0-8.291-6.709-15-15-15s-15 6.709-15 15v90c0 3.984 1.582 7.793 4.395 10.605l10.605 10.606 79.395 79.395c5.859 5.859 15.352 5.859 21.211 0s5.859-15.352-.001-21.211z" fill="#47568c"/><g fill="#29376d"><path d="m271 106v-30c0-8.291-6.709-15-15-15v60c8.291 0 15-6.709 15-15z"/><path d="m271 436v-30c0-8.291-6.709-15-15-15v60c8.291 0 15-6.709 15-15z"/><path d="m356.605 356.605c5.859-5.859 5.859-15.352 0-21.211l-85.605-85.605v-83.789c0-8.291-6.709-15-15-15v126.211l79.395 79.395c5.859 5.859 15.351 5.859 21.21-.001z"/></g></g></svg>