<svg id="flat" height="512" viewBox="0 0 512 512" width="512" xmlns="http://www.w3.org/2000/svg"><path d="m288.852 100.569h128v64.135h-128z" fill="#ebebeb" transform="matrix(.707 -.707 .707 .707 9.56 288.352)"/><path d="m306.238 142.543h128v14.959h-128z" fill="#dbdbdb" transform="matrix(.707 -.707 .707 .707 2.358 305.738)"/><path d="m403.72 126.93-11.32 11.32-10.48-10.49 11.31-11.31z" fill="#dbdbdb"/><path d="m443.314 132.589-118.794 118.794-50.912 28.284-203.647 203.647a16 16 0 0 1 -22.627 0 16 16 0 0 1 0-22.628l203.647-203.646 50.911-28.285 118.794-118.794a16 16 0 0 1 22.628 0 16 16 0 0 1 0 22.628z" fill="#4799cf"/><path d="m367.432 77.961h16v64h-16z" fill="#cbcbcb" transform="matrix(.707 -.707 .707 .707 32.207 297.677)"/><path d="m403.72 126.93-11.32 11.32-10.48-10.49 11.31-11.31z" fill="#c3c3c3"/><path d="m344.804 100.589h16v64h-16z" fill="#cbcbcb" transform="matrix(.707 -.707 .707 .707 9.579 288.305)"/><path d="m322.177 123.216h16v64h-16z" fill="#cbcbcb" transform="matrix(.707 -.707 .707 .707 -13.048 278.932)"/><path d="m362.189 142.564h16.002v14.821h-16.002z" fill="#c3c3c3" transform="matrix(.707 -.707 .707 .707 2.309 305.527)"/><path d="m358.46 172.19-11.31 11.31-10.49-10.48 11.32-11.32z" fill="#c3c3c3"/><path d="m354.51 70.36a36.711 36.711 0 0 1 -10.79 26.06l-36.31 36.31a23.854 23.854 0 0 1 -37.91-5.74 24.2 24.2 0 0 1 4.25-28.49l30.3-30.3a24.191 24.191 0 0 0 6.62-21.84l-3.12-15.59 17.34 3.46a36.85 36.85 0 0 1 29.62 36.13z" fill="#04957c"/><path d="m345.82 61.13a36.747 36.747 0 0 1 -10.79 26.05l-36.32 36.32a23.8 23.8 0 0 1 -29.21 3.49 24.2 24.2 0 0 1 4.25-28.49l30.3-30.3a24.191 24.191 0 0 0 6.62-21.84l-3.12-15.59 17.34 3.46a36.736 36.736 0 0 1 14.87 6.65 36.771 36.771 0 0 1 6.06 20.25z" fill="#05bf9f"/><g fill="#fbb540"><path d="m144 24-4.686 9.373a61.074 61.074 0 0 1 -35.314 30.627 61.074 61.074 0 0 1 35.314 30.627l4.686 9.373 4.686-9.373a61.074 61.074 0 0 1 35.314-30.627 61.074 61.074 0 0 1 -35.314-30.627z"/><path d="m184 152-3.749 7.5a48.857 48.857 0 0 1 -28.251 24.5 48.857 48.857 0 0 1 28.251 24.5l3.749 7.5 3.749-7.5a48.857 48.857 0 0 1 28.251-24.5 48.857 48.857 0 0 1 -28.251-24.5z"/><path d="m216 88-2.812 5.624a36.645 36.645 0 0 1 -21.188 18.376 36.645 36.645 0 0 1 21.188 18.376l2.812 5.624 2.812-5.624a36.645 36.645 0 0 1 21.188-18.376 36.645 36.645 0 0 1 -21.188-18.376z"/></g></svg>