<?xml version="1.0" encoding="utf-8"?>
<!-- Generator: Adobe Illustrator 25.2.0, SVG Export Plug-In . SVG Version: 6.00 Build 0)  -->
<svg version="1.1" id="Layer_1" xmlns="http://www.w3.org/2000/svg" xmlns:xlink="http://www.w3.org/1999/xlink" x="0px" y="0px"
	 viewBox="0 0 512 512" style="enable-background:new 0 0 512 512;" xml:space="preserve">
<style type="text/css">
	.st0{fill:#9174E3;}
	.st1{fill:#105C6E;}
	.st2{fill:#26879C;}
	.st3{fill:#DE513C;}
	.st4{fill:#FC6249;}
	.st5{fill:#E0DFD4;}
	.st6{fill:#F4F2E6;}
	.st7{fill:#725539;}
	.st8{fill:#E8834D;}
	.st9{fill:#D66E41;}
	.st10{fill:#6B4C32;}
	.st11{fill:#563E2F;}
	.st12{fill:#4C362A;}
</style>
<circle class="st0" cx="256" cy="256" r="243"/>
<g>
	<path class="st1" d="M297,106.1l-11.7-11.7c-2.7-2.7-6.3-4.2-10.1-4.2c-3.8,0-7.4,1.5-10.1,4.2l-8.5,8.5c-5.6,5.6-5.6,14.7,0,20.2
		l11.7,11.7c1.1,1.1,2.6,1.7,4.1,1.7s3-0.6,4.1-1.7c2.3-2.3,18.1-18.2,20.4-20.4C299.2,112,299.2,108.3,297,106.1z"/>
	<path class="st2" d="M338.3,67.6c-3.2,0-5.9,2.6-5.9,5.8v18.7c0,3.2,2.6,5.8,5.9,5.8s5.9-2.6,5.9-5.8V73.4
		C344.2,70.2,341.6,67.6,338.3,67.6z"/>
	<path class="st3" d="M352.8,66.4h-28.9c-3.2,0-5.9,2.6-5.9,5.8s2.6,5.8,5.9,5.8h28.9c3.2,0,5.9-2.6,5.9-5.8S356,66.4,352.8,66.4z"
		/>
	<path class="st4" d="M338.3,66.4h-14.4c-3.2,0-5.9,2.6-5.9,5.8s2.6,5.8,5.9,5.8h14.4V66.4z"/>
	<path class="st3" d="M401.8,112.7c-17-17-39.5-26.3-63.5-26.3s-46.5,9.3-63.5,26.3c-16.9,17-26.3,39.6-26.3,63.6
		s9.3,46.6,26.3,63.6s39.5,26.3,63.5,26.3s46.5-9.4,63.5-26.3c16.9-17,26.3-39.6,26.3-63.6S418.7,129.7,401.8,112.7z"/>
	<path class="st4" d="M338.3,86.3c-24,0-46.5,9.3-63.5,26.3c-16.9,17-26.3,39.5-26.3,63.6s9.3,46.6,26.3,63.6s39.5,26.3,63.5,26.3
		V86.3z"/>
	<path class="st5" d="M338.3,108.8c-37.1,0-67.4,30.3-67.4,67.5s30.2,67.5,67.4,67.5s67.4-30.3,67.4-67.5S375.5,108.8,338.3,108.8z"
		/>
	<path class="st6" d="M338.3,108.8c-37.1,0-67.4,30.3-67.4,67.5s30.2,67.5,67.4,67.5V108.8L338.3,108.8z"/>
	<g>
		<path class="st1" d="M338.3,123.4c3.2,0,5.9-2.6,5.9-5.8V109c-1.9-0.2-3.9-0.3-5.9-0.3s-3.9,0.1-5.9,0.3v8.5
			C332.5,120.8,335.1,123.4,338.3,123.4z"/>
		<path class="st1" d="M338.3,229.1c-3.2,0-5.9,2.6-5.9,5.9v8.5c1.9,0.2,3.9,0.3,5.9,0.3s3.9-0.1,5.9-0.3V235
			C344.2,231.7,341.6,229.1,338.3,229.1z"/>
		<path class="st1" d="M405.4,170.4H397c-3.2,0-5.9,2.6-5.9,5.9s2.6,5.9,5.9,5.9h8.4c0.2-1.9,0.3-3.9,0.3-5.9
			S405.6,172.3,405.4,170.4z"/>
		<path class="st1" d="M285.5,176.2c0-3.2-2.6-5.9-5.9-5.9h-8.4c-0.2,1.9-0.3,3.9-0.3,5.9s0.1,3.9,0.3,5.9h8.4
			C282.8,182.1,285.5,179.5,285.5,176.2z"/>
		<path class="st1" d="M352.8,172.9h-8.2v-23.7c0-3.2-2.6-5.9-5.9-5.9s-5.9,2.6-5.9,5.9v29.5c0,3.2,2.6,5.9,5.9,5.9h14.1
			c3.2,0,5.9-2.6,5.9-5.9S356,172.9,352.8,172.9z"/>
	</g>
</g>
<g>
	<path class="st7" d="M124.9,112.3l2.6-1c3.4-1.3,4.5-5.8,2.3-9.2l-12.9-20c-1.6-2.5-4.5-3.6-7-2.6l-7.1,2.8l-7.1,2.8
		c-2.5,1-3.9,3.7-3.3,6.7l4.2,23.4c0.7,4,4.6,6.5,8,5.2l2.6-1L124.9,112.3z"/>
	<path class="st8" d="M256,469.1c98.7-39.1,51.7-114.4,43.6-126.1c-0.6-0.9-1.7-1.5-2.8-1.4c-6.2,0.1-27.4-0.7-37.7-18.7
		c-13.2-22.9-4.6-40.1-1.4-45.2c0.6-1,0.7-2.3,0.1-3.4c-19-36.2-56.3-52.5-93.8-37.7s-53.6,52.3-42.6,91.7c0.3,1.2,1.2,2.1,2.4,2.4
		c5.8,1.5,23.8,8.1,29.9,33.9c4.8,20.2-10.1,35.3-14.7,39.5c-0.8,0.8-1.3,1.9-1.1,3C140,421.1,157.4,508.2,256,469.1L256,469.1z"/>
	<path class="st9" d="M299.6,343c-0.6-0.9-1.7-1.5-2.8-1.4c-6.2,0.1-27.4-0.7-37.7-18.7c-13.2-22.9-4.6-40.1-1.4-45.2
		c0.6-1,0.7-2.3,0.1-3.4c-19-36.2-56.3-52.5-93.8-37.7c-1.9,0.8-3.8,1.6-5.6,2.4c36.1-11.3,71.3,5.9,89,41.5c0,0-15.5,19.2,0.3,46.7
		c12.2,21.2,44.4,25.8,44.4,25.8s57.4,74.9-41.8,118.1c1.9-0.7,3.8-1.4,5.7-2.1l0,0C354.7,430,307.7,354.7,299.6,343L299.6,343z"/>
	<path class="st7" d="M249,451.4c-5,2-10.6-0.2-13-5l-22.3-44.9c-0.9-1.8-0.1-3.9,1.8-4.6l20.6-8.2c1.8-0.7,3.9,0.3,4.5,2.2l14.5,48
		C256.6,443.9,254,449.4,249,451.4L249,451.4z"/>
	<path class="st10" d="M228.2,391.8l15.5,51.5c0.9,3,0.4,6-1.2,8.5c2.3,0.6,4.8,0.4,7.1-0.7c4.6-2.2,6.8-7.6,5.3-12.5l-14.4-47.7
		c-0.6-1.9-2.6-2.9-4.5-2.2L228.2,391.8z"/>
	<path class="st7" d="M212.7,311.1L126,111.9l-19.8,7.9l73.3,204.6c0.6,1.8,2.6,2.7,4.4,2l27-10.7
		C212.6,314.9,213.5,312.9,212.7,311.1L212.7,311.1z"/>
	<path class="st10" d="M126,111.9l-11.3,4.5l88.1,202.4l8-3.2c1.8-0.7,2.6-2.7,1.9-4.5L126,111.9z"/>
	<path class="st8" d="M139,141.7l-13-29.8l-19.8,7.9l10.9,30.6L139,141.7z"/>
	<path class="st10" d="M129.8,102l-12.9-20c-1.6-2.5-4.5-3.6-7-2.6l-7.1,2.8L98.6,84c2.5-1,5.4,0.1,7,2.6l12.9,20
		c2.2,3.4,1.1,7.9-2.3,9.2l8.7-3.4l2.6-1C130.9,109.9,132,105.4,129.8,102z"/>
	<path class="st9" d="M126,111.9l-11.3,4.5l13,29.8l11.3-4.5L126,111.9z"/>
	<path class="st11" d="M193,441.7c-19.6-1.6-30.3,5.4-35.9,12c14.5,18.7,39.5,33,82.4,21.1C232.9,453.5,207,442.8,193,441.7z"/>
	<path class="st12" d="M193,441.7c-19.6-1.6-30.3,5.4-35.9,12c1.3,1.7,2.8,3.4,4.3,5c6.3-3.8,15.3-6.5,28.2-5.4
		c11.7,0.9,31.7,8.6,41.8,23.5c2.6-0.6,5.3-1.2,8.1-2C232.9,453.5,207,442.8,193,441.7z"/>
	<path class="st11" d="M182.9,415.3c-2.9,6.7-8.6,10.8-12.6,12.3c-2.6,1-5.5-0.2-6.6-2.8c-1-2.6,0.2-5.5,2.8-6.6
		c0.1-0.1,2.9-1.3,5.2-3.9c2.9-3.4,3.6-7.5,2.2-12.7c-4.6-17.3-7.8-34.8-0.2-44.9c1.7-2.2,4.8-2.7,7.1-1c2.2,1.7,2.7,4.8,1,7.1
		c-5.7,7.6-0.2,28.4,1.9,36.2C185.5,405.6,184.8,411,182.9,415.3L182.9,415.3z"/>
	<path class="st11" d="M292.9,377.5c-0.5,1.2-1.5,2.2-2.8,2.7c-6.6,2.6-21.2,3.5-29.4-11.7c-3.9-7.1-14.1-26.1-23.4-27.7
		c-2.8-0.5-4.6-3.1-4.1-5.9c0.5-2.8,3.1-4.6,5.9-4.1c12.4,2.2,22,17.1,30.5,32.9c6,11.2,16.3,7.2,16.8,7.1c2.6-1,5.5,0.2,6.6,2.8
		C293.5,374.9,293.4,376.3,292.9,377.5z"/>
	<path class="st11" d="M239.5,368.9c-0.5,1.2-1.5,2.2-2.8,2.7l-33.5,13.3c-2.6,1-5.5-0.2-6.6-2.8c-1-2.6,0.2-5.5,2.8-6.6l33.5-13.3
		c2.6-1,5.5,0.2,6.6,2.8C240.1,366.3,240.1,367.7,239.5,368.9z"/>
</g>
</svg>
